<svg width="100" height="100" viewBox="0 0 100 100" fill="none" xmlns="http://www.w3.org/2000/svg">
<rect width="100" height="100" rx="15" fill="white"/>
<path d="M76.058 39.1482C74.766 41.8389 73.0753 44.302 71.0525 46.4511C68.0857 49.6055 65.3042 51.4861 62.711 53.064C62.655 48.1145 62.823 44.5864 63.3593 43.6423C65.7036 39.5234 69.6606 41.1112 69.6606 30.7719C69.6606 27.7846 68.7922 14.8552 68.1772 10.3989C68.1477 10.1893 67.9616 10.0358 67.7513 10.0456C67.5403 10.0532 67.3693 10.2211 67.358 10.4314L66.4585 33.1797C66.4449 33.3953 66.2709 33.5625 66.0538 33.5685C65.8382 33.5715 65.6582 33.4089 65.6378 33.1948L64.205 9.99869C64.1854 9.78915 64.0069 9.625 63.7958 9.625C63.5802 9.625 63.4039 9.78915 63.3866 10.0017L61.9712 33.2909C61.9561 33.5035 61.7806 33.6691 61.568 33.6722C61.3577 33.6691 61.1807 33.5035 61.1663 33.2909L59.7517 10.0017C59.7351 9.78915 59.5558 9.625 59.3448 9.625C59.1307 9.625 58.9544 9.78915 58.934 9.99869L57.499 33.1948C57.4793 33.4089 57.297 33.5715 57.0822 33.5685C56.8696 33.5625 56.6911 33.3953 56.6813 33.1797L55.7803 10.4314C55.7682 10.2218 55.598 10.0532 55.387 10.0456C55.1759 10.035 54.9929 10.1886 54.9641 10.3989C54.3483 14.8552 53.4799 27.7839 53.4799 30.7719C53.4799 41.1112 57.4385 39.5226 59.782 43.6423C60.3668 44.6704 60.5135 48.7734 60.4076 54.4408C56.4498 56.8048 52.9761 59.1407 50.007 65.386L50.0047 65.3906L49.9964 65.3747C47.2164 59.528 43.9311 57.0952 40.2169 54.8228C39.9362 48.3823 39.9824 43.4093 40.7161 42.115C43.0597 37.9976 51.7234 33.4331 48.9979 23.3737C46.2708 13.3165 42.0468 10.2892 38.9264 10.2892C35.8044 10.2892 31.5834 13.3165 28.8548 23.3737C26.1301 33.4339 34.7946 37.9976 37.1373 42.115C37.8144 43.3042 37.9074 47.613 37.6994 53.3084C34.9761 51.6608 32.0539 49.7477 28.9547 46.4541C26.9304 44.3027 25.2389 41.8382 23.9462 39.1482C22.1276 42.9305 21.1079 47.1689 21.1079 51.6472C21.1079 59.3064 24.0891 66.2681 28.9547 71.4377C37.4679 80.4858 44.6619 79.1415 49.9949 90.3599L50.0032 90.375L50.0055 90.3705C55.3968 79.0296 62.447 80.5826 71.0503 71.437C75.9143 66.2673 78.8925 59.3056 78.8925 51.648C78.8948 47.1689 77.8751 42.9305 76.058 39.1482ZM39.3818 41.5431C39.8704 40.1323 40.552 38.7548 41.375 37.5082C46.637 29.5389 44.7663 20.7563 40.6307 11.8967C42.9076 13.6501 45.2451 17.2078 46.9796 23.6067C49.7173 33.7039 41.7328 37.4106 39.381 41.5462L39.3818 41.5431Z" fill="#8BC53F"/>
</svg>
