<svg width="285" height="55" viewBox="0 0 285 55" fill="none" xmlns="http://www.w3.org/2000/svg">
<circle cx="27.5" cy="27.5" r="27.5" fill="#F5F5F5"/>
<g clip-path="url(#clip0_183_102)">
<path d="M40.5643 24.8323L28.88 24.8318C28.364 24.8318 27.9458 25.2499 27.9458 25.7659V29.4985C27.9458 30.0144 28.364 30.4327 28.8799 30.4327H35.4598C34.7393 32.3025 33.3946 33.8685 31.6788 34.8635L34.4845 39.7203C38.9851 37.1174 41.6459 32.5504 41.6459 27.4379C41.6459 26.7099 41.5923 26.1896 41.485 25.6036C41.4034 25.1584 41.0169 24.8323 40.5643 24.8323Z" fill="#167EE6"/>
<path d="M27.322 36.0413C24.1019 36.0413 21.2908 34.2819 19.781 31.6785L14.9243 34.4778C17.3959 38.7614 22.0259 41.6459 27.322 41.6459C29.9201 41.6459 32.3716 40.9464 34.4834 39.7273V39.7207L31.6778 34.8637C30.3944 35.6081 28.9093 36.0413 27.322 36.0413Z" fill="#12B347"/>
<path d="M34.4852 39.7271V39.7204L31.6795 34.8635C30.3962 35.6078 28.9112 36.0411 27.3237 36.0411V41.6457C29.9218 41.6457 32.3735 40.9462 34.4852 39.7271Z" fill="#0F993E"/>
<path d="M18.6056 27.3228C18.6056 25.7356 19.0388 24.2506 19.7829 22.9673L14.9262 20.168C13.7004 22.2732 13.001 24.718 13.001 27.3228C13.001 29.9275 13.7004 32.3724 14.9262 34.4776L19.7829 31.6782C19.0388 30.3949 18.6056 28.91 18.6056 27.3228Z" fill="#FFD500"/>
<path d="M27.322 18.6046C29.4218 18.6046 31.3506 19.3508 32.8571 20.5919C33.2288 20.898 33.769 20.8759 34.1094 20.5355L36.7541 17.8908C37.1404 17.5045 37.1129 16.8722 36.7002 16.5143C34.1761 14.3245 30.8919 13 27.322 13C22.0259 13 17.3959 15.8846 14.9243 20.1681L19.781 22.9675C21.2908 20.364 24.1019 18.6046 27.322 18.6046Z" fill="#FE724C"/>
<path d="M32.8589 20.5919C33.2305 20.898 33.7708 20.8759 34.1112 20.5355L36.7559 17.8908C37.1421 17.5045 37.1146 16.8722 36.702 16.5143C34.1779 14.3244 30.8937 13 27.3237 13V18.6046C29.4235 18.6046 31.3523 19.3508 32.8589 20.5919Z" fill="#D93F21"/>
</g>
<circle cx="257.5" cy="27.5" r="27.5" fill="#F5F5F5"/>
<g clip-path="url(#clip1_183_102)">
<path d="M260.204 42.7917V29.2033H264.763L265.447 23.9061H260.204V20.5246C260.204 18.9914 260.628 17.9466 262.829 17.9466L265.632 17.9454V13.2074C265.147 13.1444 263.484 13 261.547 13C257.503 13 254.735 15.4682 254.735 20V23.9061H250.162V29.2033H254.735V42.7917H260.204Z" fill="#2B44DA"/>
</g>
<circle cx="142.5" cy="27.5" r="27.5" fill="#F5F5F5"/>
<g clip-path="url(#clip2_183_102)">
<path d="M147.693 13C146.166 13.1056 144.381 14.0832 143.341 15.3561C142.392 16.5109 141.612 18.226 141.916 19.8929C143.585 19.9448 145.309 18.944 146.308 17.6495C147.242 16.4446 147.949 14.7402 147.693 13Z" fill="#A8A8A8"/>
<path d="M153.729 22.6106C152.262 20.7719 150.202 19.7048 148.255 19.7048C145.686 19.7048 144.6 20.9348 142.815 20.9348C140.974 20.9348 139.576 19.7084 137.354 19.7084C135.171 19.7084 132.848 21.0422 131.374 23.3231C129.303 26.535 129.657 32.5739 133.014 37.7176C134.215 39.5581 135.82 41.6277 137.918 41.6456C139.785 41.6635 140.312 40.4479 142.841 40.4353C145.371 40.421 145.851 41.6617 147.715 41.642C149.815 41.6259 151.507 39.3325 152.708 37.492C153.569 36.1725 153.89 35.5083 154.557 34.0187C149.7 32.1693 148.921 25.2621 153.729 22.6106Z" fill="#A8A8A8"/>
</g>
<defs>
<clipPath id="clip0_183_102">
<rect width="28.6458" height="28.6458" fill="white" transform="translate(13 13)"/>
</clipPath>
<clipPath id="clip1_183_102">
<rect width="29.7917" height="29.7917" fill="white" transform="translate(243 13)"/>
</clipPath>
<clipPath id="clip2_183_102">
<rect width="28.6458" height="28.6458" fill="white" transform="translate(128 13)"/>
</clipPath>
</defs>
</svg>
