<?xml version="1.0" encoding="UTF-8"?>
<svg version="1.1" xmlns="http://www.w3.org/2000/svg" width="36" height="36">
<path d="M0 0 C4.06575732 2.78278501 6.44877969 6.51242408 7.7578125 11.203125 C8.38235442 17.5526345 7.38219806 21.90775649 3.7578125 27.203125 C-0.48018964 31.33246042 -4.19383701 33.0016479 -10.0546875 33.578125 C-15.97174366 33.41034458 -20.53655868 30.95363879 -24.6171875 26.765625 C-27.82492816 21.70726473 -29.1412835 17.23039819 -28.2421875 11.203125 C-26.10990641 4.85238512 -22.84351758 1.14978991 -16.9296875 -2.046875 C-10.52091461 -3.83536976 -5.71802328 -3.18415414 0 0 Z " fill="#5B5D58" transform="translate(28.2421875,2.796875)"/>
<path d="M0 0 C1.5778125 0.2475 1.5778125 0.2475 3.1875 0.5 C6.20817986 0.89615474 8.96840624 1.08916452 12 1 C12.33 1 12.66 1 13 1 C13.99 0.67 14.98 0.34 16 0 C21.57142857 6.28571429 21.57142857 6.28571429 22 10 C20.68 10.33 19.36 10.66 18 11 C18.99 11.66 19.98 12.32 21 13 C20.67 13.66 20.34 14.32 20 15 C18.02 14.01 16.04 13.02 14 12 C11.81673892 16.27113698 9.68673918 20.50202887 8 25 C7.34 25 6.68 25 6 25 C5.34 24.34 4.68 23.68 4 23 C3.67 23 3.34 23 3 23 C3 21.02 3 19.04 3 17 C4.65 16.34 6.3 15.68 8 15 C7.34 14.34 6.68 13.68 6 13 C3.39719432 13.32041397 3.39719432 13.32041397 1 14 C0.67 14.99 0.34 15.98 0 17 C-0.66 17 -1.32 17 -2 17 C-2 16.34 -2 15.68 -2 15 C-2.99 15.33 -3.98 15.66 -5 16 C-6.28317892 12.15046324 -6.06643637 9.05261865 -6 5 C-5.01 5 -4.02 5 -3 5 C-3 4.01 -3 3.02 -3 2 C-2.34 2 -1.68 2 -1 2 C-1 5.63 -1 9.26 -1 13 C3.95956731 11.68638907 3.95956731 11.68638907 4.875 9.0625 C5.14078645 6.80062726 5.14078645 6.80062726 4 4 C1.99983534 2.79117904 1.99983534 2.79117904 0 2 C0 1.34 0 0.68 0 0 Z " fill="#623F2D" transform="translate(13,3)"/>
<path d="M0 0 C2.125 0.9375 2.125 0.9375 4 2 C4.45531383 8.37439357 3.63493235 12.67192327 0 18 C-3.3415471 21.3415471 -6.47233266 22.73646493 -11 24 C-10.5205537 19.78087253 -9.83374881 17.20336822 -7 14 C-7.66 13.67 -8.32 13.34 -9 13 C-8.49202991 8.6822542 -7.80317221 4.96697886 -6 1 C-5.21625 1.495 -4.4325 1.99 -3.625 2.5 C-1.21447673 4.16537965 -1.21447673 4.16537965 1 4 C0.01 3.01 -0.98 2.02 -2 1 C-1.34 0.67 -0.68 0.34 0 0 Z " fill="#0E0F0F" transform="translate(32,12)"/>
<path d="M0 0 C0 2.31 0 4.62 0 7 C-2 4 -2 4 -2 2 C-3.051875 2.20625 -4.10375 2.4125 -5.1875 2.625 C-8.99624887 2.99963104 -10.66835752 2.71630067 -14 1 C-13.18437076 3.18153844 -13.18437076 3.18153844 -11 3.8125 C-9 5 -9 5 -8.25 7.625 C-8.12625 8.800625 -8.12625 8.800625 -8 10 C-12.75 14 -12.75 14 -15 14 C-15 10.37 -15 6.74 -15 3 C-15.66 3 -16.32 3 -17 3 C-17 3.99 -17 4.98 -17 6 C-17.99 6 -18.98 6 -20 6 C-19.34 9.3 -18.68 12.6 -18 16 C-17.34 16 -16.68 16 -16 16 C-15.67 17.98 -15.34 19.96 -15 22 C-15.33 21.01 -15.66 20.02 -16 19 C-17.32303717 18.6278958 -18.65737935 18.29369827 -20 18 C-20.33 17.34 -20.66 16.68 -21 16 C-21.66 16.66 -22.32 17.32 -23 18 C-24.56266537 13.31200389 -24.05071718 8.79299754 -23 4 C-20.75 1.4375 -20.75 1.4375 -18 0 C-17.236875 -0.4125 -16.47375 -0.825 -15.6875 -1.25 C-10.17670807 -2.78789542 -5.16623953 -2.58311976 0 0 Z " fill="#463C2B" transform="translate(27,2)"/>
<path d="M0 0 C2.76276177 0.52268466 5.3260876 1.10869587 8 2 C7.67 3.32 7.34 4.64 7 6 C7.66 6 8.32 6 9 6 C8.67 6.66 8.34 7.32 8 8 C8.33 8.33 8.66 8.66 9 9 C9 10.32 9 11.64 9 13 C6.36 13.33 3.72 13.66 1 14 C0.67 14.99 0.34 15.98 0 17 C-0.66 17 -1.32 17 -2 17 C-2 16.34 -2 15.68 -2 15 C-2.99 15.33 -3.98 15.66 -5 16 C-6.28317892 12.15046324 -6.06643637 9.05261865 -6 5 C-5.01 5 -4.02 5 -3 5 C-3 4.01 -3 3.02 -3 2 C-2.34 2 -1.68 2 -1 2 C-1 5.63 -1 9.26 -1 13 C3.95956731 11.68638907 3.95956731 11.68638907 4.875 9.0625 C5.14078645 6.80062726 5.14078645 6.80062726 4 4 C1.99983534 2.79117904 1.99983534 2.79117904 0 2 C0 1.34 0 0.68 0 0 Z " fill="#ABAFB2" transform="translate(13,3)"/>
<path d="M0 0 C2.125 0.9375 2.125 0.9375 4 2 C4.45028522 8.30399313 3.61202629 12.71378634 0 18 C-0.66 18.33 -1.32 18.66 -2 19 C-2.33 16.69 -2.66 14.38 -3 12 C-3.99 11.67 -4.98 11.34 -6 11 C-4.87994369 7.63983107 -3.62788203 6.30935087 -1 4 C-0.34 4 0.32 4 1 4 C0.01 3.01 -0.98 2.02 -2 1 C-1.34 0.67 -0.68 0.34 0 0 Z M-2 10 C-1.34 11.32 -0.68 12.64 0 14 C0.33 12.35 0.66 10.7 1 9 C-0.2236068 8.9254644 -0.2236068 8.9254644 -2 10 Z " fill="#13130E" transform="translate(32,12)"/>
<path d="M0 0 C0.33 0 0.66 0 1 0 C1 3.63 1 7.26 1 11 C1.66 10.34 2.32 9.68 3 9 C3.33 10.32 3.66 11.64 4 13 C5.32 13.33 6.64 13.66 8 14 C8 14.66 8 15.32 8 16 C4.04 16.495 4.04 16.495 0 17 C-0.33 17.99 -0.66 18.98 -1 20 C-3.43160427 15.13679146 -4.01316385 10.10391237 -2.32421875 4.9296875 C-1.61062427 3.2589971 -0.81245597 1.62491194 0 0 Z " fill="#A4A4A1" transform="translate(3,7)"/>
<path d="M0 0 C0.556875 0.53625 1.11375 1.0725 1.6875 1.625 C0.3675 1.955 -0.9525 2.285 -2.3125 2.625 C-2.3125 4.275 -2.3125 5.925 -2.3125 7.625 C-2.6425 6.305 -2.9725 4.985 -3.3125 3.625 C-3.9725 3.625 -4.6325 3.625 -5.3125 3.625 C-4.96805119 6.09766765 -4.96805119 6.09766765 -4.3125 8.625 C-3.6525 8.955 -2.9925 9.285 -2.3125 9.625 C-2.3125 10.285 -2.3125 10.945 -2.3125 11.625 C-1.6525 11.955 -0.9925 12.285 -0.3125 12.625 C-0.6425 13.285 -0.9725 13.945 -1.3125 14.625 C-6.0625 13.875 -6.0625 13.875 -8.3125 11.625 C-8.75694444 3.625 -8.75694444 3.625 -7.3125 0.625 C-4.26255704 -1.27091049 -3.16971733 -1.88469679 0 0 Z " fill="#293235" transform="translate(21.3125,16.375)"/>
<path d="M0 0 C0.33 0.66 0.66 1.32 1 2 C2.65 2 4.3 2 6 2 C5.21625 2.70125 4.4325 3.4025 3.625 4.125 C0.91639182 7.09157086 -0.01722715 9.1582516 -1 13 C-7.625 13.25 -7.625 13.25 -11 11 C-10.34 9.35 -9.68 7.7 -9 6 C-6.69 6.66 -4.38 7.32 -2 8 C-1.34 5.36 -0.68 2.72 0 0 Z " fill="#374246" transform="translate(22,23)"/>
<path d="M0 0 C0.33 0 0.66 0 1 0 C1.06058594 0.84304687 1.12117187 1.68609375 1.18359375 2.5546875 C1.26738281 3.65039062 1.35117188 4.74609375 1.4375 5.875 C1.51871094 6.96554688 1.59992187 8.05609375 1.68359375 9.1796875 C1.83001703 11.94728971 1.83001703 11.94728971 3 14 C3.66 14 4.32 14 5 14 C5.33 15.98 5.66 17.96 6 20 C5.67 19.01 5.34 18.02 5 17 C3.67696283 16.6278958 2.34262065 16.29369827 1 16 C0.67 15.34 0.34 14.68 0 14 C-0.66 14.66 -1.32 15.32 -2 16 C-3.0825154 12.7524538 -2.98903488 10.81739096 -2.6875 7.4375 C-2.60886719 6.46683594 -2.53023438 5.49617187 -2.44921875 4.49609375 C-2 2 -2 2 0 0 Z " fill="#1C1A16" transform="translate(6,4)"/>
<path d="M0 0 C1.65 0.33 3.3 0.66 5 1 C5.66 2.98 6.32 4.96 7 7 C5.68 7.33 4.36 7.66 3 8 C3.99 8.66 4.98 9.32 6 10 C5.67 10.66 5.34 11.32 5 12 C3.02 11.01 1.04 10.02 -1 9 C-1 7.68 -1 6.36 -1 5 C-0.34 5 0.32 5 1 5 C0.67 3.35 0.34 1.7 0 0 Z " fill="#4D4431" transform="translate(28,6)"/>
<path d="M0 0 C0.33 0 0.66 0 1 0 C1 1.98 1 3.96 1 6 C-2.96 7.98 -2.96 7.98 -7 10 C-7.33 8.68 -7.66 7.36 -8 6 C-6.0625 3.25 -6.0625 3.25 -4 1 C-3.34 1.66 -2.68 2.32 -2 3 C-1.34 2.01 -0.68 1.02 0 0 Z " fill="#070707" transform="translate(29,26)"/>
<path d="M0 0 C-0.99 2.97 -1.98 5.94 -3 9 C-3.66 9 -4.32 9 -5 9 C-5.66 8.34 -6.32 7.68 -7 7 C-7.33 7 -7.66 7 -8 7 C-8 5.02 -8 3.04 -8 1 C-3.375 -1.125 -3.375 -1.125 0 0 Z " fill="#A3AFB5" transform="translate(24,19)"/>
<path d="M0 0 C2.76276177 0.52268466 5.3260876 1.10869587 8 2 C7.67 3.32 7.34 4.64 7 6 C7.66 6 8.32 6 9 6 C8.34 7.65 7.68 9.3 7 11 C6.01 11 5.02 11 4 11 C4.185625 10.401875 4.37125 9.80375 4.5625 9.1875 C5.22093687 6.83591238 5.22093687 6.83591238 4 4 C1.99983534 2.79117904 1.99983534 2.79117904 0 2 C0 1.34 0 0.68 0 0 Z " fill="#B28F74" transform="translate(13,3)"/>
<path d="M0 0 C2.475 0.99 2.475 0.99 5 2 C5 2.66 5 3.32 5 4 C2.36 4.33 -0.28 4.66 -3 5 C-3.33 5.99 -3.66 6.98 -4 8 C-4.66 6.02 -5.32 4.04 -6 2 C-4.02 2 -2.04 2 0 2 C0 1.34 0 0.68 0 0 Z " fill="#B1C3CC" transform="translate(6,19)"/>
<path d="M0 0 C0.66 0 1.32 0 2 0 C2 3.3 2 6.6 2 10 C1.34 10 0.68 10 0 10 C0 9.34 0 8.68 0 8 C-0.99 8 -1.98 8 -3 8 C-3 6.35 -3 4.7 -3 3 C-2.01 3 -1.02 3 0 3 C0 2.01 0 1.02 0 0 Z " fill="#B3C8C4" transform="translate(10,5)"/>
<path d="M0 0 C0 2.31 0 4.62 0 7 C-2 4 -2 4 -2 2 C-4.31 2.33 -6.62 2.66 -9 3 C-9.33 2.34 -9.66 1.68 -10 1 C-6.1496895 -1.56687367 -4.41430237 -0.83288724 0 0 Z " fill="#130F0C" transform="translate(27,2)"/>
<path d="M0 0 C0.33 0.99 0.66 1.98 1 3 C0.67 3.66 0.34 4.32 0 5 C2.16666667 4.16666667 2.16666667 4.16666667 3 2 C5.5 3.375 5.5 3.375 8 5 C8 5.66 8 6.32 8 7 C1.375 7.25 1.375 7.25 -2 5 C-1.34 3.35 -0.68 1.7 0 0 Z " fill="#3C2717" transform="translate(13,29)"/>
<path d="M0 0 C0.99 0.33 1.98 0.66 3 1 C2.67 2.65 2.34 4.3 2 6 C1.34 6 0.68 6 0 6 C-0.33 6.66 -0.66 7.32 -1 8 C-1.99 7.67 -2.98 7.34 -4 7 C-3.02391783 4.07175348 -1.89213369 2.38573379 0 0 Z " fill="#191C1B" transform="translate(30,16)"/>
<path d="M0 0 C2.31 0 4.62 0 7 0 C6.67 0.99 6.34 1.98 6 3 C2.9375 4.1875 2.9375 4.1875 0 5 C0 3.35 0 1.7 0 0 Z " fill="#111616" transform="translate(3,24)"/>
<path d="M0 0 C1.32 1.32 2.64 2.64 4 4 C4.66 3.34 5.32 2.68 6 2 C6.33 2.99 6.66 3.98 7 5 C6.67 5.66 6.34 6.32 6 7 C4.02 7 2.04 7 0 7 C0 4.69 0 2.38 0 0 Z " fill="#849199" transform="translate(0,14)"/>
<path d="M0 0 C0.33 0.66 0.66 1.32 1 2 C1.66 2.33 2.32 2.66 3 3 C2.01 3 1.02 3 0 3 C-0.66 4.32 -1.32 5.64 -2 7 C-2.99 5.68 -3.98 4.36 -5 3 C-3.35 2.01 -1.7 1.02 0 0 Z " fill="#6C6F6E" transform="translate(9,26)"/>
<path d="M0 0 C0.66 0.33 1.32 0.66 2 1 C2 1.66 2 2.32 2 3 C2.66 3.33 3.32 3.66 4 4 C3.67 4.66 3.34 5.32 3 6 C1.35 5.67 -0.3 5.34 -2 5 C-2 3.68 -2 2.36 -2 1 C-1.34 0.67 -0.68 0.34 0 0 Z " fill="#262829" transform="translate(17,25)"/>
<path d="M0 0 C0.99 0 1.98 0 3 0 C3 0.66 3 1.32 3 2 C3.66 2 4.32 2 5 2 C5 3.65 5 5.3 5 7 C4.67 6.34 4.34 5.68 4 5 C3.01 5.33 2.02 5.66 1 6 C0.67 4.02 0.34 2.04 0 0 Z " fill="#8F8877" transform="translate(7,13)"/>
<path d="M0 0 C1.32 0.33 2.64 0.66 4 1 C4.33 1.66 4.66 2.32 5 3 C4.01 3.495 4.01 3.495 3 4 C3 5.32 3 6.64 3 8 C2.34 8 1.68 8 1 8 C0.67 8.66 0.34 9.32 0 10 C0 6.7 0 3.4 0 0 Z " fill="#6D5430" transform="translate(26,3)"/>
<path d="M0 0 C3.465 1.485 3.465 1.485 7 3 C7 3.66 7 4.32 7 5 C6.360625 4.814375 5.72125 4.62875 5.0625 4.4375 C4.0415625 4.2209375 4.0415625 4.2209375 3 4 C2.67 4.33 2.34 4.66 2 5 C1.01 5 0.02 5 -1 5 C-0.67 3.35 -0.34 1.7 0 0 Z " fill="#674D3D" transform="translate(14,29)"/>
<path d="M0 0 C1 2 2 4 3 6 C3.66 6 4.32 6 5 6 C5.33 7.98 5.66 9.96 6 12 C5.67 11.01 5.34 10.02 5 9 C3.67696283 8.6278958 2.34262065 8.29369827 1 8 C-0.35439668 5.29120665 -0.06501451 2.99066732 0 0 Z " fill="#272A26" transform="translate(6,12)"/>
<path d="M0 0 C0.33 0.66 0.66 1.32 1 2 C1.66 2.33 2.32 2.66 3 3 C2.34 3 1.68 3 1 3 C1 3.99 1 4.98 1 6 C0.01 6 -0.98 6 -2 6 C-2 4.35 -2 2.7 -2 1 C-1.34 0.67 -0.68 0.34 0 0 Z " fill="#7B7F78" transform="translate(9,2)"/>
<path d="M0 0 C0.99 0 1.98 0 3 0 C3 1.65 3 3.3 3 5 C1.68 4.67 0.36 4.34 -1 4 C-0.67 2.68 -0.34 1.36 0 0 Z " fill="#5E5242" transform="translate(9,29)"/>
</svg>
