<svg width="430" height="932" viewBox="0 0 430 932" fill="none" xmlns="http://www.w3.org/2000/svg">
<g clip-path="url(#clip0_35_8368)">
<rect width="430" height="932" rx="30" fill="#77B032"/>
<g opacity="0.8" filter="url(#filter0_f_35_8368)">
<circle cx="214.5" cy="465.5" r="272.5" fill="#BCE27C"/>
</g>
<g opacity="0.2">
<mask id="mask0_35_8368" style="mask-type:luminance" maskUnits="userSpaceOnUse" x="-251" y="0" width="932" height="932">
<path d="M681 0L-251 0V932H681V0Z" fill="white"/>
</mask>
<g mask="url(#mask0_35_8368)">
<path d="M45.1304 896.405C43.6395 891.186 39.9123 887.646 35.9986 884.85C28.9169 880.191 19.7851 879.446 9.72152 887.459C9.72152 887.459 2.08064 893.796 -11.3375 899.386C-25.6874 905.35 -40.0373 914.109 -43.9509 930.695C-46.56 941.504 -46.1873 952.127 -38.7328 963.868C-33.1419 972.627 -26.6192 978.963 -19.1647 982.691C-10.7784 986.791 -1.2739 987.536 7.48515 984.368C16.8033 981.2 24.8169 973.931 28.9169 965.172C34.135 954.177 35.9987 943.182 37.4896 933.677C38.7941 925.477 40.0986 918.395 42.8941 913.55C45.8759 908.518 46.8077 902.182 45.1304 896.405ZM40.0986 912.245C33.2032 923.427 35.4396 943.927 25.9351 964.241C16.4306 984.554 -15.6238 995.736 -36.3101 962.563C-40.2237 956.413 -42.0873 950.823 -42.8328 945.604C-45.6282 922.868 -23.2647 907.773 -10.7784 902.741C4.13064 896.591 11.3988 890.627 11.3988 890.627C19.226 882.427 28.7305 883.732 34.8805 888.018C41.7759 892.491 45.8759 902.927 40.0986 912.245Z" stroke="white" stroke-width="2" stroke-miterlimit="10"/>
<path d="M12.1441 946.909C5.80773 960.886 -15.4376 960.7 -17.3012 943.927C-18.233 935.354 -9.28763 915.786 6.92593 923.054C17.9213 927.9 14.0077 942.622 12.1441 946.909Z" stroke="white" stroke-width="2" stroke-miterlimit="10" stroke-linecap="round"/>
</g>
<mask id="mask1_35_8368" style="mask-type:luminance" maskUnits="userSpaceOnUse" x="-251" y="0" width="932" height="932">
<path d="M681 0L-251 0V932H681V0Z" fill="white"/>
</mask>
<g mask="url(#mask1_35_8368)">
<path d="M-23.4509 728.305C-23.4509 728.305 -18.0464 713.024 -11.8964 705.01C-5.74647 696.997 5.24892 679.478 4.68983 662.147C4.31711 644.815 12.3307 640.342 12.3307 640.342" stroke="white" stroke-width="2" stroke-miterlimit="10" stroke-linecap="round"/>
<path d="M14.7531 650.592C14.7531 650.592 15.6849 676.869 -1.46045 688.051" stroke="white" stroke-width="2" stroke-miterlimit="10" stroke-linecap="round"/>
<path d="M19.2259 666.247C19.2259 666.247 16.9896 673.142 10.2805 673.701" stroke="white" stroke-width="2" stroke-miterlimit="10" stroke-linecap="round"/>
<path d="M-0.342114 674.633C-0.342114 674.633 -4.06936 682.088 -9.47388 682.46" stroke="white" stroke-width="2" stroke-miterlimit="10" stroke-linecap="round"/>
<path d="M-15.0649 710.042C-15.0649 710.042 -1.64683 704.824 6.36677 692.151C14.5667 679.478 18.8531 676.31 18.8531 676.31" stroke="white" stroke-width="2" stroke-miterlimit="10" stroke-linecap="round"/>
</g>
<mask id="mask2_35_8368" style="mask-type:luminance" maskUnits="userSpaceOnUse" x="-251" y="0" width="932" height="932">
<path d="M681 0L-251 0V932H681V0Z" fill="white"/>
</mask>
<g mask="url(#mask2_35_8368)">
<path d="M420.092 949.145C414.688 939.268 409.842 925.291 413.197 911.873C419.533 886.527 418.229 871.432 405.742 865.096" stroke="white" stroke-width="2" stroke-miterlimit="10" stroke-linecap="round"/>
<path d="M404.624 877.955C404.624 877.955 405.556 883.173 407.419 889.137C409.097 895.287 411.706 902.182 414.874 905.723" stroke="white" stroke-width="2" stroke-miterlimit="10" stroke-linecap="round"/>
<path d="M398.847 882.241C398.101 878.141 407.979 884.85 408.724 893.796" stroke="white" stroke-width="2" stroke-miterlimit="10"/>
<path d="M432.951 885.782C432.951 885.782 433.883 900.132 424.938 905.536C415.992 910.941 414.129 922.868 414.688 928.086C415.62 938.709 415.62 938.709 415.62 938.709" stroke="white" stroke-width="2" stroke-miterlimit="10" stroke-linecap="round"/>
<path d="M423.82 887.646C423.82 887.646 423.074 898.455 428.479 902.368" stroke="white" stroke-width="2" stroke-miterlimit="10" stroke-linecap="round"/>
<path d="M417.856 950.636C417.856 950.636 412.451 935.355 406.301 927.341C400.151 919.327 389.156 901.809 389.715 884.478C390.088 867.146 382.074 862.673 382.074 862.673" stroke="white" stroke-width="2" stroke-miterlimit="10" stroke-linecap="round"/>
<path d="M379.838 873.109C379.838 873.109 378.906 899.387 396.052 910.568" stroke="white" stroke-width="2" stroke-miterlimit="10" stroke-linecap="round"/>
<path d="M375.179 888.578C375.179 888.578 377.415 895.473 384.124 896.032" stroke="white" stroke-width="2" stroke-miterlimit="10" stroke-linecap="round"/>
<path d="M404.251 924.546C404.81 922.682 407.233 919.887 405.556 910.568C404.065 901.064 394.561 891.187 396.611 886.9" stroke="white" stroke-width="2" stroke-miterlimit="10" stroke-linecap="round"/>
<path d="M394.747 897.15C394.747 897.15 398.474 904.605 403.879 904.977" stroke="white" stroke-width="2" stroke-miterlimit="10" stroke-linecap="round"/>
<path d="M409.47 932.373C409.47 932.373 396.051 927.155 388.038 914.482C379.838 901.809 375.552 898.641 375.552 898.641" stroke="white" stroke-width="2" stroke-miterlimit="10" stroke-linecap="round"/>
</g>
<mask id="mask3_35_8368" style="mask-type:luminance" maskUnits="userSpaceOnUse" x="-251" y="0" width="932" height="932">
<path d="M681 0L-251 0V932H681V0Z" fill="white"/>
</mask>
<g mask="url(#mask3_35_8368)">
<path d="M49.9758 755.887C45.1304 756.633 41.4032 755.515 37.4895 754.955C25.0032 754.024 20.5305 761.105 18.2942 763.528C16.0578 765.951 17.9214 766.883 18.6669 769.305C19.226 770.983 19.226 773.219 16.0578 774.337C12.7033 775.642 11.7715 773.405 11.7715 773.405C14.9397 774.896 18.8533 770.796 17.176 768.56C15.3124 765.951 13.6351 763.155 18.2942 758.683C19.5987 757.378 20.9033 755.887 22.0214 754.583C23.326 751.974 24.6305 748.06 23.8851 743.401C23.6987 742.283 23.5123 741.351 22.9532 740.046C19.226 730.169 23.326 708.737 50.1622 718.801C50.3486 718.801 50.3486 718.801 50.3486 718.801C51.094 719.174 51.8395 719.36 52.5849 719.733C54.8213 720.665 56.6849 721.783 58.1758 722.901C73.8303 734.828 58.9213 754.583 49.9758 755.887Z" stroke="white" stroke-width="2" stroke-miterlimit="10" stroke-linecap="round"/>
<path d="M51.8394 716.378C51.4667 717.496 50.9076 718.242 50.5349 718.987H50.7213C51.4667 719.174 52.2122 719.733 52.9576 720.105C55.9394 709.296 73.4575 702.028 78.1166 683.765C78.6757 680.969 80.7257 678.919 83.3348 677.987L85.012 677.428C85.012 677.428 93.0256 675.565 97.1256 679.851C101.412 684.137 107.189 680.783 105.885 677.056C104.953 674.633 103.276 674.074 98.2438 672.397C92.2802 670.347 98.4301 667.551 98.4301 667.551C119.675 659.91 117.998 651.897 114.271 650.965C111.103 650.219 110.916 652.642 107.935 654.319C102.157 657.488 100.666 649.66 107.189 645.56C135.33 625.62 122.285 621.52 113.526 623.942C105.885 625.992 107.376 641.46 101.785 639.97C98.0574 639.038 102.344 628.042 94.5165 631.77C83.8939 636.801 91.9074 660.469 87.6211 662.892C83.3347 665.315 84.8257 645.001 77.5575 648.356C69.9166 651.71 74.0166 661.401 77.3711 673.701C81.8438 690.287 59.6667 703.519 51.8394 716.378ZM51.8394 716.378C51.8394 715.819 51.8394 716.937 51.8394 716.378Z" stroke="white" stroke-width="2" stroke-miterlimit="10" stroke-linecap="round"/>
<path d="M68.2394 686.187C63.5803 681.901 57.244 691.965 55.9394 687.306C53.3303 679.106 70.103 672.024 66.9348 666.433C63.7667 661.029 59.6667 671.465 55.9394 666.806C52.0258 662.147 60.7848 649.288 47.1804 650.219C38.4213 650.779 37.1168 661.96 43.0804 673.888C49.044 685.815 49.2304 694.76 45.5031 693.456C42.894 692.524 45.3167 686.187 40.6577 686.374C35.9986 686.374 43.8258 693.828 48.4849 701.656C53.8894 710.974 48.1122 717.869 48.1122 717.869L51.6531 719.36C51.6531 719.36 53.3303 713.956 52.3985 708.178C51.2804 697.742 53.7031 695.319 55.7531 695.133C66.5621 693.828 72.8984 690.474 68.2394 686.187Z" stroke="white" stroke-width="2" stroke-miterlimit="10" stroke-linecap="round"/>
<path d="M54.635 748.246C54.635 748.246 52.585 744.333 49.2305 742.656" stroke="white" stroke-width="2" stroke-miterlimit="10" stroke-linecap="round"/>
<path d="M40.4714 747.128C40.4714 747.128 37.3033 744.146 33.3896 743.774" stroke="white" stroke-width="2" stroke-miterlimit="10" stroke-linecap="round"/>
<path d="M34.135 723.274C34.135 723.274 39.7259 723.646 42.1486 725.883" stroke="white" stroke-width="2" stroke-miterlimit="10" stroke-linecap="round"/>
<path d="M46.4348 731.66C46.4348 731.66 52.3984 734.269 54.6348 737.996" stroke="white" stroke-width="2" stroke-miterlimit="10" stroke-linecap="round"/>
<path d="M53.3303 726.815C53.3303 726.815 59.2939 729.424 61.5303 733.151" stroke="white" stroke-width="2" stroke-miterlimit="10" stroke-linecap="round"/>
<path d="M26.4941 731.66C26.4941 731.66 29.8487 731.287 34.135 732.965" stroke="white" stroke-width="2" stroke-miterlimit="10" stroke-linecap="round"/>
</g>
<mask id="mask4_35_8368" style="mask-type:luminance" maskUnits="userSpaceOnUse" x="-251" y="0" width="932" height="932">
<path d="M681 0L-251 0V932H681V0Z" fill="white"/>
</mask>
<g mask="url(#mask4_35_8368)">
<path d="M137.193 757.192C137.193 757.192 121.725 761.106 121.725 775.269C121.725 789.433 125.453 795.024 118.744 811.61C108.494 836.582 118.93 864.91 155.83 863.978C192.73 863.046 207.08 830.805 195.152 807.324C184.157 785.705 169.993 789.433 160.862 776.015C151.73 762.783 145.953 755.515 137.193 757.192Z" stroke="white" stroke-width="2" stroke-miterlimit="10" stroke-linecap="round"/>
<path d="M129.926 760.546C129.926 760.546 124.521 744.333 116.321 745.637C108.121 746.942 115.762 737.81 118.185 739.487C120.607 741.165 130.671 748.247 132.907 758.683" stroke="white" stroke-width="2" stroke-miterlimit="10" stroke-linecap="round"/>
<path d="M126.944 746.383C126.944 746.383 139.43 739.115 138.498 726.628C137.566 714.142 138.498 707.992 138.498 707.992C138.498 707.992 116.694 716.006 126.944 746.383Z" stroke="white" stroke-width="2" stroke-miterlimit="10" stroke-linecap="round"/>
<path d="M129.18 848.882C129.18 848.882 138.685 862.673 164.403 858.573" stroke="white" stroke-width="2" stroke-miterlimit="10" stroke-linecap="round"/>
<path d="M177.261 851.492C177.261 851.492 191.984 844.783 191.239 824.469" stroke="white" stroke-width="2" stroke-miterlimit="10" stroke-linecap="round"/>
<path d="M135.144 762.596C135.144 762.596 140.362 759.801 145.207 765.392C150.053 770.983 152.662 774.896 152.662 774.896" stroke="white" stroke-width="2" stroke-miterlimit="10" stroke-linecap="round"/>
<path d="M161.048 785.706C161.048 785.706 167.012 790.365 174.093 792.787" stroke="white" stroke-width="2" stroke-miterlimit="10" stroke-linecap="round"/>
<path d="M129.18 768.374C129.18 768.374 125.826 771.355 125.453 776.201" stroke="white" stroke-width="2" stroke-miterlimit="10" stroke-linecap="round"/>
<path d="M126.944 746.383C126.944 746.383 125.266 730.728 131.975 719.36C138.498 707.992 138.498 707.992 138.498 707.992" stroke="white" stroke-width="2" stroke-miterlimit="10" stroke-linecap="round"/>
</g>
<mask id="mask5_35_8368" style="mask-type:luminance" maskUnits="userSpaceOnUse" x="-251" y="0" width="932" height="932">
<path d="M681 0L-251 0V932H681V0Z" fill="white"/>
</mask>
<g mask="url(#mask5_35_8368)">
<path d="M149.494 665.687C149.307 666.433 148.562 666.806 147.63 666.619C146.884 666.433 146.512 665.687 146.698 664.756C146.884 664.01 147.63 663.637 148.562 663.824C149.307 664.01 149.866 664.942 149.494 665.687Z" stroke="white" stroke-width="2" stroke-miterlimit="10" stroke-linecap="round"/>
<path d="M126.944 685.069C126.944 685.069 197.575 593.565 204.843 595.615C212.112 597.665 261.87 653.015 258.329 660.283C254.602 667.738 125.08 694.387 126.944 685.069Z" stroke="white" stroke-width="2" stroke-miterlimit="10" stroke-linecap="round"/>
<path d="M204.843 595.615C204.843 595.615 201.116 585.738 207.08 579.588C212.298 574.183 219.939 577.538 222.734 579.588C235.966 589.465 281.625 646.865 279.947 652.642C278.27 658.419 254.043 662.892 254.043 662.892" stroke="white" stroke-width="2" stroke-miterlimit="10" stroke-linecap="round"/>
<path d="M279.948 652.642C279.948 652.642 276.407 644.07 270.63 645.188C264.852 646.306 259.448 657.301 259.448 657.301C259.448 657.301 129.18 689.728 129.18 682.46" stroke="white" stroke-width="2" stroke-miterlimit="10" stroke-linecap="round"/>
<path d="M209.689 618.724C208.571 622.451 204.098 624.688 199.998 623.383C195.712 622.079 193.289 617.979 194.407 614.252C195.525 610.524 199.998 608.288 204.098 609.592C208.384 610.711 210.807 614.811 209.689 618.724Z" stroke="white" stroke-width="2" stroke-miterlimit="10" stroke-linecap="round"/>
<path d="M206.893 617.42C206.148 619.656 203.539 620.961 200.93 620.029C198.321 619.283 196.643 616.674 197.389 614.438C198.134 612.202 200.743 610.897 203.352 611.829C205.962 612.574 207.639 615.183 206.893 617.42Z" stroke="white" stroke-width="2" stroke-miterlimit="10" stroke-linecap="round"/>
<path d="M196.643 658.419C196.643 662.333 193.103 665.688 188.63 665.688C184.157 665.688 180.616 662.519 180.616 658.606C180.616 654.692 184.157 651.338 188.63 651.338C192.916 651.338 196.643 654.506 196.643 658.419Z" stroke="white" stroke-width="2" stroke-miterlimit="10" stroke-linecap="round"/>
<path d="M193.662 658.047C193.662 660.469 191.425 662.333 188.816 662.333C186.021 662.333 183.784 660.469 183.784 658.047C183.784 655.624 186.021 653.76 188.63 653.76C191.239 653.76 193.475 655.624 193.662 658.047Z" stroke="white" stroke-width="2" stroke-miterlimit="10" stroke-linecap="round"/>
<path d="M237.271 647.983C234.848 655.81 225.903 660.097 217.33 657.488C208.757 654.878 203.725 646.492 205.962 638.479C208.384 630.651 217.33 626.365 225.903 628.974C234.662 631.583 239.693 640.156 237.271 647.983Z" stroke="white" stroke-width="2" stroke-miterlimit="10" stroke-linecap="round"/>
<path d="M216.771 634.751C216.584 635.683 215.652 636.056 214.721 635.87C213.789 635.683 213.416 634.751 213.602 633.82C213.789 632.888 214.721 632.515 215.652 632.701C216.584 632.888 217.143 633.82 216.771 634.751Z" stroke="white" stroke-width="2" stroke-miterlimit="10" stroke-linecap="round"/>
<path d="M228.325 635.683C228.139 636.429 227.207 636.801 226.648 636.429C225.903 636.242 225.53 635.31 225.903 634.751C226.089 634.006 227.021 633.633 227.58 634.006C228.325 634.192 228.698 634.938 228.325 635.683Z" stroke="white" stroke-width="2" stroke-miterlimit="10" stroke-linecap="round"/>
<path d="M216.025 647.424C215.839 648.17 215.093 648.542 214.161 648.356C213.416 648.17 213.043 647.424 213.23 646.492C213.416 645.747 214.161 645.374 215.093 645.56C215.839 645.747 216.211 646.679 216.025 647.424Z" stroke="white" stroke-width="2" stroke-miterlimit="10" stroke-linecap="round"/>
<path d="M222.362 641.088C222.175 641.647 221.616 642.019 221.057 641.833C220.498 641.647 220.125 641.088 220.312 640.529C220.498 639.969 221.057 639.597 221.616 639.783C222.175 639.969 222.548 640.529 222.362 641.088Z" stroke="white" stroke-width="2" stroke-miterlimit="10" stroke-linecap="round"/>
<path d="M226.462 651.897C226.275 652.456 225.716 652.828 225.157 652.642C224.598 652.456 224.225 651.897 224.412 651.338C224.598 650.779 225.157 650.406 225.716 650.592C226.275 650.779 226.648 651.338 226.462 651.897Z" stroke="white" stroke-width="2" stroke-miterlimit="10" stroke-linecap="round"/>
<path d="M232.984 644.442C232.798 645.001 232.239 645.374 231.68 645.188C231.121 645.001 230.748 644.442 230.934 643.883C231.121 643.324 231.68 642.951 232.239 643.138C232.798 643.138 233.171 643.697 232.984 644.442Z" stroke="white" stroke-width="2" stroke-miterlimit="10" stroke-linecap="round"/>
<path d="M157.693 646.492C158.066 646.492 158.439 646.679 158.812 646.865C167.384 649.474 172.416 657.86 170.18 665.874C167.757 673.701 158.812 677.987 150.239 675.378C145.953 674.074 142.598 671.278 140.548 667.924" stroke="white" stroke-width="2" stroke-miterlimit="10" stroke-linecap="round"/>
<path d="M160.675 653.201C160.489 653.947 159.557 654.319 158.998 653.947C158.252 653.76 157.88 652.828 158.252 652.269C158.439 651.524 159.371 651.151 159.93 651.524C160.675 651.71 161.048 652.456 160.675 653.201Z" stroke="white" stroke-width="2" stroke-miterlimit="10" stroke-linecap="round"/>
<path d="M157.135 660.656C156.948 661.215 156.389 661.588 155.83 661.401C155.271 661.215 154.898 660.656 155.085 660.097C155.271 659.538 155.83 659.165 156.389 659.351C156.948 659.538 157.321 660.097 157.135 660.656Z" stroke="white" stroke-width="2" stroke-miterlimit="10" stroke-linecap="round"/>
<path d="M159.185 669.788C158.998 670.347 158.439 670.719 157.88 670.533C157.321 670.347 156.948 669.788 157.135 669.229C157.321 668.669 157.88 668.297 158.439 668.483C158.998 668.483 159.371 669.229 159.185 669.788Z" stroke="white" stroke-width="2" stroke-miterlimit="10" stroke-linecap="round"/>
<path d="M166.08 661.588C165.893 662.147 165.334 662.519 164.775 662.333C164.216 662.147 163.843 661.588 164.03 661.029C164.216 660.469 164.775 660.097 165.334 660.283C165.893 660.469 166.266 661.029 166.08 661.588Z" stroke="white" stroke-width="2" stroke-miterlimit="10" stroke-linecap="round"/>
</g>
<mask id="mask6_35_8368" style="mask-type:luminance" maskUnits="userSpaceOnUse" x="-251" y="0" width="932" height="932">
<path d="M681 0L-251 0V932H681V0Z" fill="white"/>
</mask>
<g mask="url(#mask6_35_8368)">
<path d="M306.411 743.774C306.411 743.774 298.77 743.028 297.466 736.505C295.043 724.205 304.175 709.669 299.329 706.687C295.788 704.451 294.297 707.433 294.857 710.974C295.229 714.515 295.416 717.869 286.843 717.683C279.947 717.496 273.238 712.278 274.729 701.469C276.22 690.474 286.097 678.36 310.325 677.056C334.552 675.751 342.565 695.878 341.634 702.774C340.702 709.669 336.788 715.446 329.334 714.328C321.879 713.21 325.979 707.246 323.743 705.383C321.506 703.519 315.729 703.892 317.965 710.042C319.456 714.142 329.893 731.287 322.438 739.487C317.034 745.451 306.411 743.774 306.411 743.774Z" stroke="white" stroke-width="2" stroke-miterlimit="10" stroke-linecap="round"/>
<path d="M294.67 710.974C294.67 710.974 296.907 707.619 298.77 709.297C300.634 710.974 300.447 712.837 300.447 712.837" stroke="white" stroke-width="2" stroke-miterlimit="10" stroke-linecap="round"/>
<path d="M317.779 710.228C317.779 710.228 317.779 706.874 321.134 707.246C324.302 707.619 324.488 711.16 324.488 711.16" stroke="white" stroke-width="2" stroke-miterlimit="10" stroke-linecap="round"/>
<path d="M314.797 679.292C314.797 679.292 329.52 680.41 335.297 692.71" stroke="white" stroke-width="2" stroke-miterlimit="10" stroke-linecap="round"/>
<path d="M300.448 735.014C300.448 735.014 300.634 739.114 308.088 740.233C315.543 741.351 321.32 736.133 321.32 736.133" stroke="white" stroke-width="2" stroke-miterlimit="10" stroke-linecap="round"/>
</g>
<mask id="mask7_35_8368" style="mask-type:luminance" maskUnits="userSpaceOnUse" x="-251" y="0" width="932" height="932">
<path d="M681 0L-251 0V932H681V0Z" fill="white"/>
</mask>
<g mask="url(#mask7_35_8368)">
<path d="M184.902 215.435C184.902 215.435 179.871 236.681 161.234 248.235C137.753 262.772 109.985 265.008 102.717 255.876C99.7347 252.335 100.667 248.608 101.598 244.881C102.53 241.154 103.835 239.29 106.071 237.426C117.253 228.481 136.262 235.376 152.662 231.276C172.975 226.245 181.175 213.199 184.716 213.386C185.275 213.572 184.902 213.758 184.902 215.435Z" stroke="white" stroke-width="2" stroke-miterlimit="10" stroke-linecap="round"/>
<path d="M101.039 252.708C101.039 252.708 98.0575 248.422 92.2802 249.353C86.503 250.099 73.2712 245.999 73.6439 242.458L75.1349 241.526C75.1349 241.526 79.9803 245.812 87.9939 246.185C96.0075 246.558 98.2438 248.049 102.157 242.831" stroke="white" stroke-width="2" stroke-miterlimit="10" stroke-linecap="round"/>
<path d="M104.953 245.067C104.953 245.067 108.867 237.799 117.253 237.426" stroke="white" stroke-width="2" stroke-miterlimit="10" stroke-linecap="round"/>
<path d="M125.453 255.876C125.453 255.876 153.966 253.453 169.248 237.24" stroke="white" stroke-width="2" stroke-miterlimit="10" stroke-linecap="round"/>
<path d="M172.603 232.954C172.603 232.954 178.193 226.431 181.175 218.79" stroke="white" stroke-width="2" stroke-miterlimit="10" stroke-linecap="round"/>
</g>
<mask id="mask8_35_8368" style="mask-type:luminance" maskUnits="userSpaceOnUse" x="-251" y="0" width="932" height="932">
<path d="M681 0L-251 0V932H681V0Z" fill="white"/>
</mask>
<g mask="url(#mask8_35_8368)">
<path d="M481.592 351.107C481.592 351.107 463.142 362.662 441.71 357.816C414.688 351.666 393.629 333.776 394.747 322.221C395.306 317.562 398.474 315.698 401.642 313.648C404.997 311.598 407.233 311.226 410.215 311.412C424.565 312.903 433.138 331.166 447.674 339.739C465.751 350.548 480.66 346.821 483.083 349.616C483.269 349.989 482.896 349.803 481.592 351.107Z" stroke="white" stroke-width="2" stroke-miterlimit="10" stroke-linecap="round"/>
<path d="M395.865 318.494C395.865 318.494 396.797 313.462 392.138 309.921C387.479 306.567 381.143 294.267 383.565 291.844L385.429 292.217C385.429 292.217 385.988 298.739 391.393 304.517C396.797 310.48 397.356 313.089 403.879 312.158" stroke="white" stroke-width="2" stroke-miterlimit="10" stroke-linecap="round"/>
<path d="M403.879 315.885C403.879 315.885 411.706 313.462 418.042 319.053" stroke="white" stroke-width="2" stroke-miterlimit="10" stroke-linecap="round"/>
<path d="M410.774 338.062C410.774 338.062 432.765 356.325 454.942 355.58" stroke="white" stroke-width="2" stroke-miterlimit="10" stroke-linecap="round"/>
</g>
<mask id="mask9_35_8368" style="mask-type:luminance" maskUnits="userSpaceOnUse" x="-251" y="0" width="932" height="932">
<path d="M681 0L-251 0V932H681V0Z" fill="white"/>
</mask>
<g mask="url(#mask9_35_8368)">
<path d="M349.274 851.864C349.274 851.864 336.974 877.955 286.097 876.277C235.22 874.6 231.866 829.128 251.061 819.064C270.257 809 266.902 809.373 275.475 795.955C284.048 782.537 313.493 777.132 323.184 795.955C332.874 814.778 334.738 816.082 347.224 824.282C359.897 832.296 349.274 851.864 349.274 851.864Z" stroke="white" stroke-width="2" stroke-miterlimit="10" stroke-linecap="round"/>
<path d="M311.07 832.482C310.511 841.055 302.684 847.578 293.179 847.018C283.861 846.459 276.593 839.005 277.152 830.432C277.711 821.86 285.538 815.337 295.043 815.896C304.361 816.455 311.443 823.909 311.07 832.482Z" stroke="white" stroke-width="2" stroke-miterlimit="10" stroke-linecap="round"/>
<path d="M286.656 841.055C286.656 841.055 294.67 845.528 301.938 841.055" stroke="white" stroke-width="2" stroke-miterlimit="10" stroke-linecap="round"/>
<path d="M305.479 835.65C305.479 835.65 308.461 827.264 304.734 823.35" stroke="white" stroke-width="2" stroke-miterlimit="10" stroke-linecap="round"/>
</g>
<mask id="mask10_35_8368" style="mask-type:luminance" maskUnits="userSpaceOnUse" x="-251" y="0" width="932" height="932">
<path d="M681 0L-251 0V932H681V0Z" fill="white"/>
</mask>
<g mask="url(#mask10_35_8368)">
<path d="M424.938 695.319C420.279 696.251 419.533 694.574 419.16 706.128C418.788 717.869 418.229 749.924 413.197 756.26L411.147 757.378C411.147 757.378 360.829 751.228 360.27 743.401C359.711 735.574 359.711 683.765 356.543 682.647C353.374 681.528 349.274 677.615 350.206 672.583C350.206 672.583 350.579 666.433 356.17 665.501C366.792 663.824 425.31 673.142 430.715 680.969C436.492 688.983 429.597 694.388 424.938 695.319Z" stroke="white" stroke-width="2" stroke-miterlimit="10" stroke-linecap="round"/>
<path d="M413.383 756.26C412.824 757.005 412.079 757.378 411.333 757.378L413.383 756.26Z" stroke="white" stroke-width="2" stroke-miterlimit="10"/>
<path d="M481.592 670.16C479.915 670.347 478.61 669.228 478.424 679.665C478.051 691.778 477.492 727.56 470.969 726.628L414.688 755.514C419.719 749.178 418.788 717.869 419.16 706.128C419.533 694.76 420.278 696.437 424.938 695.319C429.597 694.201 436.306 688.797 430.715 680.969C425.124 673.142 366.606 663.824 356.17 665.501L418.601 642.951C419.16 642.579 419.906 642.392 420.651 642.392C430.342 640.901 478.424 650.219 484.574 656.556C489.419 661.774 486.064 669.415 481.592 670.16Z" stroke="white" stroke-width="2" stroke-miterlimit="10" stroke-linecap="round"/>
<path d="M362.692 715.074C362.692 715.074 363.251 741.91 363.624 742.469C363.997 742.842 364.929 744.519 366.979 745.078" stroke="white" stroke-width="2" stroke-miterlimit="10" stroke-linecap="round"/>
<path d="M424.006 681.156C424.006 681.156 397.729 671.838 372.942 669.974" stroke="white" stroke-width="2" stroke-miterlimit="10" stroke-linecap="round"/>
</g>
<mask id="mask11_35_8368" style="mask-type:luminance" maskUnits="userSpaceOnUse" x="-251" y="0" width="932" height="932">
<path d="M681 0L-251 0V932H681V0Z" fill="white"/>
</mask>
<g mask="url(#mask11_35_8368)">
<path d="M388.783 619.097C373.502 639.597 352.07 649.474 340.888 641.088C329.52 632.701 332.688 609.406 347.97 588.72C363.252 568.22 384.683 558.343 395.865 566.729C407.233 575.115 403.879 598.597 388.783 619.097Z" stroke="white" stroke-width="2" stroke-miterlimit="10" stroke-linecap="round"/>
<path d="M378.161 565.052L438.542 544.552C438.542 544.552 473.951 527.966 479.356 555.734C484.574 582.197 467.987 592.82 459.042 596.361C458.669 596.547 458.483 596.733 458.297 596.733L365.674 639.597" stroke="white" stroke-width="2" stroke-miterlimit="10" stroke-linecap="round"/>
<path d="M351.324 607.17C350.765 608.474 349.461 609.033 348.715 608.661C347.97 608.288 347.784 606.983 348.529 605.679C349.088 604.374 350.393 603.815 351.138 604.188C351.884 604.561 352.07 606.051 351.324 607.17Z" stroke="white" stroke-width="2" stroke-miterlimit="10" stroke-linecap="round"/>
<path d="M349.647 627.483C349.088 628.788 347.784 629.347 347.038 628.974C346.293 628.602 346.106 627.297 346.852 625.992C347.411 624.688 348.715 624.129 349.461 624.502C350.02 624.874 350.206 626.365 349.647 627.483Z" stroke="white" stroke-width="2" stroke-miterlimit="10" stroke-linecap="round"/>
<path d="M367.911 617.792C367.352 619.097 366.047 619.656 365.302 619.283C364.556 618.911 364.37 617.606 365.115 616.302C365.674 614.997 366.979 614.438 367.724 614.811C368.47 615.37 368.656 616.674 367.911 617.792Z" stroke="white" stroke-width="2" stroke-miterlimit="10" stroke-linecap="round"/>
<path d="M369.215 597.292C368.656 598.597 367.352 599.156 366.606 598.783C365.861 598.411 365.674 597.106 366.42 595.802C366.979 594.497 368.283 593.938 369.029 594.311C369.588 594.87 369.774 596.174 369.215 597.292Z" stroke="white" stroke-width="2" stroke-miterlimit="10" stroke-linecap="round"/>
<path d="M387.479 584.061C386.92 585.365 385.615 585.924 384.87 585.552C384.124 585.179 383.938 583.874 384.683 582.57C385.242 581.265 386.547 580.706 387.292 581.079C387.852 581.452 388.038 582.756 387.479 584.061Z" stroke="white" stroke-width="2" stroke-miterlimit="10" stroke-linecap="round"/>
<path d="M372.197 580.706C371.265 581.824 369.961 582.011 369.402 581.452C368.656 580.893 368.843 579.588 369.774 578.47C370.706 577.352 372.011 577.165 372.57 577.724C373.315 578.284 373.129 579.774 372.197 580.706Z" stroke="white" stroke-width="2" stroke-miterlimit="10" stroke-linecap="round"/>
<path d="M383.192 602.324C382.633 603.629 381.329 604.188 380.583 603.815C379.838 603.443 379.651 602.138 380.397 600.833C380.956 599.529 382.261 598.97 383.006 599.343C383.751 599.902 383.938 601.206 383.192 602.324Z" stroke="white" stroke-width="2" stroke-miterlimit="10" stroke-linecap="round"/>
<path d="M391.952 622.638C391.952 622.638 457.738 593.193 461.279 591.888C464.819 590.397 470.038 586.111 471.715 581.638" stroke="white" stroke-width="2" stroke-miterlimit="10" stroke-linecap="round"/>
<path d="M395.12 616.488C395.12 616.488 406.86 600.274 405.556 586.67" stroke="white" stroke-width="2" stroke-miterlimit="10" stroke-linecap="round"/>
</g>
<mask id="mask12_35_8368" style="mask-type:luminance" maskUnits="userSpaceOnUse" x="-251" y="0" width="932" height="932">
<path d="M681 0L-251 0V932H681V0Z" fill="white"/>
</mask>
<g mask="url(#mask12_35_8368)">
<path d="M-35.3781 437.021C-35.7508 437.393 -35.5644 437.952 -35.0053 437.952C-28.1099 439.443 -20.4691 440.189 -12.4555 440.189C17.5489 440.189 41.7761 429.007 41.7761 415.03C41.7761 401.053 17.5489 389.871 -12.4555 389.871C-42.4599 389.871 -66.687 401.053 -66.687 415.03C-66.687 417.639 -65.7552 420.062 -64.2643 422.484L-15.2509 415.03L-35.3781 437.021Z" stroke="white" stroke-width="2" stroke-miterlimit="10" stroke-linecap="round"/>
<path d="M-35.9373 437.766L-34.8191 472.057C-34.8191 473.548 -33.7009 475.039 -32.21 475.411C-27.5509 476.53 -16.1828 478.207 3.19892 474.666C26.1215 470.38 36.3715 461.993 39.5397 458.08C40.0987 457.334 40.4715 456.216 40.4715 455.284L41.5896 415.403" stroke="white" stroke-width="2" stroke-miterlimit="10" stroke-linecap="round"/>
<path d="M-29.7871 435.716C-29.7871 435.716 -14.5053 439.071 8.2309 434.784" stroke="white" stroke-width="2" stroke-miterlimit="10" stroke-linecap="round"/>
<path d="M19.2261 431.057C19.2261 431.057 33.0169 427.143 37.4896 418.757" stroke="white" stroke-width="2" stroke-miterlimit="10" stroke-linecap="round"/>
<path d="M-30.5327 472.243C-30.5327 472.243 -15.9964 476.716 10.0944 469.821" stroke="white" stroke-width="2" stroke-miterlimit="10" stroke-linecap="round"/>
</g>
<mask id="mask13_35_8368" style="mask-type:luminance" maskUnits="userSpaceOnUse" x="-251" y="0" width="932" height="932">
<path d="M681 0L-251 0V932H681V0Z" fill="white"/>
</mask>
<g mask="url(#mask13_35_8368)">
<path d="M423.633 463.857C423.633 463.857 454.196 437.58 448.978 408.134C448.978 408.134 415.992 437.207 423.633 463.857Z" stroke="white" stroke-width="2" stroke-miterlimit="10" stroke-linecap="round"/>
</g>
<mask id="mask14_35_8368" style="mask-type:luminance" maskUnits="userSpaceOnUse" x="-251" y="0" width="932" height="932">
<path d="M681 0L-251 0V932H681V0Z" fill="white"/>
</mask>
<g mask="url(#mask14_35_8368)">
<path d="M244.538 789.991C258.143 788.687 258.888 784.587 258.888 784.587C258.888 784.587 258.888 784.587 250.129 773.964C244.538 767.255 243.793 756.819 243.793 750.11C241.37 750.11 238.948 749.551 236.898 748.432C236.898 757.005 239.32 765.95 239.507 766.696C234.102 757.378 228.884 751.787 224.598 748.432C223.852 748.619 223.107 748.805 222.361 748.805C223.107 751.041 223.293 753.464 223.107 755.887C222.92 757.564 222.548 759.055 221.989 760.546C221.057 763.155 219.566 765.578 217.516 767.441C235.593 774.71 244.538 789.991 244.538 789.991Z" stroke="white" stroke-width="2" stroke-miterlimit="10"/>
<path d="M221.989 760.36C226.461 762.223 230.375 764.087 230.375 764.087C227.579 760.173 224.97 757.378 222.92 755.701C222.92 757.192 222.548 758.869 221.989 760.36Z" stroke="white" stroke-width="2" stroke-miterlimit="10"/>
<path d="M248.452 729.424C249.011 730.169 249.943 730.355 250.689 729.983C251.434 729.61 251.62 728.492 251.248 727.746C250.689 727.001 249.757 726.815 249.011 727.187C248.266 727.746 248.08 728.678 248.452 729.424Z" stroke="white" stroke-width="2" stroke-miterlimit="10"/>
<path d="M242.488 736.692C242.861 737.437 243.793 737.624 244.538 737.251C245.284 736.878 245.47 735.946 245.097 735.201C244.725 734.455 243.793 734.269 243.047 734.642C242.302 735.201 242.116 735.946 242.488 736.692Z" stroke="white" stroke-width="2" stroke-miterlimit="10"/>
<path d="M231.12 731.474C231.493 732.219 232.425 732.405 233.17 732.033C233.916 731.66 234.102 730.728 233.73 729.983C233.357 729.237 232.425 729.051 231.68 729.424C230.934 729.796 230.748 730.728 231.12 731.474Z" stroke="white" stroke-width="2" stroke-miterlimit="10"/>
<path d="M211.179 742.469C211.552 743.214 212.484 743.401 213.229 743.028C213.975 742.655 214.161 741.723 213.789 740.978C213.416 740.232 212.484 740.046 211.739 740.419C210.807 740.792 210.62 741.723 211.179 742.469Z" stroke="white" stroke-width="2" stroke-miterlimit="10"/>
<path d="M219.566 726.255C219.938 727.001 220.87 727.187 221.616 726.814C222.361 726.442 222.548 725.51 222.175 724.764C221.802 724.019 220.87 723.833 220.125 724.205C219.379 724.578 219.193 725.51 219.566 726.255Z" stroke="white" stroke-width="2" stroke-miterlimit="10"/>
<path d="M228.325 719.733C228.698 720.478 229.629 720.664 230.375 720.292C231.12 719.919 231.307 718.987 230.934 718.242C230.561 717.496 229.629 717.31 228.884 717.683C228.138 718.242 227.952 719.174 228.325 719.733Z" stroke="white" stroke-width="2" stroke-miterlimit="10"/>
<path d="M216.77 724.019C217.143 724.765 218.075 724.951 218.82 724.578C219.566 724.205 219.752 723.274 219.379 722.528C219.007 721.783 218.075 721.596 217.329 721.969C216.584 722.342 216.398 723.274 216.77 724.019Z" stroke="white" stroke-width="2" stroke-miterlimit="10"/>
<path d="M213.789 732.219C214.161 732.964 215.093 733.151 215.839 732.778C216.584 732.405 216.771 731.474 216.398 730.728C216.025 729.983 215.093 729.796 214.348 730.169C213.602 730.542 213.23 731.474 213.789 732.219Z" stroke="white" stroke-width="2" stroke-miterlimit="10"/>
<path d="M242.302 724.764C242.675 725.51 243.607 725.696 244.352 725.323C245.098 724.951 245.284 724.019 244.911 723.274C244.538 722.528 243.607 722.342 242.861 722.714C242.116 723.087 241.929 724.019 242.302 724.764Z" stroke="white" stroke-width="2" stroke-miterlimit="10"/>
<path d="M218.634 744.892C219.007 745.637 219.939 745.823 220.684 745.451C221.43 745.078 221.616 744.146 221.243 743.401C220.87 742.655 219.939 742.469 219.193 742.842C218.448 743.401 218.261 744.146 218.634 744.892Z" stroke="white" stroke-width="2" stroke-miterlimit="10"/>
<path d="M195.711 748.619C196.084 749.364 197.016 749.551 197.761 749.178C198.507 748.805 198.693 747.873 198.32 747.128C197.948 746.383 197.016 746.196 196.27 746.569C195.525 747.128 195.152 747.873 195.711 748.619Z" stroke="white" stroke-width="2" stroke-miterlimit="10"/>
<path d="M222.361 748.619L224.598 748.246C224.598 748.246 231.679 755.701 236.898 748.246" stroke="white" stroke-width="2" stroke-miterlimit="10"/>
<path d="M228.138 718.242C228.138 718.242 225.902 714.515 221.243 716.565C216.584 718.428 218.075 722.155 218.075 722.155C218.075 722.155 214.161 713.955 203.166 721.969C192.357 730.169 198.88 737.996 198.88 737.996C198.88 737.996 192.916 738.742 192.357 742.655C191.984 746.569 194.22 748.246 194.22 748.246C194.22 748.246 190.493 751.228 189.934 756.819C188.816 768.187 206.148 782.164 217.516 767.442C228.884 752.533 222.361 748.805 222.361 748.805" stroke="white" stroke-width="2" stroke-miterlimit="10"/>
<path d="M243.793 750.11C243.793 750.11 252.738 750.11 254.043 740.978C254.043 740.978 263.734 735.201 259.82 726.814C255.907 718.428 247.334 718.242 243.793 721.596C243.793 721.596 242.302 711.346 235.22 711.905C228.139 712.464 228.325 718.242 228.325 718.242" stroke="white" stroke-width="2" stroke-miterlimit="10"/>
</g>
<mask id="mask15_35_8368" style="mask-type:luminance" maskUnits="userSpaceOnUse" x="-251" y="0" width="932" height="932">
<path d="M681 0L-251 0V932H681V0Z" fill="white"/>
</mask>
<g mask="url(#mask15_35_8368)">
<path d="M48.1123 800.614C47.3668 796.701 46.9941 792.042 48.6714 788.873C48.6714 788.873 48.8577 792.042 50.1623 793.719C52.3986 796.328 56.3122 798.378 56.4986 800.614C56.4986 800.614 58.9213 793.346 66.1894 790.923C69.9167 789.619 72.8985 788.687 74.7621 785.519C74.7621 785.519 76.4394 804.901 66.9349 808.628C66.9349 808.628 69.544 802.851 77.744 811.982C84.0803 818.878 87.0621 811.051 87.0621 811.051C87.0621 811.051 88.1802 817.573 79.2348 819.996" stroke="white" stroke-width="2" stroke-miterlimit="10" stroke-linecap="round"/>
<path d="M37.8624 861.368C15.3125 858.014 17.1762 851.491 18.108 841.987C18.2944 840.31 18.4807 838.446 18.2943 836.396C18.2943 836.396 22.0216 802.478 38.4215 801.546C51.2806 800.801 68.985 810.491 76.4395 819.81C78.4895 822.232 79.7941 824.841 79.9804 826.891C81.4713 844.409 64.6987 865.096 37.8624 861.368Z" stroke="white" stroke-width="2" stroke-miterlimit="10" stroke-linecap="round"/>
<path d="M18.1079 841.987C18.2943 840.31 18.4806 838.446 18.2943 836.396C18.2943 836.396 22.0215 802.478 38.4214 801.546C51.2805 800.801 68.9849 810.491 76.4394 819.81" stroke="white" stroke-width="2" stroke-miterlimit="10" stroke-linecap="round"/>
<path d="M37.4896 810.305C37.1169 811.051 36.3714 811.61 35.8123 811.423C35.2533 811.237 35.2532 810.305 35.626 809.56C35.9987 808.814 36.7441 808.255 37.3032 808.442C37.8623 808.628 37.8623 809.56 37.4896 810.305Z" stroke="white" stroke-width="2" stroke-miterlimit="10" stroke-linecap="round"/>
<path d="M39.5397 817.76C39.1669 818.505 38.4215 819.064 37.8624 818.878C37.3033 818.691 37.3033 817.76 37.676 817.014C38.0488 816.269 38.7942 815.71 39.3533 815.896C39.9124 816.082 39.9124 817.014 39.5397 817.76Z" stroke="white" stroke-width="2" stroke-miterlimit="10" stroke-linecap="round"/>
<path d="M50.535 817.201C50.1623 817.946 49.4168 818.505 48.8578 818.319C48.2987 818.132 48.2987 817.201 48.6714 816.455C49.0441 815.71 49.7895 815.151 50.3486 815.337C50.9077 815.523 50.9077 816.455 50.535 817.201Z" stroke="white" stroke-width="2" stroke-miterlimit="10" stroke-linecap="round"/>
<path d="M47.7396 809.746C47.3669 810.491 46.6215 810.864 46.0624 810.678C45.5033 810.491 45.5033 809.559 46.0624 808.814C46.4351 808.069 47.1805 807.696 47.7396 807.882C48.1124 808.255 48.1124 809 47.7396 809.746Z" stroke="white" stroke-width="2" stroke-miterlimit="10" stroke-linecap="round"/>
<path d="M30.9669 823.351C30.5942 824.096 29.8488 824.469 29.2897 824.282C28.7306 824.096 28.7306 823.164 29.2897 822.419C29.6624 821.673 30.4078 821.301 30.9669 821.487C31.3397 821.673 31.3397 822.605 30.9669 823.351Z" stroke="white" stroke-width="2" stroke-miterlimit="10" stroke-linecap="round"/>
<path d="M31.7125 855.032C30.9671 855.592 30.0352 855.592 29.8489 855.032C29.4762 854.66 29.8489 853.728 30.7807 853.355C31.5261 852.796 32.458 852.796 32.6443 853.355C32.8307 853.728 32.458 854.473 31.7125 855.032Z" stroke="white" stroke-width="2" stroke-miterlimit="10" stroke-linecap="round"/>
<path d="M55.0076 846.087C54.4485 846.832 53.703 847.205 53.3303 846.832C52.9576 846.46 52.9576 845.714 53.5167 844.969C54.0758 844.223 54.8212 843.85 55.1939 844.223C55.5667 844.596 55.3803 845.341 55.0076 846.087Z" stroke="white" stroke-width="2" stroke-miterlimit="10" stroke-linecap="round"/>
<path d="M42.7078 823.537C42.1487 824.283 41.4032 824.655 41.0305 824.283C40.6578 823.91 40.6578 823.165 41.2169 822.419C41.776 821.674 42.5214 821.301 42.8941 821.674C43.2669 822.046 43.2669 822.792 42.7078 823.537Z" stroke="white" stroke-width="2" stroke-miterlimit="10" stroke-linecap="round"/>
<path d="M68.7986 843.664C68.2395 844.41 67.4941 844.782 67.1213 844.41C66.7486 844.037 66.7486 843.291 67.3077 842.546C67.8668 841.801 68.6122 841.428 68.985 841.801C69.3577 841.987 69.3577 842.919 68.7986 843.664Z" stroke="white" stroke-width="2" stroke-miterlimit="10" stroke-linecap="round"/>
<path d="M67.1213 836.955C66.5623 837.701 65.8168 838.073 65.4441 837.701C65.0714 837.328 65.0714 836.582 65.6305 835.837C66.1896 835.091 66.935 834.719 67.3077 835.092C67.6804 835.464 67.6804 836.21 67.1213 836.955Z" stroke="white" stroke-width="2" stroke-miterlimit="10" stroke-linecap="round"/>
<path d="M60.9712 847.019C60.4121 847.764 59.6667 848.137 59.2939 847.764C58.9212 847.391 58.9212 846.646 59.4803 845.9C60.0394 845.155 60.7848 844.782 61.1576 845.155C61.7167 845.341 61.5303 846.273 60.9712 847.019Z" stroke="white" stroke-width="2" stroke-miterlimit="10" stroke-linecap="round"/>
<path d="M54.8215 853.728C54.2624 854.287 53.3306 854.473 52.9578 854.1C52.5851 853.728 52.7715 852.796 53.5169 852.237C54.076 851.678 55.0078 851.491 55.3806 851.864C55.7533 852.237 55.5669 853.169 54.8215 853.728Z" stroke="white" stroke-width="2" stroke-miterlimit="10" stroke-linecap="round"/>
<path d="M37.6762 848.696C37.1171 849.255 36.1853 849.441 35.8126 849.069C35.4399 848.696 35.6262 847.764 36.3717 847.205C36.9307 846.646 37.8626 846.46 38.2353 846.832C38.608 847.205 38.4217 848.137 37.6762 848.696Z" stroke="white" stroke-width="2" stroke-miterlimit="10" stroke-linecap="round"/>
<path d="M39.5394 857.269C38.794 857.828 37.8622 857.828 37.6758 857.269C37.3031 856.896 37.6758 855.964 38.6076 855.591C39.3531 855.032 40.2849 855.032 40.4712 855.591C40.6576 856.151 40.2849 856.896 39.5394 857.269Z" stroke="white" stroke-width="2" stroke-miterlimit="10" stroke-linecap="round"/>
<path d="M74.9484 829.128C74.5757 830.06 74.0166 830.432 73.4575 830.432C72.8984 830.246 72.7121 829.501 73.0848 828.569C73.4575 827.637 74.0166 827.264 74.5757 827.264C75.1348 827.451 75.3211 828.196 74.9484 829.128Z" stroke="white" stroke-width="2" stroke-miterlimit="10" stroke-linecap="round"/>
<path d="M45.8758 851.864C45.1304 852.423 44.1986 852.423 44.0122 852.051C43.6395 851.678 44.0122 850.746 44.7576 850.373C45.5031 849.814 46.4349 849.814 46.6213 850.187C46.994 850.56 46.6213 851.305 45.8758 851.864Z" stroke="white" stroke-width="2" stroke-miterlimit="10" stroke-linecap="round"/>
</g>
<mask id="mask16_35_8368" style="mask-type:luminance" maskUnits="userSpaceOnUse" x="-251" y="0" width="932" height="932">
<path d="M681 0L-251 0V932H681V0Z" fill="white"/>
</mask>
<g mask="url(#mask16_35_8368)">
<path d="M376.856 802.478C366.793 808.069 362.879 810.678 363.997 813.101C363.997 813.101 392.697 832.296 404.997 833.6C417.297 834.905 515.137 785.891 511.969 781.791C510.851 780.301 505.26 777.133 498.365 773.964" stroke="white" stroke-width="2" stroke-miterlimit="10" stroke-linecap="round"/>
<path d="M377.043 809.56C377.043 809.56 374.62 791.296 382.82 786.451C391.02 781.605 403.506 797.446 403.506 799.31C403.506 801.173 404.624 805.832 395.306 809.56C385.988 813.287 377.415 812.728 377.043 809.56Z" stroke="white" stroke-width="2" stroke-miterlimit="10" stroke-linecap="round"/>
<path d="M399.965 819.623C399.965 819.623 397.542 801.36 405.742 796.514C413.942 791.669 426.429 807.51 426.429 809.373C426.429 811.237 427.547 815.896 418.229 819.623C408.91 823.351 400.151 822.792 399.965 819.623Z" stroke="white" stroke-width="2" stroke-miterlimit="10" stroke-linecap="round"/>
<path d="M413.383 792.973C413.383 792.973 410.961 774.71 419.161 769.864C427.36 765.019 439.847 780.86 439.847 782.723C439.847 784.587 440.965 789.246 431.647 792.973C422.142 796.7 413.57 796.141 413.383 792.973Z" stroke="white" stroke-width="2" stroke-miterlimit="10" stroke-linecap="round"/>
<path d="M395.679 789.06L413.01 779.742" stroke="white" stroke-width="2" stroke-miterlimit="10" stroke-linecap="round"/>
<path d="M511.783 781.605C511.783 781.605 513.087 803.41 495.383 812.169C479.728 821.673 424.192 851.678 411.333 850.373C398.288 849.069 363.438 831.737 363.997 813.101" stroke="white" stroke-width="2" stroke-miterlimit="10" stroke-linecap="round"/>
</g>
<mask id="mask17_35_8368" style="mask-type:luminance" maskUnits="userSpaceOnUse" x="-251" y="0" width="932" height="932">
<path d="M681 0L-251 0V932H681V0Z" fill="white"/>
</mask>
<g mask="url(#mask17_35_8368)">
<path d="M0.589654 606.611C0.589654 606.611 2.08056 612.388 12.3305 612.388C19.5987 612.388 23.885 607.17 23.885 607.17C23.885 607.17 29.2895 612.761 36.185 607.729C43.0804 602.697 49.6031 556.293 45.6894 548.465C41.5895 540.638 30.2213 545.297 30.2213 545.297C30.2213 545.297 18.8532 525.543 -0.528505 540.638C-0.528505 540.638 -9.84664 534.675 -18.233 538.775C-26.6193 542.875 -17.4875 603.07 -10.7785 607.915C-3.88304 612.947 0.589654 606.611 0.589654 606.611Z" stroke="white" stroke-width="2" stroke-miterlimit="10" stroke-linecap="round"/>
<path d="M-0.528336 540.452C-0.528336 540.452 -7.7965 562.629 0.589824 606.61" stroke="white" stroke-width="2" stroke-miterlimit="10" stroke-linecap="round"/>
<path d="M30.2213 545.111C30.2213 545.111 30.7803 571.015 24.0713 606.983" stroke="white" stroke-width="2" stroke-miterlimit="10" stroke-linecap="round"/>
<path d="M10.0942 517.343C10.0942 517.343 14.0078 511.566 18.6669 512.684C23.326 513.802 24.8169 539.147 24.8169 539.147" stroke="white" stroke-width="2" stroke-miterlimit="10" stroke-linecap="round"/>
<path d="M10.0942 534.861C10.0942 534.861 17.3624 530.574 16.6169 523.493C15.8715 516.411 10.0942 517.156 10.0942 517.156" stroke="white" stroke-width="2" stroke-miterlimit="10" stroke-linecap="round"/>
<path d="M8.97607 608.288C8.97607 608.288 17.5488 610.524 20.5306 603.629C23.5124 596.733 23.8851 587.788 23.8851 587.788" stroke="white" stroke-width="2" stroke-miterlimit="10" stroke-linecap="round"/>
<path d="M30.2214 606.611C30.2214 606.611 35.4396 606.611 37.3032 599.529C39.1668 592.447 39.7259 587.974 39.7259 587.974" stroke="white" stroke-width="2" stroke-miterlimit="10" stroke-linecap="round"/>
</g>
<mask id="mask18_35_8368" style="mask-type:luminance" maskUnits="userSpaceOnUse" x="-251" y="0" width="932" height="932">
<path d="M681 0L-251 0V932H681V0Z" fill="white"/>
</mask>
<g mask="url(#mask18_35_8368)">
<path d="M405.556 563.747L445.624 549.956" stroke="white" stroke-width="2" stroke-miterlimit="10" stroke-linecap="round"/>
</g>
<mask id="mask19_35_8368" style="mask-type:luminance" maskUnits="userSpaceOnUse" x="-251" y="0" width="932" height="932">
<path d="M681 0L-251 0V932H681V0Z" fill="white"/>
</mask>
<g mask="url(#mask19_35_8368)">
<path d="M399.965 237.24C408.91 255.876 422.142 280.476 459.042 303.398C484.387 319.053 489.792 314.58 486.996 310.294C484.201 306.008 473.392 293.335 467.056 284.576C438.542 245.999 438.169 224.381 430.715 216.367C422.701 207.608 411.333 215.808 404.811 220.84C403.133 222.144 402.201 222.89 402.201 222.89C398.847 226.431 397.17 231.09 399.965 237.24Z" stroke="white" stroke-width="2" stroke-miterlimit="10" stroke-linecap="round"/>
<path d="M411.52 215.994C406.115 206.117 401.27 192.14 404.624 178.722C410.961 153.376 409.656 138.281 397.17 131.945" stroke="white" stroke-width="2" stroke-miterlimit="10" stroke-linecap="round"/>
<path d="M395.865 144.804C395.865 144.804 396.797 150.022 398.66 155.985C400.338 162.135 402.947 169.031 406.115 172.572" stroke="white" stroke-width="2" stroke-miterlimit="10" stroke-linecap="round"/>
<path d="M390.088 149.09C389.343 144.99 399.22 151.699 399.965 160.645" stroke="white" stroke-width="2" stroke-miterlimit="10"/>
<path d="M424.192 152.631C424.192 152.631 425.124 166.981 416.179 172.385C407.233 177.79 405.37 189.717 405.929 194.935C406.861 205.558 406.861 205.558 406.861 205.558" stroke="white" stroke-width="2" stroke-miterlimit="10" stroke-linecap="round"/>
<path d="M415.06 154.495C415.06 154.495 414.315 165.304 419.72 169.217" stroke="white" stroke-width="2" stroke-miterlimit="10" stroke-linecap="round"/>
<path d="M409.283 217.485C409.283 217.485 403.879 202.203 397.729 194.19C391.579 186.176 380.583 168.658 381.142 151.326C381.515 133.995 373.501 129.522 373.501 129.522" stroke="white" stroke-width="2" stroke-miterlimit="10" stroke-linecap="round"/>
<path d="M371.079 139.772C371.079 139.772 370.147 166.049 387.293 177.231" stroke="white" stroke-width="2" stroke-miterlimit="10" stroke-linecap="round"/>
<path d="M366.606 155.426C366.606 155.426 368.843 162.322 375.552 162.881" stroke="white" stroke-width="2" stroke-miterlimit="10" stroke-linecap="round"/>
<path d="M395.679 191.395C396.238 189.531 398.661 186.735 396.983 177.417C395.493 167.913 385.988 158.036 388.038 153.749" stroke="white" stroke-width="2" stroke-miterlimit="10" stroke-linecap="round"/>
<path d="M386.174 163.813C386.174 163.813 389.902 171.267 395.306 171.64" stroke="white" stroke-width="2" stroke-miterlimit="10" stroke-linecap="round"/>
<path d="M400.897 199.222C400.897 199.222 387.479 194.003 379.465 181.331C371.265 168.658 366.979 165.49 366.979 165.49" stroke="white" stroke-width="2" stroke-miterlimit="10" stroke-linecap="round"/>
<path d="M428.106 222.144C428.106 222.144 425.124 221.958 420.465 225.126" stroke="white" stroke-width="2" stroke-miterlimit="10" stroke-linecap="round"/>
<path d="M416.738 233.512C416.738 233.512 410.401 235.749 407.047 240.035" stroke="white" stroke-width="2" stroke-miterlimit="10" stroke-linecap="round"/>
<path d="M421.024 218.976C421.024 218.976 414.688 221.212 411.333 225.499" stroke="white" stroke-width="2" stroke-miterlimit="10" stroke-linecap="round"/>
<path d="M422.515 233.14C422.515 233.14 416.365 235.749 413.57 239.103" stroke="white" stroke-width="2" stroke-miterlimit="10" stroke-linecap="round"/>
<path d="M427.547 253.64C427.547 253.64 421.21 255.876 417.856 261.094" stroke="white" stroke-width="2" stroke-miterlimit="10" stroke-linecap="round"/>
</g>
<mask id="mask20_35_8368" style="mask-type:luminance" maskUnits="userSpaceOnUse" x="-251" y="0" width="932" height="932">
<path d="M681 0L-251 0V932H681V0Z" fill="white"/>
</mask>
<g mask="url(#mask20_35_8368)">
<path d="M329.147 253.453C333.806 254.199 337.534 253.081 341.634 252.521C354.12 251.59 358.593 258.671 360.829 261.094C363.065 263.517 361.202 264.449 360.456 266.871C359.897 268.549 359.897 270.785 363.065 271.903C366.42 273.208 367.352 270.971 367.352 270.971C364.183 272.649 360.27 268.362 361.761 266.312C363.624 263.703 365.302 260.908 360.643 256.435C359.338 255.131 358.033 253.64 356.915 252.335C355.611 249.726 354.306 245.812 355.052 241.153C355.238 240.035 355.424 239.103 355.983 237.799C359.711 227.922 355.611 206.49 328.774 216.553C328.774 216.553 328.588 216.553 328.588 216.74C327.843 216.926 327.097 217.299 326.352 217.672C324.115 218.603 322.252 219.722 320.761 220.84C305.293 232.394 320.202 252.149 329.147 253.453Z" stroke="white" stroke-width="2" stroke-miterlimit="10" stroke-linecap="round"/>
<path d="M327.284 213.758C327.656 214.876 328.215 215.622 328.588 216.367H328.402C327.656 216.554 326.911 217.113 326.165 217.485C323.184 206.676 305.666 199.595 301.006 181.331C300.447 178.536 298.397 176.486 295.788 175.554L294.111 174.808C294.111 174.808 286.097 172.945 281.998 177.231C277.711 181.517 271.934 178.163 273.238 174.436C274.17 172.013 275.848 171.454 280.879 169.776C286.843 167.726 280.693 164.931 280.693 164.931C259.448 157.29 261.125 149.277 264.852 148.345C268.02 147.599 268.207 150.022 271.188 151.699C276.966 155.054 278.457 147.04 271.934 142.94C243.793 122.999 256.839 118.899 265.598 121.322C273.238 123.372 271.748 138.84 277.338 137.349C281.066 136.418 276.779 125.422 284.607 129.149C295.229 134.181 287.216 157.849 291.502 160.272C295.788 162.695 294.297 142.381 301.566 145.736C309.206 149.09 305.106 158.781 301.752 171.081C297.279 187.667 319.456 200.899 327.284 213.758ZM327.284 213.758C327.284 213.199 327.284 214.317 327.284 213.758Z" stroke="white" stroke-width="2" stroke-miterlimit="10" stroke-linecap="round"/>
<path d="M310.884 183.754C315.543 179.467 321.879 189.531 323.184 184.872C325.793 176.672 309.02 169.59 312.188 163.999C315.357 158.595 319.456 169.031 323.184 164.372C327.097 159.713 318.338 146.854 331.943 147.786C340.702 148.345 342.006 159.527 336.043 171.454C330.079 183.381 329.893 192.326 333.62 191.022C336.229 190.09 333.806 183.754 338.466 183.94C343.125 183.94 335.297 191.395 330.638 199.222C325.234 208.54 331.011 215.435 331.011 215.435L327.47 216.926C327.47 216.926 325.793 211.522 326.725 205.744C327.843 195.308 325.42 192.885 323.37 192.699C312.561 191.208 306.225 187.854 310.884 183.754Z" stroke="white" stroke-width="2" stroke-miterlimit="10" stroke-linecap="round"/>
<path d="M324.488 245.626C324.488 245.626 326.538 241.712 329.893 240.035" stroke="white" stroke-width="2" stroke-miterlimit="10" stroke-linecap="round"/>
<path d="M338.652 244.694C338.652 244.694 341.82 241.713 345.733 241.34" stroke="white" stroke-width="2" stroke-miterlimit="10" stroke-linecap="round"/>
<path d="M344.988 220.654C344.988 220.654 339.397 221.026 336.974 223.263" stroke="white" stroke-width="2" stroke-miterlimit="10" stroke-linecap="round"/>
<path d="M332.688 229.226C332.688 229.226 326.724 231.835 324.488 235.562" stroke="white" stroke-width="2" stroke-miterlimit="10" stroke-linecap="round"/>
<path d="M325.793 224.194C325.793 224.194 319.829 226.803 317.593 230.531" stroke="white" stroke-width="2" stroke-miterlimit="10" stroke-linecap="round"/>
<path d="M352.629 229.226C352.629 229.226 349.274 228.853 344.988 230.531" stroke="white" stroke-width="2" stroke-miterlimit="10" stroke-linecap="round"/>
</g>
<mask id="mask21_35_8368" style="mask-type:luminance" maskUnits="userSpaceOnUse" x="-251" y="0" width="932" height="932">
<path d="M681 0L-251 0V932H681V0Z" fill="white"/>
</mask>
<g mask="url(#mask21_35_8368)">
<path d="M203.539 129.708C203.539 130.454 204.098 131.199 205.029 131.199C205.775 131.199 206.52 130.64 206.52 129.708C206.52 128.963 205.961 128.218 205.029 128.218C204.098 128.404 203.539 128.963 203.539 129.708Z" stroke="white" stroke-width="2" stroke-miterlimit="10" stroke-linecap="round"/>
<path d="M219.38 154.867C219.38 154.867 178.007 46.9635 170.553 46.7771C163.098 46.7771 99.362 85.1678 100.853 93.3678C102.157 101.381 218.634 164.186 219.38 154.867Z" stroke="white" stroke-width="2" stroke-miterlimit="10" stroke-linecap="round"/>
<path d="M170.552 46.777C170.552 46.777 177.075 38.3907 172.975 30.7499C169.434 24.0408 161.234 25.159 158.066 26.2771C142.598 31.868 82.4028 73.7996 82.4028 79.7632C82.4028 85.9132 104.207 97.095 104.207 97.095" stroke="white" stroke-width="2" stroke-miterlimit="10" stroke-linecap="round"/>
<path d="M82.4028 79.7633C82.4028 79.7633 88.1801 72.4952 93.5846 75.2906C98.9891 78.086 100.853 90.1996 100.853 90.1996C100.853 90.1996 216.398 158.781 218.261 151.886" stroke="white" stroke-width="2" stroke-miterlimit="10" stroke-linecap="round"/>
<path d="M167.384 74.7314C171.81 74.7314 175.398 71.4773 175.398 67.4632C175.398 63.4491 171.81 60.1951 167.384 60.1951C162.958 60.1951 159.371 63.4491 159.371 67.4632C159.371 71.4773 162.958 74.7314 167.384 74.7314Z" stroke="white" stroke-width="2" stroke-miterlimit="10" stroke-linecap="round"/>
<path d="M162.353 67.0905C162.353 69.5133 164.589 71.3769 167.384 71.3769C170.18 71.3769 172.416 69.5133 172.416 67.0905C172.416 64.6678 170.18 62.8042 167.384 62.8042C164.589 62.8042 162.353 64.6678 162.353 67.0905Z" stroke="white" stroke-width="2" stroke-miterlimit="10" stroke-linecap="round"/>
<path d="M160.489 109.209C159.371 112.936 161.793 117.222 166.08 118.527C170.366 119.831 174.652 117.781 175.771 114.054C176.889 110.327 174.466 106.04 170.18 104.736C166.08 103.431 161.607 105.481 160.489 109.209Z" stroke="white" stroke-width="2" stroke-miterlimit="10" stroke-linecap="round"/>
<path d="M163.471 109.768C162.725 112.004 164.403 114.613 167.012 115.358C169.621 116.104 172.416 114.986 172.975 112.749C173.534 110.513 172.044 107.904 169.434 107.158C166.825 106.227 164.216 107.531 163.471 109.768Z" stroke="white" stroke-width="2" stroke-miterlimit="10" stroke-linecap="round"/>
<path d="M140.921 102.499C149.978 102.499 157.321 95.8244 157.321 87.5904C157.321 79.3564 149.978 72.6814 140.921 72.6814C131.863 72.6814 124.521 79.3564 124.521 87.5904C124.521 95.8244 131.863 102.499 140.921 102.499Z" stroke="white" stroke-width="2" stroke-miterlimit="10" stroke-linecap="round"/>
<path d="M149.493 82.3724C150.42 82.3724 151.171 81.6214 151.171 80.6951C151.171 79.7687 150.42 79.0178 149.493 79.0178C148.567 79.0178 147.816 79.7687 147.816 80.6951C147.816 81.6214 148.567 82.3724 149.493 82.3724Z" stroke="white" stroke-width="2" stroke-miterlimit="10" stroke-linecap="round"/>
<path d="M136.634 78.2724C136.634 79.0179 137.38 79.5769 138.125 79.5769C138.871 79.5769 139.43 78.8315 139.43 78.086C139.43 77.3406 138.684 76.7815 137.939 76.7815C137.007 76.9679 136.634 77.527 136.634 78.2724Z" stroke="white" stroke-width="2" stroke-miterlimit="10" stroke-linecap="round"/>
<path d="M145.021 93.1813C145.021 93.9268 145.58 94.6722 146.512 94.6722C147.257 94.6722 148.003 94.1132 148.003 93.1813C148.003 92.4359 147.443 91.6904 146.512 91.6904C145.766 91.6904 145.021 92.2495 145.021 93.1813Z" stroke="white" stroke-width="2" stroke-miterlimit="10" stroke-linecap="round"/>
<path d="M140.921 85.354C140.921 85.9131 141.48 86.4722 142.039 86.4722C142.598 86.4722 143.157 85.9131 143.157 85.354C143.157 84.7949 142.598 84.2358 142.039 84.2358C141.293 84.2358 140.921 84.7949 140.921 85.354Z" stroke="white" stroke-width="2" stroke-miterlimit="10" stroke-linecap="round"/>
<path d="M133.839 94.4859C133.839 95.045 134.398 95.604 134.957 95.604C135.516 95.604 136.075 95.045 136.075 94.4859C136.075 93.9268 135.516 93.3677 134.957 93.3677C134.212 93.3677 133.839 93.9268 133.839 94.4859Z" stroke="white" stroke-width="2" stroke-miterlimit="10" stroke-linecap="round"/>
<path d="M129.739 85.354C129.739 85.9131 130.298 86.4722 130.857 86.4722C131.416 86.4722 131.975 85.9131 131.975 85.354C131.975 84.7949 131.416 84.2358 130.857 84.2358C130.112 84.2358 129.739 84.7949 129.739 85.354Z" stroke="white" stroke-width="2" stroke-miterlimit="10" stroke-linecap="round"/>
<path d="M201.302 109.022C200.93 109.022 200.557 109.022 200.184 109.022C191.239 109.022 183.784 115.731 183.784 123.931C183.784 132.131 191.052 138.84 200.184 138.84C204.657 138.84 208.757 137.163 211.552 134.554" stroke="white" stroke-width="2" stroke-miterlimit="10" stroke-linecap="round"/>
<path d="M196.27 114.613C196.27 115.359 197.016 115.918 197.761 115.918C198.507 115.918 199.066 115.172 199.066 114.427C199.066 113.681 198.32 113.122 197.575 113.122C196.829 113.309 196.27 113.868 196.27 114.613Z" stroke="white" stroke-width="2" stroke-miterlimit="10" stroke-linecap="round"/>
<path d="M197.575 122.813C197.575 123.372 198.134 123.931 198.693 123.931C199.252 123.931 199.811 123.372 199.811 122.813C199.811 122.254 199.252 121.695 198.693 121.695C198.134 121.695 197.575 122.254 197.575 122.813Z" stroke="white" stroke-width="2" stroke-miterlimit="10" stroke-linecap="round"/>
<path d="M193.103 130.827C193.103 131.386 193.662 131.945 194.221 131.945C194.78 131.945 195.339 131.386 195.339 130.827C195.339 130.268 194.78 129.708 194.221 129.708C193.475 129.708 193.103 130.268 193.103 130.827Z" stroke="white" stroke-width="2" stroke-miterlimit="10" stroke-linecap="round"/>
<path d="M188.816 121.136C188.816 121.695 189.375 122.254 189.934 122.254C190.493 122.254 191.052 121.695 191.052 121.136C191.052 120.577 190.493 120.018 189.934 120.018C189.375 120.018 188.816 120.577 188.816 121.136Z" stroke="white" stroke-width="2" stroke-miterlimit="10" stroke-linecap="round"/>
</g>
<mask id="mask22_35_8368" style="mask-type:luminance" maskUnits="userSpaceOnUse" x="-251" y="0" width="932" height="932">
<path d="M681 0L-251 0V932H681V0Z" fill="white"/>
</mask>
<g mask="url(#mask22_35_8368)">
<path d="M40.6579 354.835C40.6579 354.835 48.2988 354.089 49.6033 347.007C52.026 333.962 42.8942 318.494 47.7397 315.326C51.2806 313.089 52.7715 316.071 52.2124 319.985C51.8396 323.898 51.6533 327.439 60.226 327.067C67.1214 326.88 73.8304 321.289 72.3395 309.921C70.8486 298.367 60.9714 285.508 36.7443 284.203C12.5171 282.899 4.50351 304.144 5.43533 311.412C6.36714 318.68 10.2807 324.83 17.7353 323.712C25.1898 322.594 21.0898 316.258 23.3261 314.208C25.5625 312.158 31.3397 312.717 29.1034 319.239C27.6125 323.712 17.1762 341.603 24.6307 350.362C30.0352 356.885 40.6579 354.835 40.6579 354.835Z" stroke="white" stroke-width="2" stroke-miterlimit="10" stroke-linecap="round"/>
<path d="M52.3986 320.171C52.3986 320.171 50.1623 316.63 48.2987 318.494C46.435 320.357 46.6214 322.221 46.6214 322.221" stroke="white" stroke-width="2" stroke-miterlimit="10" stroke-linecap="round"/>
<path d="M29.1031 319.426C29.1031 319.426 29.1031 315.885 25.7486 316.258C22.5804 316.63 22.394 320.544 22.394 320.544" stroke="white" stroke-width="2" stroke-miterlimit="10" stroke-linecap="round"/>
<path d="M32.2716 286.626C32.2716 286.626 17.549 287.931 11.7717 300.976" stroke="white" stroke-width="2" stroke-miterlimit="10" stroke-linecap="round"/>
<path d="M46.6214 345.703C46.6214 345.703 46.4351 350.176 38.9805 351.294C31.526 352.412 25.7488 347.007 25.7488 347.007" stroke="white" stroke-width="2" stroke-miterlimit="10" stroke-linecap="round"/>
</g>
<mask id="mask23_35_8368" style="mask-type:luminance" maskUnits="userSpaceOnUse" x="-251" y="0" width="932" height="932">
<path d="M681 0L-251 0V932H681V0Z" fill="white"/>
</mask>
<g mask="url(#mask23_35_8368)">
<path d="M260.193 94.1129C260.193 94.1129 281.252 99.7038 300.261 88.522C324.116 74.5448 339.025 51.2495 334.552 40.4404C332.688 36.1541 328.961 35.2223 325.42 34.2905C321.693 33.3587 319.456 33.545 316.661 34.6632C303.429 40.2541 300.634 60.3812 289.266 72.8676C275.289 88.522 259.82 89.4538 258.516 92.8084C258.143 93.5538 258.516 93.3675 260.193 94.1129Z" stroke="white" stroke-width="2" stroke-miterlimit="10" stroke-linecap="round"/>
<path d="M332.502 37.4588C332.502 37.4588 330.079 32.7997 333.62 28.1407C336.974 23.4816 339.584 9.87713 336.415 8.38623L334.738 9.31804C334.738 9.31804 336.229 15.6544 332.688 22.9225C329.334 30.1907 329.52 32.9861 322.997 33.9179" stroke="white" stroke-width="2" stroke-miterlimit="10" stroke-linecap="round"/>
<path d="M323.929 37.4587C323.929 37.4587 315.729 37.4588 311.257 44.7269" stroke="white" stroke-width="2" stroke-miterlimit="10" stroke-linecap="round"/>
<path d="M323.929 60.5676C323.929 60.5676 308.275 84.4221 286.843 90.3857" stroke="white" stroke-width="2" stroke-miterlimit="10" stroke-linecap="round"/>
<path d="M281.252 91.5039C281.252 91.5039 272.866 93.3675 264.852 92.4357" stroke="white" stroke-width="2" stroke-miterlimit="10" stroke-linecap="round"/>
</g>
<mask id="mask24_35_8368" style="mask-type:luminance" maskUnits="userSpaceOnUse" x="-251" y="0" width="932" height="932">
<path d="M681 0L-251 0V932H681V0Z" fill="white"/>
</mask>
<g mask="url(#mask24_35_8368)">
<path d="M191.984 24.2272C191.984 39.6953 211.739 47.5226 234.102 47.5226C256.466 47.5226 274.729 34.8499 274.729 19.3818C274.729 3.9137 256.466 -14.9089 234.102 -14.9089C211.739 -14.9089 191.984 8.75913 191.984 24.2272Z" stroke="white" stroke-width="2" stroke-miterlimit="10" stroke-linecap="round"/>
<path d="M247.334 45.8452C247.334 45.8452 245.657 53.4861 247.334 57.9588C249.011 62.2451 252.179 71.5633 240.252 74.9178C228.325 78.086 220.125 72.6815 221.243 62.4315C222.361 52.1816 224.411 46.777 224.411 46.777" stroke="white" stroke-width="2" stroke-miterlimit="10" stroke-linecap="round"/>
<path d="M249.011 40.068C249.011 40.068 226.275 44.7271 210.621 39.1362" stroke="white" stroke-width="2" stroke-miterlimit="10" stroke-linecap="round"/>
<path d="M204.098 33.5454C204.098 33.5454 197.762 31.1227 198.134 21.991" stroke="white" stroke-width="2" stroke-miterlimit="10" stroke-linecap="round"/>
<path d="M262.989 33.5453C262.989 33.5453 268.766 30.1908 269.698 24.9727" stroke="white" stroke-width="2" stroke-miterlimit="10" stroke-linecap="round"/>
</g>
<mask id="mask25_35_8368" style="mask-type:luminance" maskUnits="userSpaceOnUse" x="-251" y="0" width="932" height="932">
<path d="M681 0L-251 0V932H681V0Z" fill="white"/>
</mask>
<g mask="url(#mask25_35_8368)">
<path d="M-16.7421 199.781C-12.083 200.713 -11.3376 199.035 -10.9648 210.59C-10.5921 222.331 -10.033 254.385 -5.00122 260.721L-2.95122 261.84C-2.95122 261.84 47.3667 255.503 47.9258 247.862C48.4849 240.035 48.4849 188.226 51.6531 187.108C54.8212 185.99 58.9212 182.076 57.9894 177.045C57.9894 177.045 57.6167 170.895 52.0258 169.963C41.4031 168.285 -17.1148 177.604 -22.5193 185.431C-28.1102 193.444 -21.4011 198.849 -16.7421 199.781Z" stroke="white" stroke-width="2" stroke-miterlimit="10" stroke-linecap="round"/>
<path d="M-73.3965 174.622C-71.7192 174.808 -70.4147 173.69 -70.2283 184.126C-69.8556 196.24 -69.2965 232.022 -62.7738 231.09L-6.49227 259.976C-11.5241 253.64 -10.5922 222.331 -10.965 210.59C-11.3377 199.222 -12.0831 200.899 -16.7422 199.781C-21.4013 198.663 -28.1103 193.258 -22.5194 185.431C-16.9286 177.604 41.5893 168.286 52.0257 169.963L-10.4059 147.413C-10.965 147.04 -11.7104 146.854 -12.4559 146.854C-22.1467 145.363 -70.2283 154.681 -76.3783 161.017C-81.2237 166.236 -77.6828 173.877 -73.3965 174.622Z" stroke="white" stroke-width="2" stroke-miterlimit="10" stroke-linecap="round"/>
<path d="M45.5029 219.535C45.5029 219.535 44.9438 246.372 44.5711 246.931C44.1984 247.303 43.2665 248.981 41.2166 249.54" stroke="white" stroke-width="2" stroke-miterlimit="10" stroke-linecap="round"/>
<path d="M-15.8105 185.804C-15.8105 185.804 10.4666 176.485 35.2529 174.622" stroke="white" stroke-width="2" stroke-miterlimit="10" stroke-linecap="round"/>
</g>
<mask id="mask26_35_8368" style="mask-type:luminance" maskUnits="userSpaceOnUse" x="-251" y="0" width="932" height="932">
<path d="M681 0L-251 0V932H681V0Z" fill="white"/>
</mask>
<g mask="url(#mask26_35_8368)">
<path d="M65.134 138.046C77.2128 129.105 73.799 104.017 57.509 82.0102C41.219 60.0036 18.2216 49.412 6.14278 58.3531C-5.93599 67.2943 -2.52213 92.3823 13.7679 114.389C30.0578 136.395 53.0553 146.987 65.134 138.046Z" stroke="white" stroke-width="2" stroke-miterlimit="10" stroke-linecap="round"/>
<path d="M25.0032 56.4679L-39.851 34.4771C-39.851 34.4771 -77.869 16.7726 -83.6463 46.4043C-89.2372 74.7314 -71.5327 86.0995 -61.8419 90.0132C-61.4691 90.1995 -61.2828 90.3859 -60.91 90.5723L38.4213 136.604" stroke="white" stroke-width="2" stroke-miterlimit="10" stroke-linecap="round"/>
<path d="M53.7031 101.754C54.4485 103.059 55.5667 103.804 56.4985 103.245C57.4303 102.872 57.4303 101.381 56.8713 100.077C56.1258 98.7724 55.0076 98.0269 54.0758 98.586C53.144 98.9587 53.144 100.45 53.7031 101.754Z" stroke="white" stroke-width="2" stroke-miterlimit="10" stroke-linecap="round"/>
<path d="M55.7529 123.558C56.4984 124.863 57.6166 125.608 58.5484 125.049C59.4802 124.677 59.4802 123.186 58.9211 121.881C58.362 120.577 57.0575 119.831 56.1257 120.39C55.1939 120.763 55.0075 122.254 55.7529 123.558Z" stroke="white" stroke-width="2" stroke-miterlimit="10" stroke-linecap="round"/>
<path d="M35.9985 113.122C36.744 114.427 37.8621 115.172 38.7939 114.613C39.7258 114.24 39.7257 112.749 39.1667 111.445C38.4212 110.14 37.303 109.395 36.3712 109.954C35.4394 110.513 35.4394 111.818 35.9985 113.122Z" stroke="white" stroke-width="2" stroke-miterlimit="10" stroke-linecap="round"/>
<path d="M34.6941 91.1314C35.4395 92.4359 36.5577 93.1814 37.4895 92.6223C38.4213 92.2495 38.4213 90.7586 37.8622 89.4541C37.1168 88.1496 35.9986 87.4041 35.0668 87.9632C34.135 88.3359 34.135 89.8268 34.6941 91.1314Z" stroke="white" stroke-width="2" stroke-miterlimit="10" stroke-linecap="round"/>
<path d="M15.1259 76.7815C15.8714 78.0861 16.9896 78.8315 17.9214 78.2724C18.8532 77.8997 18.8532 76.4088 18.2941 75.1042C17.735 73.7997 16.4305 73.0543 15.4987 73.6134C14.5668 74.1724 14.5669 75.477 15.1259 76.7815Z" stroke="white" stroke-width="2" stroke-miterlimit="10" stroke-linecap="round"/>
<path d="M31.3396 73.2405C32.2715 74.3586 33.7624 74.7314 34.5078 74.1723C35.2533 73.6132 35.0669 72.1223 33.9487 71.0041C33.0169 69.8859 31.526 69.5132 30.7805 70.0723C30.2215 70.8177 30.4078 72.1223 31.3396 73.2405Z" stroke="white" stroke-width="2" stroke-miterlimit="10" stroke-linecap="round"/>
<path d="M19.5986 96.5359C20.344 97.8404 21.4622 98.5859 22.394 98.0268C23.3258 97.6541 23.3259 96.1632 22.7668 94.8587C22.2077 93.5541 20.9031 92.8087 19.9713 93.3677C19.0395 93.7405 19.0395 95.2314 19.5986 96.5359Z" stroke="white" stroke-width="2" stroke-miterlimit="10" stroke-linecap="round"/>
<path d="M10.2805 118.34C10.2805 118.34 -60.351 86.845 -64.0782 85.1678C-67.8055 83.6769 -73.3964 79.0178 -75.26 74.1724" stroke="white" stroke-width="2" stroke-miterlimit="10" stroke-linecap="round"/>
<path d="M6.92626 111.631C6.92626 111.631 -5.7464 94.2996 -4.2555 79.5769" stroke="white" stroke-width="2" stroke-miterlimit="10" stroke-linecap="round"/>
</g>
<mask id="mask27_35_8368" style="mask-type:luminance" maskUnits="userSpaceOnUse" x="-251" y="0" width="932" height="932">
<path d="M681 0L-251 0V932H681V0Z" fill="white"/>
</mask>
<g mask="url(#mask27_35_8368)">
<path d="M127.316 -24.0408L125.825 15.4681C125.825 15.4681 128.994 10.9954 129.366 3.91364C129.739 -3.16815 130.298 -31.6816 130.298 -31.6816" stroke="white" stroke-width="2" stroke-miterlimit="10" stroke-linecap="round"/>
<path d="M93.3983 -6.15001L92.0938 35.0361C92.0938 36.8998 90.7892 38.577 88.9256 38.9498C83.3347 40.2543 69.7302 42.3043 46.4349 38.0179C18.8532 32.9862 6.55327 22.9226 2.82601 18.0771C2.08056 17.1453 1.70785 15.8408 1.70785 14.7226L0.40332 -33.1726" stroke="white" stroke-width="2" stroke-miterlimit="10" stroke-linecap="round"/>
<path d="M124.335 16.959L93.3987 11.9272" stroke="white" stroke-width="2" stroke-miterlimit="10" stroke-linecap="round"/>
<path d="M117.439 9.13163C118.366 9.13163 119.117 8.38069 119.117 7.45437C119.117 6.52804 118.366 5.7771 117.439 5.7771C116.513 5.7771 115.762 6.52804 115.762 7.45437C115.762 8.38069 116.513 9.13163 117.439 9.13163Z" stroke="white" stroke-width="2" stroke-miterlimit="10" stroke-linecap="round"/>
<path d="M99.5483 5.40441C99.5483 7.08167 100.853 8.38621 102.53 8.38621C104.207 8.38621 105.512 7.08167 105.512 5.40441C105.512 3.72714 104.207 2.42261 102.53 2.42261C100.853 2.42261 99.5483 3.72714 99.5483 5.40441Z" stroke="white" stroke-width="2" stroke-miterlimit="10" stroke-linecap="round"/>
<path d="M86.8755 35.0362C86.8755 35.0362 69.3574 40.4408 38.2349 32.0544" stroke="white" stroke-width="2" stroke-miterlimit="10" stroke-linecap="round"/>
</g>
<mask id="mask28_35_8368" style="mask-type:luminance" maskUnits="userSpaceOnUse" x="-251" y="0" width="932" height="932">
<path d="M681 0L-251 0V932H681V0Z" fill="white"/>
</mask>
<g mask="url(#mask28_35_8368)">
<path d="M216.77 259.79C203.166 258.485 202.42 254.385 202.42 254.385C202.42 254.385 202.42 254.385 211.179 243.762C216.77 237.053 217.516 226.617 217.516 219.908C219.939 219.908 222.361 219.349 224.411 218.231C224.411 226.803 221.988 235.749 221.802 236.494C227.207 227.176 232.425 221.585 236.711 218.231C237.457 218.417 238.202 218.603 238.948 218.603C238.202 220.84 238.016 223.263 238.202 225.685C238.388 227.362 238.761 228.853 239.32 230.344C240.252 232.953 241.743 235.376 243.793 237.24C225.529 244.321 216.77 259.79 216.77 259.79Z" stroke="white" stroke-width="2" stroke-miterlimit="10"/>
<path d="M239.134 230.158C234.661 232.021 230.748 233.885 230.748 233.885C233.543 229.971 236.152 227.176 238.202 225.499C238.389 226.99 238.575 228.667 239.134 230.158Z" stroke="white" stroke-width="2" stroke-miterlimit="10"/>
<path d="M212.67 199.222C212.111 199.967 211.179 200.153 210.434 199.781C209.688 199.408 209.502 198.29 209.875 197.544C210.434 196.799 211.366 196.612 212.111 196.985C213.043 197.358 213.229 198.476 212.67 199.222Z" stroke="white" stroke-width="2" stroke-miterlimit="10"/>
<path d="M218.82 206.49C218.448 207.235 217.516 207.422 216.77 207.049C216.025 206.676 215.839 205.744 216.211 204.999C216.584 204.253 217.516 204.067 218.261 204.44C219.007 204.813 219.193 205.744 218.82 206.49Z" stroke="white" stroke-width="2" stroke-miterlimit="10"/>
<path d="M230.189 201.085C229.816 201.831 228.884 202.017 228.139 201.644C227.393 201.272 227.207 200.34 227.579 199.594C227.952 198.849 228.884 198.663 229.629 199.035C230.375 199.594 230.561 200.526 230.189 201.085Z" stroke="white" stroke-width="2" stroke-miterlimit="10"/>
<path d="M250.129 212.267C249.757 213.013 248.825 213.199 248.079 212.826C247.334 212.453 247.148 211.522 247.52 210.776C247.893 210.031 248.825 209.844 249.57 210.217C250.316 210.59 250.689 211.522 250.129 212.267Z" stroke="white" stroke-width="2" stroke-miterlimit="10"/>
<path d="M241.743 196.054C241.37 196.799 240.438 196.985 239.693 196.613C238.947 196.24 238.761 195.308 239.134 194.563C239.507 193.817 240.438 193.631 241.184 194.003C241.929 194.376 242.116 195.308 241.743 196.054Z" stroke="white" stroke-width="2" stroke-miterlimit="10"/>
<path d="M232.984 189.531C232.611 190.276 231.679 190.463 230.934 190.09C230.188 189.717 230.002 188.785 230.375 188.04C230.748 187.294 231.679 187.108 232.425 187.481C233.17 187.854 233.357 188.785 232.984 189.531Z" stroke="white" stroke-width="2" stroke-miterlimit="10"/>
<path d="M244.352 193.817C243.979 194.563 243.048 194.749 242.302 194.376C241.557 194.004 241.37 193.072 241.743 192.326C242.116 191.581 243.048 191.394 243.793 191.767C244.538 192.14 244.911 193.072 244.352 193.817Z" stroke="white" stroke-width="2" stroke-miterlimit="10"/>
<path d="M247.52 202.017C247.148 202.763 246.216 202.949 245.47 202.576C244.725 202.203 244.538 201.272 244.911 200.526C245.284 199.781 246.216 199.594 246.961 199.967C247.707 200.34 247.893 201.272 247.52 202.017Z" stroke="white" stroke-width="2" stroke-miterlimit="10"/>
<path d="M218.82 194.376C218.448 195.122 217.516 195.308 216.77 194.935C216.025 194.563 215.839 193.631 216.211 192.885C216.584 192.14 217.516 191.954 218.261 192.326C219.193 192.885 219.379 193.817 218.82 194.376Z" stroke="white" stroke-width="2" stroke-miterlimit="10"/>
<path d="M242.675 214.69C242.302 215.435 241.37 215.622 240.625 215.249C239.879 214.876 239.693 213.944 240.066 213.199C240.438 212.453 241.37 212.267 242.116 212.64C242.861 213.012 243.048 213.944 242.675 214.69Z" stroke="white" stroke-width="2" stroke-miterlimit="10"/>
<path d="M265.597 218.417C265.225 219.162 264.293 219.349 263.547 218.976C262.802 218.603 262.616 217.672 262.988 216.926C263.361 216.181 264.293 215.994 265.038 216.367C265.784 216.74 265.97 217.672 265.597 218.417Z" stroke="white" stroke-width="2" stroke-miterlimit="10"/>
<path d="M238.947 218.417L236.711 218.044C236.711 218.044 229.629 225.499 224.411 218.044" stroke="white" stroke-width="2" stroke-miterlimit="10"/>
<path d="M233.17 188.04C233.17 188.04 235.407 184.313 240.066 186.363C244.725 188.226 243.234 191.954 243.234 191.954C243.234 191.954 247.148 183.754 258.143 191.767C268.952 199.967 262.429 207.794 262.429 207.794C262.429 207.794 268.393 208.54 268.952 212.453C269.325 216.367 267.088 218.044 267.088 218.044C267.088 218.044 270.816 221.026 271.375 226.617C272.493 237.985 255.161 251.962 243.793 237.24C232.425 222.331 238.948 218.603 238.948 218.603" stroke="white" stroke-width="2" stroke-miterlimit="10"/>
<path d="M217.516 219.722C217.516 219.722 208.57 219.722 207.266 210.59C207.266 210.59 197.575 204.813 201.489 196.426C205.402 188.04 213.975 187.854 217.516 191.208C217.516 191.208 219.007 180.958 226.089 181.517C233.17 182.076 232.984 187.854 232.984 187.854" stroke="white" stroke-width="2" stroke-miterlimit="10"/>
</g>
<mask id="mask29_35_8368" style="mask-type:luminance" maskUnits="userSpaceOnUse" x="-251" y="0" width="932" height="932">
<path d="M681 0L-251 0V932H681V0Z" fill="white"/>
</mask>
<g mask="url(#mask29_35_8368)">
<path d="M400.524 103.804C400.524 103.804 399.033 109.581 388.783 109.581C381.515 109.581 377.229 104.363 377.229 104.363C377.229 104.363 371.824 109.954 364.929 104.922C358.033 99.8906 351.511 53.4863 355.424 45.659C359.524 37.8318 370.892 42.4909 370.892 42.4909C370.892 42.4909 382.26 22.7364 401.642 37.8318C401.642 37.8318 410.96 31.8682 419.347 35.9682C427.733 40.0681 418.601 100.263 411.892 105.109C404.997 110.141 400.524 103.804 400.524 103.804Z" stroke="white" stroke-width="2" stroke-miterlimit="10" stroke-linecap="round"/>
<path d="M401.642 37.8315C401.642 37.8315 408.91 60.0087 400.524 103.99" stroke="white" stroke-width="2" stroke-miterlimit="10" stroke-linecap="round"/>
<path d="M370.892 42.4907C370.892 42.4907 370.333 68.3952 377.042 104.363" stroke="white" stroke-width="2" stroke-miterlimit="10" stroke-linecap="round"/>
<path d="M391.02 14.5364C391.02 14.5364 387.106 8.75911 382.447 9.87728C377.788 10.9955 376.297 36.3408 376.297 36.3408" stroke="white" stroke-width="2" stroke-miterlimit="10" stroke-linecap="round"/>
<path d="M391.02 32.0544C391.02 32.0544 383.752 27.768 384.497 20.6863C385.242 13.6045 391.02 14.3499 391.02 14.3499" stroke="white" stroke-width="2" stroke-miterlimit="10" stroke-linecap="round"/>
<path d="M392.138 105.481C392.138 105.481 383.565 107.718 380.583 100.822C377.601 93.9269 377.229 84.9814 377.229 84.9814" stroke="white" stroke-width="2" stroke-miterlimit="10" stroke-linecap="round"/>
<path d="M370.892 103.804C370.892 103.804 365.674 103.804 363.811 96.7222C361.947 89.6404 361.388 85.1677 361.388 85.1677" stroke="white" stroke-width="2" stroke-miterlimit="10" stroke-linecap="round"/>
</g>
<mask id="mask30_35_8368" style="mask-type:luminance" maskUnits="userSpaceOnUse" x="-251" y="0" width="932" height="932">
<path d="M681 0L-251 0V932H681V0Z" fill="white"/>
</mask>
<g mask="url(#mask30_35_8368)">
<path d="M4.13049 54.0452L-35.9375 40.4407" stroke="white" stroke-width="2" stroke-miterlimit="10" stroke-linecap="round"/>
</g>
<mask id="mask31_35_8368" style="mask-type:luminance" maskUnits="userSpaceOnUse" x="-251" y="0" width="932" height="932">
<path d="M681 0L-251 0V932H681V0Z" fill="white"/>
</mask>
<g mask="url(#mask31_35_8368)">
<path d="M394.374 513.243C394.374 519.952 388.97 525.356 382.261 525.356C375.551 525.356 370.147 519.952 370.147 513.243C370.147 506.534 375.551 501.129 382.261 501.129C388.97 501.129 394.374 506.534 394.374 513.243Z" stroke="white" stroke-width="2" stroke-miterlimit="10" stroke-linecap="round"/>
<path d="M426.242 507.466C426.242 513.988 420.838 519.393 414.315 519.393C407.792 519.393 402.388 513.988 402.388 507.466C402.388 500.943 407.792 495.538 414.315 495.538C421.024 495.352 426.242 500.757 426.242 507.466Z" stroke="white" stroke-width="2" stroke-miterlimit="10" stroke-linecap="round"/>
<path d="M388.224 467.584C388.224 467.584 395.865 489.016 385.802 501.502" stroke="white" stroke-width="2" stroke-miterlimit="10" stroke-linecap="round"/>
<path d="M388.224 467.584C404.624 474.666 408.538 495.352 408.538 495.352" stroke="white" stroke-width="2" stroke-miterlimit="10" stroke-linecap="round"/>
<path d="M367.911 483.611C367.911 483.611 379.652 465.907 388.224 467.584C388.224 467.584 394.188 481.188 367.911 483.611Z" stroke="white" stroke-width="2" stroke-miterlimit="10" stroke-linecap="round"/>
<path d="M378.347 521.443C378.347 521.443 388.783 524.984 391.02 513.243" stroke="white" stroke-width="2" stroke-miterlimit="10" stroke-linecap="round"/>
<path d="M412.451 515.479C412.451 515.479 422.887 516.411 423.26 505.229" stroke="white" stroke-width="2" stroke-miterlimit="10" stroke-linecap="round"/>
</g>
<mask id="mask32_35_8368" style="mask-type:luminance" maskUnits="userSpaceOnUse" x="-251" y="0" width="932" height="932">
<path d="M681 0L-251 0V932H681V0Z" fill="white"/>
</mask>
<g mask="url(#mask32_35_8368)">
<path d="M129.925 189.345C129.925 196.054 124.521 201.458 117.812 201.458C111.103 201.458 105.698 196.054 105.698 189.345C105.698 182.635 111.103 177.231 117.812 177.231C124.521 177.231 129.925 182.635 129.925 189.345Z" stroke="white" stroke-width="2" stroke-miterlimit="10" stroke-linecap="round"/>
<path d="M149.866 195.495C156.453 195.495 161.793 190.155 161.793 183.567C161.793 176.98 156.453 171.64 149.866 171.64C143.279 171.64 137.939 176.98 137.939 183.567C137.939 190.155 143.279 195.495 149.866 195.495Z" stroke="white" stroke-width="2" stroke-miterlimit="10" stroke-linecap="round"/>
<path d="M123.776 143.872C123.776 143.872 131.416 165.304 121.353 177.79" stroke="white" stroke-width="2" stroke-miterlimit="10" stroke-linecap="round"/>
<path d="M123.776 143.872C140.176 150.954 144.089 171.64 144.089 171.64" stroke="white" stroke-width="2" stroke-miterlimit="10" stroke-linecap="round"/>
<path d="M103.462 159.899C103.462 159.899 115.203 142.195 123.775 143.872C123.775 143.872 129.739 157.477 103.462 159.899Z" stroke="white" stroke-width="2" stroke-miterlimit="10" stroke-linecap="round"/>
<path d="M113.898 197.731C113.898 197.731 124.335 201.272 126.571 189.531" stroke="white" stroke-width="2" stroke-miterlimit="10" stroke-linecap="round"/>
<path d="M148.003 191.581C148.003 191.581 158.439 192.513 158.812 181.331" stroke="white" stroke-width="2" stroke-miterlimit="10" stroke-linecap="round"/>
</g>
</g>
<path d="M286.25 436.828C282.717 444.185 278.094 450.92 272.563 456.796C264.451 465.421 256.846 470.563 249.755 474.878C249.602 461.345 250.061 451.698 251.528 449.116C257.938 437.854 268.757 442.196 268.757 413.925C268.757 405.757 266.383 370.404 264.701 358.219C264.621 357.646 264.112 357.226 263.537 357.253C262.96 357.274 262.492 357.733 262.461 358.308L260.002 420.508C259.965 421.098 259.489 421.555 258.895 421.572C258.306 421.58 257.814 421.135 257.758 420.55L253.84 357.125C253.786 356.552 253.298 356.103 252.721 356.103C252.132 356.103 251.65 356.552 251.602 357.133L247.732 420.813C247.691 421.394 247.211 421.847 246.63 421.855C246.055 421.847 245.571 421.394 245.531 420.813L241.664 357.133C241.618 356.552 241.128 356.103 240.551 356.103C239.965 356.103 239.483 356.552 239.428 357.125L235.504 420.55C235.45 421.135 234.952 421.58 234.364 421.572C233.783 421.555 233.295 421.098 233.268 420.508L230.805 358.308C230.771 357.735 230.306 357.274 229.729 357.253C229.152 357.224 228.651 357.644 228.573 358.219C226.889 370.404 224.515 405.755 224.515 413.925C224.515 442.196 235.338 437.852 241.746 449.116C243.345 451.927 243.746 463.146 243.457 478.643C232.635 485.106 223.137 491.493 215.019 508.57L215.012 508.582L214.99 508.539C207.388 492.552 198.405 485.901 188.25 479.687C187.482 462.077 187.608 448.479 189.615 444.94C196.023 433.682 219.712 421.201 212.259 393.696C204.803 366.197 193.253 357.919 184.721 357.919C176.185 357.919 164.643 366.197 157.182 393.696C149.732 421.203 173.423 433.682 179.829 444.94C181.68 448.192 181.935 459.973 181.366 475.546C173.92 471.041 165.93 465.81 157.455 456.805C151.92 450.922 147.295 444.183 143.761 436.828C138.788 447.17 136 458.759 136 471.004C136 491.946 144.152 510.982 157.455 525.117C180.733 549.857 200.403 546.182 214.986 576.856L215.008 576.897L215.014 576.885C229.756 545.875 249.033 550.122 272.557 525.115C285.857 510.98 294 491.944 294 471.006C294.006 458.759 291.218 447.17 286.25 436.828ZM185.966 443.377C187.302 439.519 189.166 435.752 191.416 432.344C205.804 410.553 200.689 386.539 189.381 362.314C195.607 367.109 201.998 376.837 206.741 394.333C214.226 421.942 192.395 432.077 185.964 443.385L185.966 443.377Z" fill="white"/>
</g>
<defs>
<filter id="filter0_f_35_8368" x="-458" y="-207" width="1345" height="1345" filterUnits="userSpaceOnUse" color-interpolation-filters="sRGB">
<feFlood flood-opacity="0" result="BackgroundImageFix"/>
<feBlend mode="normal" in="SourceGraphic" in2="BackgroundImageFix" result="shape"/>
<feGaussianBlur stdDeviation="200" result="effect1_foregroundBlur_35_8368"/>
</filter>
<clipPath id="clip0_35_8368">
<rect width="430" height="932" rx="30" fill="white"/>
</clipPath>
</defs>
</svg>
