<svg width="26" height="29" viewBox="0 0 26 29" fill="none" xmlns="http://www.w3.org/2000/svg">
<path d="M11.0007 8.66675V0.666748H3.00065C1.52789 0.666748 0.333984 1.86065 0.333984 3.33341V24.6667C0.333984 26.1395 1.52789 27.3334 3.00065 27.3334H12.0801C11.0275 26.2365 10.2607 24.8633 9.89918 23.3334H9.33398C8.78172 23.3334 8.33398 22.8857 8.33398 22.3334C8.33398 21.7811 8.78172 21.3334 9.33398 21.3334H9.66732C9.66732 20.645 9.74758 19.9754 9.89918 19.3334H9.33398C8.78172 19.3334 8.33398 18.8857 8.33398 18.3334C8.33398 17.7811 8.78172 17.3334 9.33398 17.3334H10.6436C11.0265 16.5987 11.5116 15.9258 12.0801 15.3334H9.33398C8.78172 15.3334 8.33398 14.8857 8.33398 14.3334C8.33398 13.7811 8.78172 13.3334 9.33398 13.3334H14.9948C16.0225 12.9039 17.1505 12.6667 18.334 12.6667C19.5152 12.6667 20.6412 12.903 21.6673 13.331V11.3334H13.6673C12.1945 11.3334 11.0007 10.1395 11.0007 8.66675ZM4.33398 14.3334C4.33398 13.7811 4.7817 13.3334 5.33398 13.3334C5.88626 13.3334 6.33398 13.7811 6.33398 14.3334C6.33398 14.8857 5.88626 15.3334 5.33398 15.3334C4.7817 15.3334 4.33398 14.8857 4.33398 14.3334ZM4.33398 18.3334C4.33398 17.7811 4.7817 17.3334 5.33398 17.3334C5.88626 17.3334 6.33398 17.7811 6.33398 18.3334C6.33398 18.8857 5.88626 19.3334 5.33398 19.3334C4.7817 19.3334 4.33398 18.8857 4.33398 18.3334ZM4.33398 22.3334C4.33398 21.7811 4.7817 21.3334 5.33398 21.3334C5.88626 21.3334 6.33398 21.7811 6.33398 22.3334C6.33398 22.8857 5.88626 23.3334 5.33398 23.3334C4.7817 23.3334 4.33398 22.8857 4.33398 22.3334ZM13.0007 8.66675V1.33341L21.0007 9.33342H13.6673C13.2992 9.33342 13.0007 9.03493 13.0007 8.66675ZM25.6673 21.3334C25.6673 17.2833 22.3841 14.0001 18.334 14.0001C14.2839 14.0001 11.0007 17.2833 11.0007 21.3334C11.0007 25.3835 14.2839 28.6667 18.334 28.6667C22.3841 28.6667 25.6673 25.3835 25.6673 21.3334ZM17.9615 21.8901C17.7811 21.7707 17.6621 21.5661 17.6621 21.3334C17.6621 21.3013 17.6644 21.2697 17.6688 21.2389L17.6673 15.9991C17.6673 15.6309 17.9659 15.3325 18.334 15.3325C18.7021 15.3325 19.0007 15.6309 19.0007 15.9991L19.002 20.6667H22.3295C22.6973 20.6667 22.9955 20.9653 22.9955 21.3334C22.9955 21.7017 22.6973 22.0001 22.3295 22.0001H18.4148C18.3888 22.0031 18.3624 22.0047 18.3355 22.0047C18.1968 22.0047 18.0681 21.9625 17.9615 21.8901Z" fill="#6BBC3B"/>
</svg>
