<svg width="19" height="19" viewBox="0 0 19 19" fill="none" xmlns="http://www.w3.org/2000/svg">
<g clip-path="url(#clip0_992_20302)">
<path d="M12.688 3.93489C12.4996 4.18191 12.547 4.53488 12.7941 4.72326C14.1353 5.74617 14.9375 7.33096 14.9375 9.0498C14.9375 11.8518 12.8181 14.1588 10.095 14.4551L10.6023 13.9475C10.8219 13.7279 10.8219 13.3718 10.6023 13.1521C10.4025 12.9524 10.09 12.9342 9.86983 13.0976L9.80675 13.1521L8.30675 14.6521C8.10703 14.8517 8.08887 15.1643 8.2523 15.3845L8.30675 15.4475L9.80675 16.9475C10.0264 17.1672 10.3826 17.1672 10.6023 16.9475C10.8019 16.7479 10.8201 16.4354 10.6567 16.2152L10.6023 16.1521L10.0396 15.5904C13.4116 15.3161 16.0625 12.4925 16.0625 9.0498C16.0625 6.97625 15.0937 5.06221 13.4763 3.82872C13.2293 3.64034 12.8763 3.68787 12.688 3.93489ZM8.39773 1.15206C8.17805 1.37172 8.17805 1.72788 8.39773 1.94755L8.9597 2.50923C5.58807 2.784 2.9375 5.60736 2.9375 9.0498C2.9375 11.0332 3.82344 12.8729 5.32311 14.1116C5.56262 14.3095 5.91717 14.2757 6.11502 14.0362C6.31286 13.7967 6.27909 13.4421 6.03957 13.2443C4.79595 12.217 4.0625 10.694 4.0625 9.0498C4.0625 6.24807 6.18149 3.94126 8.90427 3.64456L8.39773 4.15206C8.17805 4.37172 8.17805 4.72788 8.39773 4.94755C8.6174 5.16722 8.97357 5.16722 9.19325 4.94755L10.6932 3.44755C10.9129 3.22788 10.9129 2.87172 10.6932 2.65206L9.19325 1.15206C8.97357 0.932388 8.6174 0.932388 8.39773 1.15206Z" fill="#6BBC3B"/>
</g>
<defs>
<clipPath id="clip0_992_20302">
<rect width="18" height="18" fill="white" transform="translate(0.5 0.0498047)"/>
</clipPath>
</defs>
</svg>
