<svg width="18" height="19" viewBox="0 0 18 19" fill="none" xmlns="http://www.w3.org/2000/svg">
<path d="M14.75 0.386963C16.5449 0.386963 18 1.84203 18 3.63696V15.137C18 16.9319 16.5449 18.387 14.75 18.387H3.25C1.45507 18.387 0 16.9319 0 15.137V3.63696C0 1.84203 1.45507 0.386963 3.25 0.386963H14.75ZM16.5 5.88696H1.5V15.137C1.5 16.1035 2.2835 16.887 3.25 16.887H14.75C15.7165 16.887 16.5 16.1035 16.5 15.137V5.88696ZM4.75 11.887C5.44036 11.887 6 12.4466 6 13.137C6 13.8274 5.44036 14.387 4.75 14.387C4.05964 14.387 3.5 13.8274 3.5 13.137C3.5 12.4466 4.05964 11.887 4.75 11.887ZM9 11.887C9.6904 11.887 10.25 12.4466 10.25 13.137C10.25 13.8274 9.6904 14.387 9 14.387C8.3096 14.387 7.75 13.8274 7.75 13.137C7.75 12.4466 8.3096 11.887 9 11.887ZM4.75 7.88696C5.44036 7.88696 6 8.44656 6 9.13696C6 9.82736 5.44036 10.387 4.75 10.387C4.05964 10.387 3.5 9.82736 3.5 9.13696C3.5 8.44656 4.05964 7.88696 4.75 7.88696ZM9 7.88696C9.6904 7.88696 10.25 8.44656 10.25 9.13696C10.25 9.82736 9.6904 10.387 9 10.387C8.3096 10.387 7.75 9.82736 7.75 9.13696C7.75 8.44656 8.3096 7.88696 9 7.88696ZM13.25 7.88696C13.9404 7.88696 14.5 8.44656 14.5 9.13696C14.5 9.82736 13.9404 10.387 13.25 10.387C12.5596 10.387 12 9.82736 12 9.13696C12 8.44656 12.5596 7.88696 13.25 7.88696ZM14.75 1.88696H3.25C2.2835 1.88696 1.5 2.67046 1.5 3.63696V4.38696H16.5V3.63696C16.5 2.67046 15.7165 1.88696 14.75 1.88696Z" fill="#6BBC3B"/>
</svg>
