<svg width="18" height="19" viewBox="0 0 18 19" fill="none" xmlns="http://www.w3.org/2000/svg">
<path d="M13.3125 2.2998C14.6587 2.2998 15.75 3.39111 15.75 4.7373V13.3623C15.75 14.7085 14.6587 15.7998 13.3125 15.7998H4.6875C3.3413 15.7998 2.25 14.7085 2.25 13.3623V4.7373C2.25 3.39111 3.3413 2.2998 4.6875 2.2998H13.3125ZM14.625 6.4248H3.375V13.3623C3.375 14.0872 3.96263 14.6748 4.6875 14.6748H13.3125C14.0374 14.6748 14.625 14.0872 14.625 13.3623V6.4248ZM5.8125 10.9248C6.33027 10.9248 6.75 11.3445 6.75 11.8623C6.75 12.3801 6.33027 12.7998 5.8125 12.7998C5.29473 12.7998 4.875 12.3801 4.875 11.8623C4.875 11.3445 5.29473 10.9248 5.8125 10.9248ZM9 10.9248C9.5178 10.9248 9.9375 11.3445 9.9375 11.8623C9.9375 12.3801 9.5178 12.7998 9 12.7998C8.4822 12.7998 8.0625 12.3801 8.0625 11.8623C8.0625 11.3445 8.4822 10.9248 9 10.9248ZM5.8125 7.9248C6.33027 7.9248 6.75 8.3445 6.75 8.8623C6.75 9.3801 6.33027 9.7998 5.8125 9.7998C5.29473 9.7998 4.875 9.3801 4.875 8.8623C4.875 8.3445 5.29473 7.9248 5.8125 7.9248ZM9 7.9248C9.5178 7.9248 9.9375 8.3445 9.9375 8.8623C9.9375 9.3801 9.5178 9.7998 9 9.7998C8.4822 9.7998 8.0625 9.3801 8.0625 8.8623C8.0625 8.3445 8.4822 7.9248 9 7.9248ZM12.1875 7.9248C12.7053 7.9248 13.125 8.3445 13.125 8.8623C13.125 9.3801 12.7053 9.7998 12.1875 9.7998C11.6697 9.7998 11.25 9.3801 11.25 8.8623C11.25 8.3445 11.6697 7.9248 12.1875 7.9248ZM13.3125 3.4248H4.6875C3.96263 3.4248 3.375 4.01243 3.375 4.7373V5.2998H14.625V4.7373C14.625 4.01243 14.0374 3.4248 13.3125 3.4248Z" fill="#6BBC3B"/>
</svg>
