<svg width="28" height="29" viewBox="0 0 28 29" fill="none" xmlns="http://www.w3.org/2000/svg">
<path d="M15.7493 17.01C15.7493 17.9765 14.9658 18.76 13.9993 18.76C13.0329 18.76 12.2493 17.9765 12.2493 17.01C12.2493 16.0435 13.0329 15.26 13.9993 15.26C14.9658 15.26 15.7493 16.0435 15.7493 17.01ZM13.9993 3.01001C11.422 3.01001 9.33268 5.09935 9.33268 7.67668V8.84334H8.45768C6.3636 8.84334 4.66602 10.5409 4.66602 12.635V21.385C4.66602 23.4791 6.3636 25.1767 8.45768 25.1767H12.8327V25.0766C12.8327 24.4578 13.0785 23.8643 13.5161 23.4267H8.45768C7.3301 23.4267 6.41602 22.5126 6.41602 21.385V12.635C6.41602 11.5074 7.3301 10.5933 8.45768 10.5933H19.541C20.6686 10.5933 21.5827 11.5074 21.5827 12.635V13.6401C21.9579 13.5549 22.3484 13.51 22.7493 13.51C22.9465 13.51 23.1411 13.5209 23.3327 13.5421V12.635C23.3327 10.5409 21.6351 8.84334 19.541 8.84334H18.666V7.67668C18.666 5.09935 16.5766 3.01001 13.9993 3.01001ZM11.0827 7.67668C11.0827 6.06585 12.3885 4.76001 13.9993 4.76001C15.6102 4.76001 16.916 6.06585 16.916 7.67668V8.84334H11.0827V7.67668ZM22.7493 22.8433C25.0045 22.8433 26.8327 21.0152 26.8327 18.76C26.8327 16.5048 25.0045 14.6767 22.7493 14.6767C20.4942 14.6767 18.666 16.5048 18.666 18.76C18.666 19.1175 18.712 19.4641 18.7982 19.7945L14.3411 24.2516C14.1223 24.4704 13.9993 24.7672 13.9993 25.0766V26.9267C13.9993 27.2488 14.2606 27.51 14.5827 27.51H16.916C17.2381 27.51 17.4993 27.2488 17.4993 26.9267V26.3433H18.666C18.9881 26.3433 19.2493 26.0821 19.2493 25.76V24.5933H20.416C20.7381 24.5933 20.9993 24.3321 20.9993 24.01V22.8433H22.7493ZM23.3327 17.01C23.977 17.01 24.4993 17.5323 24.4993 18.1767C24.4993 18.821 23.977 19.3433 23.3327 19.3433C22.6883 19.3433 22.166 18.821 22.166 18.1767C22.166 17.5323 22.6883 17.01 23.3327 17.01Z" fill="#6BBC3B"/>
</svg>
