<svg width="60" height="61" viewBox="0 0 60 61" fill="none" xmlns="http://www.w3.org/2000/svg">
<circle cx="30.0005" cy="30.75" r="30" fill="#00B4D8" fill-opacity="0.1"/>
<circle cx="30.0005" cy="30.75" r="29.5" stroke="#00B4D8" stroke-opacity="0.4"/>
<mask id="mask0_1102_286" style="mask-type:alpha" maskUnits="userSpaceOnUse" x="9" y="10" width="42" height="42">
<rect x="9.60059" y="10.3501" width="40.8" height="40.8" fill="#D9D9D9"/>
</mask>
<g mask="url(#mask0_1102_286)">
<path d="M24.5007 46.0341C24.3491 45.8505 24.1576 45.683 24.0459 45.4755C23.8783 45.1643 23.7666 44.8212 23.6071 44.4941C23.5672 44.4063 23.4554 44.3186 23.3597 44.3026C21.732 44.0313 20.6229 42.7626 20.6149 41.1189C20.6069 36.6107 20.6149 32.1025 20.6149 27.5943C20.6149 27.5145 20.6149 27.4427 20.6149 27.3469C26.8785 27.3469 33.1182 27.3469 39.3818 27.3469C39.3818 27.4666 39.3818 27.5783 39.3818 27.682C39.3818 32.1105 39.3579 36.5389 39.3898 40.9673C39.4057 42.8185 38.0812 44.135 36.6051 44.3106C36.5253 44.3186 36.4215 44.4223 36.3896 44.5021C36.238 44.8212 36.1263 45.1723 35.9508 45.4835C35.8391 45.691 35.6476 45.8585 35.496 46.042C34.9773 46.042 34.4587 46.042 33.94 46.042C33.7884 45.8505 33.6129 45.683 33.4932 45.4755C33.3496 45.2282 33.2459 44.9569 33.1501 44.6856C33.0623 44.4303 32.9267 44.3265 32.6315 44.3345C31.0915 44.3505 29.5515 44.3425 28.0036 44.3425C27.6684 44.3425 27.2535 44.2467 27.0141 44.4063C26.7748 44.5659 26.7109 44.9888 26.5753 45.292C26.4476 45.5793 26.3519 45.8904 26.0407 46.05C25.538 46.0341 25.0194 46.0341 24.5007 46.0341ZM23.6071 32.5653C23.6071 33.443 23.6071 34.3207 23.6071 35.1904C23.6071 35.5814 23.8464 35.8447 24.1816 35.8607C24.5406 35.8766 24.7959 35.5894 24.7959 35.1745C24.7959 33.443 24.7959 31.7115 24.7959 29.98C24.7959 29.9322 24.7959 29.8763 24.788 29.8284C24.7481 29.5093 24.4927 29.2859 24.1736 29.3018C23.8464 29.3098 23.6071 29.5492 23.5991 29.9082C23.6071 30.7939 23.6071 31.6796 23.6071 32.5653Z" fill="#00B4D8"/>
<path d="M39.3657 26.7165C33.1021 26.7165 26.8784 26.7165 20.6147 26.7165C20.6147 26.5968 20.6147 26.4851 20.6147 26.3814C20.6147 23.852 20.6147 21.3226 20.6147 18.8012C20.6147 16.7984 21.9632 15.45 23.966 15.45C28.0194 15.45 32.0648 15.45 36.1182 15.45C37.7938 15.45 39.0705 16.5271 39.3498 18.1708C39.3737 18.3304 39.3817 18.49 39.3817 18.6496C39.3817 21.2588 39.3817 23.8679 39.3817 26.4691C39.3817 26.5489 39.3737 26.6287 39.3657 26.7165ZM23.6069 21.6896C23.6069 22.5594 23.6069 23.4211 23.6069 24.2908C23.6069 24.7137 23.8543 25.001 24.2054 25.001C24.5644 25.001 24.7958 24.7217 24.7958 24.2908C24.7958 22.5753 24.7958 20.8678 24.7958 19.1523C24.7958 18.7054 24.5804 18.4421 24.2133 18.4341C23.8303 18.4262 23.6069 18.6895 23.6069 19.1523C23.6069 19.9981 23.6069 20.8438 23.6069 21.6896Z" fill="#00B4D8"/>
</g>
</svg>
