<svg width="60" height="61" viewBox="0 0 60 61" fill="none" xmlns="http://www.w3.org/2000/svg">
<circle cx="30.0005" cy="30.75" r="30" fill="#2EC4B6" fill-opacity="0.1"/>
<circle cx="30.0005" cy="30.75" r="29.5" stroke="#2EC4B6" stroke-opacity="0.4"/>
<mask id="mask0_1102_300" style="mask-type:alpha" maskUnits="userSpaceOnUse" x="9" y="10" width="42" height="42">
<rect x="9.60059" y="10.3501" width="40.8" height="40.8" fill="#D9D9D9"/>
</mask>
<g mask="url(#mask0_1102_300)">
<path d="M20.6853 46.0342C20.2305 45.8586 20.023 45.5235 19.9512 45.0448C19.8634 44.4862 19.7278 43.9437 19.6161 43.3931L19.6081 43.4011C20.0071 43.1537 20.4699 42.9622 20.797 42.6351C22.6322 40.8398 24.4435 39.0126 26.2547 37.2013C26.6696 36.7864 26.6936 36.2438 26.3185 35.8768C25.9515 35.5097 25.4009 35.5257 24.994 35.9406C23.2226 37.704 21.4593 39.4754 19.6959 41.2387C19.5762 41.3584 19.4485 41.4622 19.281 41.6217C19.1693 41.0632 19.0576 40.5525 18.9618 40.0419C18.5469 37.9673 18.124 35.8927 17.7171 33.8182C17.6772 33.6187 17.6054 33.5389 17.4139 33.5628C17.2942 33.5788 17.1745 33.5708 17.0548 33.5628C16.5601 33.5469 16.1771 33.1719 16.1611 32.7011C16.1452 32.2383 16.5202 31.8234 16.9989 31.7755C17.0708 31.7675 17.1346 31.7755 17.2064 31.7755C22.8716 31.7755 28.5288 31.7755 34.1939 31.7755C34.8083 31.7755 35.2073 32.1266 35.2153 32.6612C35.2232 33.1479 34.8642 33.5389 34.3695 33.5708C34.162 33.5788 33.9545 33.5708 33.7152 33.5708C33.5716 34.2969 33.4279 34.9991 33.2843 35.7092C32.9013 37.6402 32.5183 39.5711 32.1194 41.4941C32.0954 41.6297 31.9757 41.8053 31.864 41.8531C31.3214 42.0845 30.7709 42.3478 30.1964 42.4595C28.7282 42.7468 27.7468 43.832 27.7947 45.2363C27.8027 45.5076 27.9064 45.7789 27.9622 46.0501C25.5446 46.0342 23.1109 46.0342 20.6853 46.0342Z" fill="#2EC4B6"/>
<path d="M30.2365 46.0338C30.2285 46.0258 30.2285 46.0098 30.2205 46.0098C29.7258 45.7385 29.5263 45.4114 29.5902 45.0124C29.662 44.5736 29.9572 44.3342 30.5157 44.2385C33.0132 43.8235 34.7367 42.1958 35.2075 39.7861C35.3032 39.2914 35.3192 38.7807 35.3431 38.2701C35.4708 35.7567 37.3459 33.8417 39.8593 33.6901C42.1652 33.5464 44.3914 35.254 44.7186 37.5759C45.0297 39.7781 44.5909 41.8607 43.1786 43.648C42.1732 44.9167 40.7928 45.563 39.2369 45.8582C38.83 45.938 38.4151 45.9779 38.0001 46.0417C35.4149 46.0338 32.8297 46.0338 30.2365 46.0338Z" fill="#2EC4B6"/>
<path d="M24.6432 24.9933C24.6432 25.4082 24.4198 25.6875 23.957 25.863C22.6724 26.3418 21.7069 27.1875 21.0686 28.4004C20.9569 28.6158 20.8691 28.8552 20.7813 29.0866C20.6218 29.4855 20.3106 29.7169 19.9276 29.7249C19.5446 29.7249 19.2174 29.5015 19.0738 29.1025C18.4913 27.5147 17.4062 26.4216 15.8104 25.8471C15.4114 25.7034 15.188 25.3763 15.188 24.9853C15.188 24.6023 15.4034 24.2832 15.7944 24.1475C17.3982 23.565 18.4913 22.4719 19.0738 20.8681C19.2174 20.4771 19.5366 20.2617 19.9116 20.2617C20.2866 20.2537 20.6138 20.4771 20.7574 20.8601C21.3479 22.4719 22.441 23.573 24.0608 24.1555C24.4517 24.2832 24.6512 24.6023 24.6432 24.9933Z" fill="#2EC4B6"/>
<path d="M40.9843 31.9109C40.3779 31.9109 39.8034 31.9109 39.189 31.9109C39.189 31.8151 39.189 31.7034 39.189 31.5997C39.189 26.5728 39.189 21.546 39.189 16.5192C39.189 16.3835 39.189 16.2399 39.2209 16.1042C39.3246 15.7212 39.6837 15.45 40.0826 15.45C40.4816 15.45 40.8327 15.7133 40.9364 16.1042C40.9763 16.2479 40.9843 16.3995 40.9843 16.5431C40.9843 21.5619 40.9843 26.5728 40.9843 31.5917C40.9843 31.7034 40.9843 31.8071 40.9843 31.9109Z" fill="#2EC4B6"/>
<path d="M28.5052 17.3651C28.8642 17.3651 29.1674 17.3571 29.4786 17.3651C30.0292 17.373 30.4281 17.756 30.4201 18.2667C30.4201 18.7853 30.0212 19.1444 29.4626 19.1524C29.1594 19.1524 28.8483 19.1524 28.5052 19.1524C28.5052 19.4795 28.5052 19.7827 28.5052 20.0859C28.4972 20.6684 28.1381 21.0674 27.6115 21.0674C27.0849 21.0674 26.7178 20.6764 26.7178 20.0939C26.7178 19.7987 26.7178 19.4955 26.7178 19.1524C26.3987 19.1524 26.0955 19.1524 25.7923 19.1524C25.2018 19.1524 24.8108 18.8013 24.8028 18.2747C24.7949 17.7401 25.2018 17.3651 25.8002 17.3651C26.0955 17.3651 26.3907 17.3651 26.7178 17.3651C26.7178 17.022 26.7178 16.7028 26.7178 16.3916C26.7258 15.857 27.0929 15.458 27.5955 15.4501C28.1062 15.4421 28.4972 15.841 28.5131 16.3836C28.5131 16.7028 28.5052 17.014 28.5052 17.3651Z" fill="#2EC4B6"/>
<path d="M33.2926 25.9186C33.2926 26.2298 33.2926 26.533 33.2926 26.8442C33.2847 27.4028 32.9096 27.8017 32.399 27.8017C31.8963 27.8017 31.5133 27.3948 31.4973 26.8442C31.4894 26.541 31.4973 26.2298 31.4973 25.8787C31.1463 25.8787 30.8271 25.8867 30.5 25.8787C29.8297 25.8468 29.4068 25.2484 29.6462 24.6579C29.7978 24.2909 30.0771 24.0994 30.476 24.0914C30.8032 24.0834 31.1303 24.0914 31.4973 24.0914C31.4973 23.7324 31.4894 23.4132 31.4973 23.0861C31.5133 22.5515 31.9043 22.1685 32.399 22.1685C32.9017 22.1685 33.2767 22.5594 33.2847 23.094C33.2926 23.3095 33.2847 23.5329 33.2847 23.7483C33.2847 23.8441 33.2847 23.9398 33.2847 24.0914C33.6597 24.0914 34.0187 24.0755 34.3698 24.0914C34.7608 24.1074 35.072 24.3707 35.1757 24.7377C35.2715 25.0888 35.1518 25.5037 34.8406 25.6872C34.665 25.791 34.4337 25.8468 34.2262 25.8708C33.9549 25.9027 33.6677 25.8787 33.3884 25.8867C33.3804 25.8867 33.3645 25.9027 33.2926 25.9186Z" fill="#2EC4B6"/>
<path d="M19.6164 43.3846C18.4914 43.9192 16.9035 43.5283 16.0099 42.499C14.8848 41.2063 14.9247 39.3552 16.0897 38.1104C16.2492 37.9349 16.4248 37.7753 16.6322 37.5679C16.7519 38.1663 16.8636 38.7009 16.9753 39.2435C17.0392 39.5547 17.0551 39.8499 17.0073 40.177C16.8477 41.2143 17.9169 42.0681 18.9302 41.7409C19.034 41.709 19.1297 41.6612 19.2813 41.6053C19.393 42.2197 19.4967 42.8022 19.6164 43.3846Z" fill="#2EC4B6"/>
</g>
</svg>
