<svg width="18" height="19" viewBox="0 0 18 19" fill="none" xmlns="http://www.w3.org/2000/svg">
<path d="M2.625 9.04981C2.625 5.52899 5.47919 2.6748 9 2.6748C12.5208 2.6748 15.375 5.52899 15.375 9.04981C15.375 12.5706 12.5208 15.4248 9 15.4248C5.47919 15.4248 2.625 12.5706 2.625 9.04981ZM9 1.5498C4.85786 1.5498 1.5 4.90767 1.5 9.04981C1.5 13.1919 4.85786 16.5498 9 16.5498C13.1421 16.5498 16.5 13.1919 16.5 9.04981C16.5 4.90767 13.1421 1.5498 9 1.5498ZM8.99483 5.03601C8.95763 4.76155 8.72213 4.5498 8.4375 4.5498C8.127 4.5498 7.875 4.80181 7.875 5.1123V9.61231L7.88018 9.68858C7.91738 9.96308 8.15288 10.1748 8.4375 10.1748H11.4375L11.5138 10.1696C11.7883 10.1324 12 9.89693 12 9.61231C12 9.30181 11.748 9.04981 11.4375 9.04981H9V5.1123L8.99483 5.03601Z" fill="#6BBC3B"/>
</svg>
