<svg width="60" height="61" viewBox="0 0 60 61" fill="none" xmlns="http://www.w3.org/2000/svg">
<circle cx="30.0005" cy="30.75" r="30" fill="#FF7A00" fill-opacity="0.1"/>
<circle cx="30.0005" cy="30.75" r="29.5" stroke="#FF7A00" stroke-opacity="0.4"/>
<mask id="mask0_1102_263" style="mask-type:alpha" maskUnits="userSpaceOnUse" x="9" y="10" width="42" height="42">
<rect x="9.6001" y="10.3499" width="40.8" height="40.8" fill="#D9D9D9"/>
</mask>
<g mask="url(#mask0_1102_263)">
<path d="M21.191 47.0706C20.7298 46.9133 20.2266 46.8085 19.7969 46.5675C18.4448 45.8128 17.7739 44.6179 17.7634 43.0666C17.753 41.1484 17.7634 39.2198 17.7634 37.3016C17.7634 35.8971 17.7634 34.503 17.7634 33.067C16.4113 33.067 15.0697 33.067 13.707 33.067C13.707 32.5115 13.707 31.9874 13.707 31.4319C23.2454 31.4319 32.7942 31.4319 42.3535 31.4319C42.3745 31.5262 42.3954 31.6101 42.4269 31.7359C42.7308 31.7359 43.0348 31.7359 43.3388 31.7359C44.3241 31.7254 45.3093 31.7254 46.2946 31.7149C46.2946 32.2704 46.2946 32.8155 46.2946 33.371C44.9949 33.371 43.6952 33.371 42.3849 33.371C42.3849 33.5597 42.3849 33.6959 42.3849 33.8322C42.3849 36.8719 42.3849 39.9221 42.3849 42.9618C42.3849 44.5235 41.756 45.7604 40.3829 46.5465C39.9532 46.7876 39.4396 46.8924 38.9679 47.0706C33.0458 47.0706 27.1131 47.0706 21.191 47.0706Z" fill="#FF7A00"/>
<path d="M31.9224 26.1795C33.3164 26.1795 34.7 26.1795 36.0941 26.1795C36.8068 26.1795 37.5196 26.1795 38.2323 26.1795C39.9828 26.169 41.1358 27.0809 41.9114 28.5693C42.1001 28.9257 42.1944 29.3345 42.3516 29.7642C34.134 29.7642 26.0002 29.7642 17.835 29.7642C18.0236 28.737 18.5058 27.888 19.2605 27.1962C20.0361 26.473 20.969 26.1795 22.0276 26.19C23.9772 26.2109 25.9373 26.2004 27.8869 26.2004C28.0022 26.2004 28.1175 26.2004 28.3271 26.2004C28.1804 26.1061 28.107 26.0642 28.0337 26.0222C27.6249 25.7497 27.4257 25.2676 27.5515 24.8064C27.6773 24.3137 28.0546 23.9574 28.5682 23.9469C29.5745 23.9259 30.5807 23.9259 31.5974 23.9469C32.0901 23.9574 32.4884 24.3137 32.6037 24.7749C32.7294 25.2571 32.5408 25.7497 32.1215 26.0222C32.0586 26.0642 31.9852 26.1061 31.9119 26.148C31.9014 26.148 31.9119 26.169 31.9224 26.1795Z" fill="#FF7A00"/>
<path d="M25.1414 20.8021C25.6864 20.1836 25.676 20.1417 25.1414 19.5233C24.7012 19.0097 24.219 18.5171 23.8521 17.9615C23.1813 16.9238 23.3805 15.5927 24.2609 14.8694C24.481 14.6912 24.7536 14.5759 25.0051 14.4292C25.0261 14.4502 25.0366 14.4711 25.0575 14.5026C25.0051 14.6912 24.9422 14.8799 24.8898 15.0686C24.6592 15.8442 24.8165 16.557 25.2776 17.2068C25.5816 17.6366 25.9066 18.0559 26.1896 18.5066C26.483 18.9992 26.6508 19.5233 26.4935 20.1208C26.3258 20.7182 25.7493 21.0117 25.1414 20.8021Z" fill="#FF7A00"/>
<path d="M29.2723 14.4617C29.1779 14.818 29.0836 15.122 29.0312 15.4365C28.9264 16.0759 29.115 16.6523 29.4714 17.1764C29.7754 17.6167 30.1213 18.0464 30.3938 18.5076C30.6873 19.0002 30.855 19.5348 30.6978 20.1218C30.5301 20.7192 29.9745 21.0022 29.3771 20.8031C29.3771 20.7821 29.3666 20.7612 29.3771 20.7507C29.9012 20.2056 29.9012 20.1218 29.3876 19.5558C29.0521 19.1994 28.6958 18.864 28.4023 18.4762C27.721 17.5852 27.417 16.6209 27.9411 15.5413C28.2136 14.9962 28.6434 14.6294 29.2723 14.4617Z" fill="#FF7A00"/>
<path d="M33.234 20.7916C33.7686 20.2151 33.7581 20.1417 33.2235 19.5338C32.7728 19.0202 32.2802 18.5171 31.9133 17.9406C31.253 16.9134 31.4626 15.6031 32.3221 14.8694C32.5422 14.6912 32.8148 14.5759 33.0558 14.4292C33.0768 14.4502 33.0978 14.4816 33.1187 14.5026C33.0663 14.6808 33.0139 14.8589 32.9615 15.0371C32.7204 15.8233 32.8776 16.5465 33.3388 17.2068C33.6323 17.6366 33.9677 18.0349 34.2298 18.4856C34.5233 18.9783 34.7119 19.5233 34.5547 20.1208C34.3975 20.7287 33.7686 21.0431 33.234 20.7916Z" fill="#FF7A00"/>
</g>
</svg>
