<svg width="30" height="31" viewBox="0 0 30 31" fill="none" xmlns="http://www.w3.org/2000/svg">
<rect y="0.5" width="29.9999" height="30" rx="15" fill="white"/>
<path d="M13.8346 11.4167H16.1679C16.1679 10.7723 15.6456 10.25 15.0013 10.25C14.3569 10.25 13.8346 10.7723 13.8346 11.4167ZM12.9596 11.4167C12.9596 10.2891 13.8737 9.375 15.0013 9.375C16.1289 9.375 17.0429 10.2891 17.0429 11.4167H20.3971C20.6387 11.4167 20.8346 11.6125 20.8346 11.8542C20.8346 12.0958 20.6387 12.2917 20.3971 12.2917H19.6276L18.944 19.3565C18.8355 20.4778 17.8932 21.3333 16.7666 21.3333H13.2359C12.1094 21.3333 11.1671 20.4778 11.0586 19.3565L10.3749 12.2917H9.60547C9.36385 12.2917 9.16797 12.0958 9.16797 11.8542C9.16797 11.6125 9.36385 11.4167 9.60547 11.4167H12.9596ZM14.1263 14.1875C14.1263 13.9459 13.9304 13.75 13.6888 13.75C13.4472 13.75 13.2513 13.9459 13.2513 14.1875V18.5625C13.2513 18.8041 13.4472 19 13.6888 19C13.9304 19 14.1263 18.8041 14.1263 18.5625V14.1875ZM16.3138 13.75C16.5554 13.75 16.7513 13.9459 16.7513 14.1875V18.5625C16.7513 18.8041 16.5554 19 16.3138 19C16.0722 19 15.8763 18.8041 15.8763 18.5625V14.1875C15.8763 13.9459 16.0722 13.75 16.3138 13.75ZM11.9296 19.2722C11.9947 19.945 12.56 20.4583 13.2359 20.4583H16.7666C17.4425 20.4583 18.0079 19.945 18.073 19.2722L18.7485 12.2917H11.254L11.9296 19.2722Z" fill="#CA0000"/>
</svg>
