<svg width="28" height="29" viewBox="0 0 28 29" fill="none" xmlns="http://www.w3.org/2000/svg">
<path d="M11.6673 6.51009H16.334C16.334 5.22143 15.2893 4.17676 14.0006 4.17676C12.7119 4.17676 11.6673 5.22143 11.6673 6.51009ZM9.91732 6.51009C9.91732 4.25492 11.7455 2.42676 14.0006 2.42676C16.2558 2.42676 18.084 4.25492 18.084 6.51009H24.7923C25.2755 6.51009 25.6673 6.90185 25.6673 7.38509C25.6673 7.86834 25.2755 8.26009 24.7923 8.26009H23.2534L21.886 22.3898C21.669 24.6324 19.7844 26.3434 17.5313 26.3434H10.47C8.21695 26.3434 6.33233 24.6324 6.1153 22.3898L4.74791 8.26009H3.20898C2.72574 8.26009 2.33398 7.86834 2.33398 7.38509C2.33398 6.90185 2.72574 6.51009 3.20898 6.51009H9.91732ZM12.2506 12.0518C12.2506 11.5685 11.8589 11.1768 11.3756 11.1768C10.8924 11.1768 10.5007 11.5685 10.5007 12.0518V20.8018C10.5007 21.285 10.8924 21.6768 11.3756 21.6768C11.8589 21.6768 12.2506 21.285 12.2506 20.8018V12.0518ZM16.6256 11.1768C17.1089 11.1768 17.5006 11.5685 17.5006 12.0518V20.8018C17.5006 21.285 17.1089 21.6768 16.6256 21.6768C16.1424 21.6768 15.7506 21.285 15.7506 20.8018V12.0518C15.7506 11.5685 16.1424 11.1768 16.6256 11.1768ZM7.85717 22.2212C7.98738 23.5668 9.11815 24.5934 10.47 24.5934H17.5313C18.8832 24.5934 20.0139 23.5668 20.1441 22.2212L21.4952 8.26009H6.50608L7.85717 22.2212Z" fill="#FF3838"/>
</svg>
