<svg width="34" height="34" viewBox="0 0 34 34" fill="none" xmlns="http://www.w3.org/2000/svg">
<rect width="34" height="34" rx="17" fill="#CA0000" fill-opacity="0.1"/>
<path d="M15.3 11.05H18.7C18.7 10.1111 17.9389 9.34995 17 9.34995C16.0611 9.34995 15.3 10.1111 15.3 11.05ZM14.025 11.05C14.025 9.4069 15.357 8.07495 17 8.07495C18.6431 8.07495 19.975 9.4069 19.975 11.05H24.8625C25.2146 11.05 25.5 11.3354 25.5 11.6875C25.5 12.0395 25.2146 12.325 24.8625 12.325H23.7413L22.7451 22.6195C22.587 24.2533 21.2139 25.5 19.5724 25.5H14.4276C12.7862 25.5 11.4131 24.2533 11.255 22.6195L10.2587 12.325H9.1375C8.78542 12.325 8.5 12.0395 8.5 11.6875C8.5 11.3354 8.78542 11.05 9.1375 11.05H14.025ZM15.725 15.0875C15.725 14.7354 15.4396 14.45 15.0875 14.45C14.7354 14.45 14.45 14.7354 14.45 15.0875V21.4625C14.45 21.8145 14.7354 22.1 15.0875 22.1C15.4396 22.1 15.725 21.8145 15.725 21.4625V15.0875ZM18.9125 14.45C19.2646 14.45 19.55 14.7354 19.55 15.0875V21.4625C19.55 21.8145 19.2646 22.1 18.9125 22.1C18.5604 22.1 18.275 21.8145 18.275 21.4625V15.0875C18.275 14.7354 18.5604 14.45 18.9125 14.45ZM12.524 22.4967C12.6189 23.477 13.4428 24.225 14.4276 24.225H19.5724C20.5573 24.225 21.3811 23.477 21.4759 22.4967L22.4603 12.325H11.5397L12.524 22.4967Z" fill="#CA0000"/>
</svg>
