<svg width="30" height="31" viewBox="0 0 30 31" fill="none" xmlns="http://www.w3.org/2000/svg">
<rect y="0.5" width="29.9999" height="30" rx="15" fill="white"/>
<path d="M20.2232 10.2779C19.4079 9.46267 18.0862 9.46271 17.2711 10.278L10.3002 17.2497C10.0632 17.4867 9.89661 17.7849 9.81897 18.111L9.17987 20.7952C9.14469 20.943 9.18869 21.0984 9.29611 21.2058C9.40355 21.3133 9.55902 21.3573 9.70681 21.3221L12.3909 20.683C12.7171 20.6053 13.0153 20.4387 13.2524 20.2016L20.2233 13.2299C21.0384 12.4147 21.0384 11.093 20.2232 10.2779ZM17.8898 10.8967C18.3633 10.4231 19.131 10.4231 19.6045 10.8966C20.0779 11.3701 20.078 12.1377 19.6045 12.6112L19.0846 13.1312L17.37 11.4166L17.8898 10.8967ZM16.7513 12.0353L18.4659 13.7499L12.6337 19.5829C12.5111 19.7055 12.3569 19.7917 12.1882 19.8318L10.1957 20.3062L10.6702 18.3137C10.7103 18.145 10.7964 17.9909 10.919 17.8683L16.7513 12.0353Z" fill="#060D17"/>
</svg>
