<svg width="34" height="34" viewBox="0 0 34 34" fill="none" xmlns="http://www.w3.org/2000/svg">
<rect width="34" height="34" rx="17" fill="#6BBC3B" fill-opacity="0.15"/>
<path d="M19.7555 10.6593C20.7454 9.66928 22.3503 9.66924 23.3403 10.6592C24.3301 11.649 24.3301 13.2538 23.3403 14.2437L22.7087 14.8755L19.124 11.2908L19.7555 10.6593ZM18.3727 12.0422L11.2909 19.1249C11.0031 19.4127 10.8008 19.7748 10.7065 20.1707L9.93047 23.4301C9.88775 23.6096 9.94117 23.7984 10.0716 23.9288C10.2021 24.0593 10.3909 24.1127 10.5703 24.07L13.8295 23.294C14.2256 23.1996 14.5878 22.9973 14.8757 22.7093L21.9574 15.6268L18.3727 12.0422Z" fill="#6BBC3B"/>
</svg>
