<svg width="28" height="29" viewBox="0 0 28 29" fill="none" xmlns="http://www.w3.org/2000/svg">
<path d="M24.4445 4.23279C22.814 2.60235 20.1706 2.60242 18.5403 4.23297L4.59852 18.1763C4.12447 18.6505 3.79127 19.2467 3.63598 19.8989L2.35779 25.2673C2.28742 25.563 2.37542 25.8739 2.59028 26.0887C2.80514 26.3036 3.11608 26.3915 3.41167 26.3212L8.77979 25.0431C9.43219 24.8877 10.0287 24.5544 10.5029 24.0801L24.4447 10.1367C26.0748 8.50631 26.0748 5.86309 24.4445 4.23279ZM19.7778 5.47032C20.7246 4.52328 22.2601 4.52323 23.207 5.47023C24.1539 6.41714 24.154 7.95238 23.2072 8.89935L22.1673 9.93938L18.738 6.51015L19.7778 5.47032ZM17.5007 7.74765L20.93 11.1769L9.26537 22.8428C9.0202 23.088 8.71178 23.2603 8.37446 23.3407L4.38954 24.2894L5.33839 20.3043C5.41867 19.967 5.59094 19.6588 5.83602 19.4137L17.5007 7.74765Z" fill="#6BBC3B"/>
</svg>
