<svg width="28" height="29" viewBox="0 0 28 29" fill="none" xmlns="http://www.w3.org/2000/svg">
<mask id="mask0_1149_98" style="mask-type:alpha" maskUnits="userSpaceOnUse" x="0" y="0" width="28" height="29">
<rect y="0.676758" width="28" height="28" fill="#D9D9D9"/>
</mask>
<g mask="url(#mask0_1149_98)">
<path d="M21.9784 11.3177C20.8902 11.3177 19.8289 11.3177 18.7677 11.3177C17.1668 11.3177 16.0966 10.2474 16.0966 8.64659C16.0966 7.58534 16.0966 6.5241 16.0966 5.42688C15.9977 5.42688 15.9077 5.42688 15.8088 5.42688C13.9831 5.42688 12.1664 5.42688 10.3407 5.42688C9.68417 5.42688 9.3604 5.75065 9.3604 6.41617C9.3604 8.83545 9.3604 11.2547 9.3604 13.674C9.3604 13.7909 9.3604 13.9078 9.34241 14.0158C9.25248 14.4295 8.87475 14.7173 8.46104 14.6813C8.03834 14.6543 7.69658 14.3036 7.68759 13.8629C7.6786 13.4312 7.68759 13.0085 7.68759 12.5768C7.68759 10.5262 7.68759 8.47571 7.68759 6.42517C7.6786 4.80632 8.74884 3.74508 10.3677 3.73608C12.5082 3.73608 14.6486 3.73608 16.7801 3.73608C17.1309 3.73608 17.4007 3.853 17.6435 4.09583C19.5322 5.99348 21.4208 7.88213 23.3185 9.76179C23.5613 10.0046 23.6782 10.2744 23.6782 10.6252C23.6692 14.7352 23.6782 18.8453 23.6782 22.9554C23.6782 24.5383 22.599 25.6085 21.0251 25.6175C17.4636 25.6175 13.9112 25.6175 10.3497 25.6175C8.76682 25.6175 7.69658 24.5383 7.69658 22.9554C7.69658 22.1819 7.69658 21.4085 7.69658 20.644C7.69658 20.1044 8.04733 19.7267 8.53299 19.7267C9.01864 19.7267 9.37839 20.1044 9.37839 20.635C9.37839 21.4265 9.37839 22.2089 9.37839 23.0004C9.37839 23.5939 9.71115 23.9357 10.3047 23.9357C13.9022 23.9357 17.4906 23.9357 21.088 23.9357C21.6456 23.9357 21.9964 23.5939 21.9964 23.0453C21.9964 19.1961 21.9964 15.3468 21.9964 11.5065C21.9874 11.4436 21.9784 11.3986 21.9784 11.3177ZM17.7784 6.65001C17.7784 7.3605 17.7784 8.04402 17.7784 8.71853C17.7784 9.27614 18.1292 9.61789 18.6778 9.62689C19.2983 9.62689 19.9189 9.62689 20.5394 9.62689C20.6024 9.62689 20.6653 9.61789 20.7283 9.6089C19.757 8.6286 18.7857 7.65729 17.7784 6.65001Z" fill="#6BBC3B"/>
<path d="M14.0456 16.3631C13.9467 16.2642 13.8927 16.1923 13.8387 16.1383C13.2811 15.5807 12.7235 15.0231 12.1659 14.4655C11.8062 14.0968 11.7972 13.5841 12.139 13.2424C12.4807 12.9006 12.9933 12.9096 13.3621 13.2783C14.4593 14.3756 15.5565 15.4728 16.6537 16.57C17.0495 16.9657 17.0495 17.4514 16.6537 17.8471C15.5655 18.9443 14.4773 20.0325 13.3801 21.1208C13.0023 21.4985 12.4897 21.5165 12.139 21.1657C11.7972 20.815 11.8152 20.3113 12.1929 19.9246C12.7955 19.313 13.4071 18.7105 14.0726 18.0449C13.9197 18.0449 13.8387 18.0449 13.7488 18.0449C10.9428 18.0449 8.1458 18.0449 5.3398 18.0449C5.21389 18.0449 5.08798 18.0449 4.97106 18.018C4.55735 17.919 4.28755 17.5323 4.32352 17.1186C4.36849 16.6959 4.71024 16.3631 5.15992 16.3631C6.11325 16.3542 7.06657 16.3631 8.02888 16.3631C9.92653 16.3631 11.8332 16.3631 13.7308 16.3631C13.8118 16.3631 13.9017 16.3631 14.0456 16.3631Z" fill="#6BBC3B"/>
</g>
</svg>
