<svg width="29" height="29" viewBox="0 0 29 29" fill="none" xmlns="http://www.w3.org/2000/svg">
<path d="M25.8991 5.80433C25.7644 5.49318 25.5412 5.22847 25.2573 5.04314C24.9734 4.85782 24.6413 4.76005 24.3022 4.76199H5.05222C4.71352 4.76266 4.38229 4.8616 4.09871 5.04681C3.81514 5.23202 3.5914 5.49555 3.45465 5.80541C3.3179 6.11528 3.274 6.45817 3.32829 6.79249C3.38258 7.12681 3.53272 7.4382 3.7605 7.68887L3.76925 7.69871L11.1772 15.6087V24.012C11.1771 24.3287 11.263 24.6395 11.4257 24.9113C11.5884 25.183 11.8218 25.4055 12.101 25.5551C12.3802 25.7046 12.6947 25.7756 13.0111 25.7604C13.3275 25.7452 13.6338 25.6444 13.8974 25.4689L17.3974 23.1348C17.6373 22.975 17.834 22.7584 17.9701 22.5042C18.1061 22.25 18.1773 21.9662 18.1772 21.6779V15.6087L25.5863 7.69871L25.595 7.68887C25.8252 7.43934 25.9768 7.12754 26.0309 6.79239C26.085 6.45725 26.0391 6.11359 25.8991 5.80433ZM16.6657 14.6692C16.5143 14.8297 16.4291 15.0414 16.4272 15.262V21.6779L12.9272 24.012V15.262C12.9273 15.0398 12.8428 14.8259 12.691 14.6637L5.05222 6.51199H24.3022L16.6657 14.6692Z" fill="#6BBC3B"/>
</svg>
