<svg width="28" height="29" viewBox="0 0 28 29" fill="none" xmlns="http://www.w3.org/2000/svg">
<path d="M14 6.00228C18.5103 6.00228 22.1667 9.65862 22.1667 14.1689C22.1667 18.6793 18.5103 22.3356 14 22.3356C9.48968 22.3356 5.83333 18.6793 5.83333 14.1689C5.83333 13.8222 5.85487 13.4811 5.89658 13.1466C5.97631 12.5073 5.52261 11.9243 4.88323 11.8446C4.24385 11.7649 3.66091 12.2185 3.58118 12.858C3.52756 13.2879 3.5 13.7255 3.5 14.1689C3.5 19.968 8.20101 24.6689 14 24.6689C19.799 24.6689 24.5 19.968 24.5 14.1689C24.5 8.36996 19.799 3.66895 14 3.66895C11.8417 3.66895 9.83482 4.32088 8.16667 5.43732V4.83561C8.16667 4.19129 7.64433 3.66895 7 3.66895C6.35567 3.66895 5.83333 4.19129 5.83333 4.83561V8.33561C5.83333 8.97994 6.35567 9.50228 7 9.50228H10.5C11.1443 9.50228 11.6667 8.97994 11.6667 8.33561C11.6667 7.69129 11.1443 7.16895 10.5 7.16895H9.79069C11.0201 6.42793 12.46 6.00228 14 6.00228ZM15.1667 9.50228C15.1667 8.85795 14.6444 8.33561 14 8.33561C13.3556 8.33561 12.8333 8.85795 12.8333 9.50228V14.1689C12.8333 14.8133 13.3556 15.3356 14 15.3356H16.9167C17.561 15.3356 18.0833 14.8133 18.0833 14.1689C18.0833 13.5246 17.561 13.0023 16.9167 13.0023H15.1667V9.50228Z" fill="#6BBC3B"/>
</svg>
