<svg width="28" height="29" viewBox="0 0 28 29" fill="none" xmlns="http://www.w3.org/2000/svg">
<path d="M15.6926 3.27854C14.7149 2.4537 13.2851 2.4537 12.3074 3.27854L4.43235 9.92217C3.84115 10.4209 3.5 11.155 3.5 11.9285V22.7845C3.5 23.9121 4.41408 24.8262 5.54167 24.8262H9.04167C10.1692 24.8262 11.0833 23.9121 11.0833 22.7845V18.1148C11.0833 17.3223 11.7154 16.6775 12.503 16.657H15.497C16.2846 16.6775 16.9167 17.3223 16.9167 18.1148V22.7845C16.9167 23.9121 17.8307 24.8262 18.9583 24.8262H22.4583C23.5859 24.8262 24.5 23.9121 24.5 22.7845V11.9285C24.5 11.155 24.1589 10.4209 23.5676 9.92217L15.6926 3.27854Z" fill="#6BBC3B"/>
</svg>
