<svg width="60" height="61" viewBox="0 0 60 61" fill="none" xmlns="http://www.w3.org/2000/svg">
<circle cx="30.0005" cy="30.75" r="30" fill="#E63946" fill-opacity="0.1"/>
<circle cx="30.0005" cy="30.75" r="29.5" stroke="#E63946" stroke-opacity="0.4"/>
<mask id="mask0_1102_271" style="mask-type:alpha" maskUnits="userSpaceOnUse" x="9" y="10" width="42" height="42">
<rect x="9.60059" y="10.3501" width="40.8" height="40.8" fill="#77B032"/>
</mask>
<g mask="url(#mask0_1102_271)">
<path d="M36.8772 29.205C36.3595 29.205 35.8897 29.205 35.3528 29.205C35.3528 28.7257 35.3624 28.2559 35.3528 27.7862C35.3432 27.3068 35.094 26.9904 34.6913 26.9425C34.2023 26.885 33.838 27.2109 33.8189 27.7478C33.8093 27.9875 33.8189 28.2272 33.8189 28.4668C33.8189 28.7065 33.8189 28.9366 33.8189 29.205C33.3012 29.205 32.8218 29.205 32.2945 29.205C32.2945 28.9558 32.3041 28.7257 32.2945 28.486C32.2753 28.0258 31.959 27.6903 31.5371 27.6903C31.1153 27.6807 30.7893 28.0162 30.7702 28.4764C30.7606 28.7161 30.7702 28.9462 30.7702 29.205C30.2429 29.205 29.7635 29.205 29.217 29.205C29.217 28.6969 29.2266 28.1984 29.217 27.6999C29.2075 27.1917 28.824 26.8754 28.3446 26.9425C27.9707 26.9904 27.7119 27.3068 27.7023 27.7286C27.6927 28.2176 27.7023 28.7065 27.7023 29.205C27.175 29.205 26.6956 29.205 26.1779 29.205C26.1779 28.9558 26.1875 28.7353 26.1779 28.5052C26.1587 28.0162 25.8328 27.6807 25.4014 27.6903C24.9699 27.6903 24.6632 28.0258 24.644 28.5244C24.6344 28.7353 24.644 28.9558 24.644 29.1955C24.1359 29.1955 23.6565 29.1955 23.1388 29.1955C23.1292 29.09 23.1196 28.975 23.1196 28.8599C23.1196 26.4919 23.1196 24.1239 23.1196 21.7558C23.1196 21.0656 23.3977 20.7875 24.1071 20.7875C24.5289 20.7875 24.9412 20.7875 25.4205 20.7875C25.4205 20.5766 25.4205 20.3753 25.4205 20.1835C25.4205 19.5508 25.7082 19.2632 26.3409 19.2632C30.3004 19.2632 34.2599 19.2632 38.2098 19.2632C38.507 19.2632 38.8042 19.2632 39.111 19.2632C39.6478 19.2728 39.945 19.5604 39.9738 20.1069C39.9834 20.3178 39.9738 20.5287 39.9738 20.7875C40.4436 20.7875 40.8846 20.7875 41.3256 20.7875C41.9775 20.7971 42.2651 21.0752 42.2747 21.7271C42.2843 22.5516 42.2747 23.3761 42.2747 24.2006C42.2747 24.3252 42.2747 24.4594 42.2747 24.632C42.6007 24.632 42.8883 24.6224 43.1663 24.632C44.3264 24.6895 45.2659 25.6195 45.3042 26.7795C45.333 27.5752 45.3138 28.371 45.3138 29.1955C44.0292 29.1955 42.7828 29.1955 41.4982 29.1955C41.4982 28.6778 41.5077 28.1792 41.4982 27.6807C41.4886 27.3356 41.316 27.0863 40.9996 26.9712C40.6928 26.8658 40.386 26.9137 40.1847 27.1726C40.0697 27.3356 40.0026 27.5561 39.993 27.767C39.9642 28.2272 39.9834 28.6969 39.9834 29.1859C39.4753 29.1859 38.9863 29.1859 38.4399 29.1859C38.4399 28.9654 38.4494 28.7257 38.4399 28.4956C38.4207 28.0067 38.1043 27.6711 37.6729 27.6807C37.2415 27.6903 36.9251 28.0258 36.9155 28.5148C36.8772 28.7353 36.8772 28.9558 36.8772 29.205ZM24.644 24.6032C30.0128 24.6032 35.3432 24.6032 40.6737 24.6032C40.6737 23.8362 40.6737 23.098 40.6737 22.3598C40.4244 22.3598 40.2039 22.3598 39.945 22.3598C39.945 22.5228 39.945 22.657 39.945 22.8008C39.945 23.6253 39.6958 23.865 38.8713 23.865C35.4583 23.865 32.0548 23.865 28.6418 23.865C27.8269 23.865 27.012 23.8746 26.2067 23.865C25.7082 23.8554 25.411 23.5486 25.3918 23.0501C25.3822 22.8296 25.3918 22.5995 25.3918 22.3598C25.1233 22.3598 24.8932 22.3598 24.644 22.3598C24.644 23.1172 24.644 23.8554 24.644 24.6032Z" fill="#E63946"/>
<path d="M45.2951 30.7776C45.2951 30.9118 45.2951 31.0173 45.2951 31.1227C45.2951 35.2835 45.2951 39.4444 45.2951 43.6052C45.2951 44.8419 44.6432 45.7239 43.5407 45.9924C43.3489 46.0403 43.138 46.0499 42.9367 46.0499C39.2265 46.0499 35.5258 46.0499 31.8156 46.0499C31.7293 46.0499 31.6526 46.0403 31.5376 46.0307C31.5376 40.9495 31.5376 35.8779 31.5376 30.7776C36.1202 30.7776 40.7029 30.7776 45.2951 30.7776ZM38.402 39.1663C40.0989 39.1663 41.4603 37.8145 41.4699 36.1272C41.4794 34.4303 40.0989 33.0497 38.402 33.0497C36.7146 33.0497 35.3629 34.4207 35.3629 36.108C35.3629 37.805 36.7146 39.1567 38.402 39.1663ZM41.4699 43.7586C42.7449 43.7586 43.7708 42.7423 43.7708 41.4672C43.7708 40.2017 42.7258 39.1663 41.4603 39.1759C40.2044 39.1855 39.1881 40.2113 39.1785 41.4577C39.169 42.7327 40.1852 43.749 41.4699 43.7586ZM35.3629 43.7586C36.6379 43.749 37.6638 42.7136 37.6446 41.4481C37.6254 40.1922 36.5996 39.1759 35.3533 39.1663C34.0878 39.1663 33.062 40.1922 33.062 41.4672C33.062 42.7519 34.0782 43.7586 35.3629 43.7586Z" fill="#E63946"/>
<path d="M14.6831 30.7585C19.8026 30.7585 24.8742 30.7585 29.965 30.7585C29.965 35.8493 29.965 40.9209 29.965 46.05C29.8404 46.05 29.7157 46.05 29.5911 46.05C25.4494 46.05 21.3174 46.05 17.1758 46.05C15.6035 46.05 14.6831 45.1297 14.6831 43.5574C14.6831 39.4157 14.6831 35.2837 14.6831 31.142C14.6831 31.027 14.6831 30.9119 14.6831 30.7585ZM22.3432 43.7587C25.7179 43.7491 28.4502 41.0264 28.4598 37.6517C28.4694 34.2674 25.7179 31.5255 22.324 31.5255C18.9302 31.5351 16.1979 34.2674 16.2075 37.6709C16.2266 41.036 18.9686 43.7587 22.3432 43.7587Z" fill="#E63946"/>
<path d="M20.0614 22.1684C20.7996 22.8395 20.8572 23.7023 20.7996 24.6131C21.0681 24.6227 21.3078 24.6323 21.557 24.6515C21.557 26.1758 21.557 27.6714 21.557 29.2053C19.2753 29.2053 17.0127 29.2053 14.6831 29.2053C14.6831 29.004 14.6831 28.8123 14.6831 28.6109C14.6831 28.0261 14.6735 27.4413 14.6926 26.8565C14.7214 25.9553 15.1528 25.2938 15.9581 24.8815C16.1595 24.7761 16.2266 24.6706 16.217 24.4501C16.217 24.0858 16.2074 23.7023 16.2841 23.3476C16.4854 22.456 17.0703 21.8999 17.9427 21.6411C18.1344 21.5836 18.3262 21.5069 18.4892 21.3918C21.0873 19.5127 23.6758 17.6337 26.2643 15.745C26.341 15.6875 26.4177 15.63 26.4944 15.582C26.8683 15.3519 27.3093 15.4286 27.549 15.7642C27.7983 16.1093 27.7503 16.5407 27.3956 16.8188C26.9066 17.2022 26.3985 17.557 25.8904 17.9213C24.0305 19.2539 22.1802 20.6057 20.3203 21.9575C20.2436 22.015 20.1765 22.0725 20.0614 22.1684ZM17.7318 26.9332C17.7318 26.5018 17.3962 26.1566 16.9648 26.1566C16.5621 26.1566 16.217 26.5018 16.2074 26.9044C16.1978 27.3263 16.5526 27.6714 16.9744 27.6714C17.4058 27.6714 17.7222 27.355 17.7318 26.9332ZM20.0231 26.9044C20.0135 26.4922 19.678 26.1566 19.2657 26.1566C18.8439 26.1566 18.4987 26.5209 18.5083 26.9332C18.5179 27.355 18.8726 27.681 19.3041 27.6714C19.7259 27.6618 20.0327 27.3263 20.0231 26.9044Z" fill="#E63946"/>
<path d="M38.4109 37.6423C37.5672 37.6423 36.877 36.9521 36.877 36.118C36.877 35.2839 37.5672 34.5841 38.4013 34.5745C39.2354 34.5745 39.9352 35.2743 39.9352 36.1084C39.9448 36.9329 39.245 37.6423 38.4109 37.6423Z" fill="#E63946"/>
<path d="M41.4791 40.71C41.8914 40.71 42.2365 41.0455 42.2365 41.4578C42.2461 41.8796 41.8818 42.2343 41.4696 42.2343C41.0477 42.2343 40.693 41.87 40.7122 41.4482C40.7218 41.0359 41.0573 40.71 41.4791 40.71Z" fill="#E63946"/>
<path d="M35.3625 40.71C35.7843 40.7195 36.1007 41.0359 36.1007 41.4578C36.1007 41.8892 35.7556 42.2343 35.3337 42.2247C34.9311 42.2151 34.5859 41.87 34.5859 41.4673C34.5859 41.0455 34.9311 40.71 35.3625 40.71Z" fill="#E63946"/>
<path d="M26.916 36.8465C23.8193 36.8465 20.8377 36.8465 17.7603 36.8465C17.952 36.3576 18.115 35.9166 18.2971 35.4852C18.3259 35.4085 18.4793 35.3509 18.5847 35.3509C21.0966 35.3414 23.5988 35.3414 26.1106 35.3509C26.2065 35.3509 26.3503 35.4276 26.3887 35.5043C26.5708 35.9262 26.7242 36.3576 26.916 36.8465Z" fill="#E63946"/>
<path d="M17.7603 38.4282C20.8473 38.4282 23.8289 38.4282 26.9255 38.4282C26.7242 38.9363 26.5517 39.3965 26.3503 39.8471C26.3311 39.9046 26.1873 39.9334 26.1106 39.9334C23.5988 39.9334 21.087 39.943 18.5847 39.9334C18.4889 39.9334 18.3451 39.8855 18.3163 39.8184C18.1246 39.3773 17.952 38.9268 17.7603 38.4282Z" fill="#E63946"/>
<path d="M19.9175 33.788C21.1063 32.8197 23.5031 32.8197 24.7877 33.788C23.1483 33.788 21.5569 33.788 19.9175 33.788Z" fill="#E63946"/>
<path d="M24.778 41.4863C23.3783 42.5122 21.0678 42.4163 19.9365 41.4863C21.5472 41.4863 23.1386 41.4863 24.778 41.4863Z" fill="#E63946"/>
</g>
</svg>
