<svg width="28" height="29" viewBox="0 0 28 29" fill="none" xmlns="http://www.w3.org/2000/svg">
<path d="M10.8966 8.11098L10.9535 8.23271L17.4403 25.1494C17.6128 25.5995 17.3949 26.107 16.9534 26.2829C16.5488 26.4443 16.0969 26.2709 15.8914 25.8943L15.8417 25.7866L14.1699 21.4267L5.90197 21.4269L5.79225 21.4198L3.98768 25.8064C3.80439 26.252 3.30147 26.4618 2.86439 26.2749C2.46375 26.1036 2.25749 25.6584 2.36708 25.2421L2.40489 25.1295L9.36281 8.21292C9.64346 7.5306 10.5562 7.50161 10.8966 8.11098ZM21.8694 3.01343C22.3124 3.01343 22.6785 3.3426 22.7364 3.7697L22.7444 3.88843L22.7441 9.42543L24.7861 9.42633C25.2291 9.42633 25.5952 9.7555 25.653 10.1826L25.6611 10.3013C25.6611 10.7443 25.3318 11.1104 24.9048 11.1683L24.7861 11.1763L22.7441 11.1754L22.7444 19.6347C22.7444 20.0776 22.4152 20.4437 21.9882 20.5017L21.8694 20.5097C21.4264 20.5097 21.0603 20.1804 21.0023 19.7534L20.9944 19.6347V3.88843C20.9944 3.40518 21.3862 3.01343 21.8694 3.01343ZM10.2791 10.8816L6.58987 19.6767H13.7181L10.2791 10.8816ZM12.5384 3.01343H18.9525C19.3955 3.01343 19.7616 3.3426 19.8196 3.7697L19.8275 3.88843V7.39275C19.8275 10.1281 17.6101 12.3456 14.8748 12.3456C14.3915 12.3456 13.9998 11.9538 13.9998 11.4705C13.9998 10.9873 14.3915 10.5955 14.8748 10.5955C16.5781 10.5955 17.9709 9.26584 18.0717 7.58785L18.0775 7.39275V4.76343H12.5384C12.0552 4.76343 11.6635 4.37167 11.6635 3.88843C11.6635 3.44544 11.9926 3.07936 12.4198 3.02142L12.5384 3.01343Z" fill="#6BBC3B"/>
</svg>
