<svg width="18" height="19" viewBox="0 0 18 19" fill="none" xmlns="http://www.w3.org/2000/svg">
<path d="M13.6175 12.9114L12.7272 13.7918C12.0711 14.4358 11.2197 15.2638 10.1728 16.2759C9.51865 16.9085 8.4808 16.9084 7.82673 16.2758L5.20837 13.7288C4.8793 13.4057 4.60385 13.1333 4.38197 12.9114C1.83166 10.3611 1.83166 6.22622 4.38197 3.67591C6.93228 1.12561 11.0672 1.12561 13.6175 3.67591C16.1678 6.22622 16.1678 10.3611 13.6175 12.9114ZM10.8749 8.4997C10.8749 7.46406 10.0353 6.62452 8.99973 6.62452C7.96413 6.62452 7.12456 7.46406 7.12456 8.4997C7.12456 9.5353 7.96413 10.3748 8.99973 10.3748C10.0353 10.3748 10.8749 9.5353 10.8749 8.4997Z" fill="#77B032"/>
</svg>
