<svg width="60" height="61" viewBox="0 0 60 61" fill="none" xmlns="http://www.w3.org/2000/svg">
<circle cx="30.0005" cy="30.75" r="30" fill="#6C757D" fill-opacity="0.1"/>
<circle cx="30.0005" cy="30.75" r="29.5" stroke="#6C757D" stroke-opacity="0.4"/>
<mask id="mask0_1102_344" style="mask-type:alpha" maskUnits="userSpaceOnUse" x="9" y="10" width="42" height="42">
<rect x="9.60059" y="10.3501" width="40.8" height="40.8" fill="#D9D9D9"/>
</mask>
<g mask="url(#mask0_1102_344)">
<path d="M40.3919 36.8827C40.8087 37.291 41.2936 37.7503 41.7614 38.2266C42.4929 38.9667 42.4929 39.8428 41.7699 40.5828C41.1149 41.2377 40.4685 41.8927 39.8135 42.5391C39.082 43.2621 38.1804 43.2706 37.4489 42.5476C36.9726 42.0713 36.4962 41.5865 36.0965 41.1782C35.0843 41.5695 34.1401 41.9267 33.213 42.301C33.1279 42.335 33.0513 42.4796 33.0513 42.5732C33.0343 43.2026 33.0513 43.8235 33.0428 44.453C33.0343 45.3886 32.3964 46.0351 31.4692 46.0436C30.4826 46.0521 29.4959 46.0521 28.5092 46.0436C27.5991 46.0351 26.9441 45.3886 26.9356 44.4785C26.9271 43.8746 26.9186 43.2706 26.9441 42.6667C26.9526 42.3945 26.8505 42.3095 26.6124 42.2329C26.1275 42.0798 25.6512 41.9012 25.1834 41.7141C24.7411 41.5354 24.6645 41.1442 24.9962 40.8039C25.6767 40.115 26.3657 39.443 27.0377 38.7455C27.2758 38.4988 27.531 38.5414 27.8287 38.6094C31.061 39.3834 33.8764 38.6179 36.0794 36.1342C38.1634 33.7951 38.6993 31.0136 37.6615 28.0621C36.6153 25.0935 34.4548 23.2818 31.3502 22.7374C26.8165 21.9463 22.6146 25.034 21.9256 29.6017C21.7555 30.7244 21.8235 31.8472 22.1468 32.936C22.2488 33.2847 22.1808 33.5399 21.9171 33.7866C21.2707 34.4075 20.6497 35.0454 20.0203 35.6749C19.578 36.1087 19.2207 36.0406 18.9826 35.4622C18.7954 35.0029 18.6338 34.5351 18.4807 34.0587C18.4212 33.8716 18.3531 33.8036 18.1575 33.8121C17.5536 33.8291 16.9497 33.8206 16.3457 33.8206C15.3506 33.8206 14.7126 33.1826 14.7041 32.196C14.7041 31.2433 14.7041 30.2821 14.7041 29.3295C14.7041 28.3513 15.342 27.7133 16.3117 27.7048C16.9071 27.7048 17.5025 27.6963 18.098 27.7048C18.3191 27.7133 18.4127 27.6538 18.4977 27.4241C18.8125 26.5906 19.1612 25.774 19.5184 24.9659C19.6035 24.7703 19.5865 24.6767 19.4419 24.5321C19.0081 24.1153 18.5828 23.6815 18.1575 23.2477C17.4685 22.5503 17.4685 21.6571 18.1575 20.9597C18.8295 20.2792 19.5014 19.6072 20.1819 18.9352C20.8709 18.2548 21.781 18.2548 22.4785 18.9267C22.9123 19.352 23.3376 19.7773 23.7629 20.2111C23.899 20.3557 24.0011 20.3642 24.1967 20.2792C25.0218 19.9134 25.8468 19.5732 26.6889 19.2415C26.8675 19.1734 26.9356 19.1054 26.9356 18.9097C26.9271 18.2803 26.9271 17.6594 26.9356 17.0299C26.9441 16.1198 27.5905 15.4648 28.5007 15.4563C29.4959 15.4478 30.4996 15.4478 31.4948 15.4563C32.3879 15.4648 33.0343 16.1113 33.0513 17.0044C33.0598 17.6338 33.0598 18.2548 33.0513 18.8842C33.0513 19.0798 33.1109 19.1649 33.3065 19.2415C34.1486 19.5647 34.9737 19.9134 35.7987 20.2707C35.9689 20.3472 36.0709 20.3557 36.207 20.2111C36.6238 19.7773 37.0576 19.352 37.4914 18.9267C38.1974 18.2378 39.1075 18.2293 39.8135 18.9267C40.494 19.5987 41.166 20.2707 41.8379 20.9511C42.5099 21.6316 42.5184 22.5332 41.8464 23.2137C41.4126 23.6645 40.9703 24.1068 40.5195 24.5406C40.3834 24.6682 40.4004 24.7618 40.4685 24.9234C40.8342 25.757 41.183 26.5906 41.5147 27.4412C41.5828 27.6283 41.6593 27.6793 41.8464 27.6793C42.4759 27.6708 43.0968 27.6708 43.7263 27.6793C44.6364 27.6878 45.2913 28.3343 45.2913 29.2529C45.2998 30.2481 45.2998 31.2518 45.2913 32.247C45.2828 33.1401 44.6279 33.7866 43.7348 33.7951C43.0968 33.8036 42.4589 33.7866 41.8209 33.8036C41.7274 33.8036 41.5743 33.8886 41.5402 33.9652C41.1405 34.9178 40.7832 35.8535 40.3919 36.8827Z" fill="#6C757D"/>
<path d="M30.8054 34.8753C30.6097 34.8498 30.244 34.8328 29.8952 34.7477C29.6826 34.6967 29.5635 34.7647 29.4274 34.9008C26.6885 37.6397 23.9496 40.3786 21.2107 43.1175C20.4962 43.832 19.7902 44.555 19.0672 45.2525C18.3527 45.9415 17.4851 46.1626 16.541 45.8734C15.5883 45.5842 14.9929 44.9208 14.7888 43.9511C14.6101 43.109 14.8313 42.352 15.4182 41.7141C15.7159 41.3908 16.0306 41.0931 16.3368 40.7869C19.4925 37.6312 22.6567 34.467 25.8124 31.3113C25.957 31.1667 26.0166 31.0391 25.9655 30.818C25.1915 27.0329 28.6874 23.8006 32.3705 24.8979C32.9744 25.0765 33.0765 25.4763 32.6427 25.9271C31.9792 26.5991 31.3072 27.271 30.6353 27.926C30.4992 28.0621 30.4566 28.1812 30.5247 28.3683C30.6693 28.7425 30.7714 29.1338 30.916 29.5081C30.9585 29.6272 31.0776 29.7547 31.1967 29.7973C31.5794 29.9504 31.9792 30.0525 32.3705 30.2056C32.5491 30.2736 32.6597 30.2311 32.7873 30.1035C33.4507 29.4315 34.1227 28.7681 34.7861 28.0961C35.2455 27.6368 35.6452 27.7389 35.8239 28.3683C36.7935 31.6005 34.3353 34.8753 30.8054 34.8753Z" fill="#6C757D"/>
</g>
</svg>
