<svg width="28" height="29" viewBox="0 0 28 29" fill="none" xmlns="http://www.w3.org/2000/svg">
<path d="M14.0006 3.00562C18.7255 3.00562 22.5835 6.73282 22.7457 11.4629L22.7506 11.7556V16.5355L24.3606 20.2175C24.4413 20.4017 24.4828 20.6006 24.4828 20.8017C24.4828 21.6071 23.8299 22.2601 23.0245 22.2601L17.5006 22.2618C17.5006 24.1947 15.9337 25.7618 14.0006 25.7618C12.1367 25.7618 10.6131 24.3046 10.5066 22.4674L10.5001 22.2591L4.98801 22.2601C4.78811 22.2601 4.59035 22.2189 4.407 22.1393C3.66826 21.8184 3.32952 20.9595 3.6504 20.2207L5.25066 16.5365V11.7555C5.25136 6.90824 9.16143 3.00562 14.0006 3.00562ZM15.7502 22.2591L12.2506 22.2618C12.2506 23.2283 13.0342 24.0118 14.0006 24.0118C14.9103 24.0118 15.6579 23.3178 15.7426 22.4303L15.7502 22.2591ZM14.0006 4.75561C10.1271 4.75561 7.00122 7.87559 7.00066 11.7556V16.9002L5.43268 20.5101H22.5786L21.0006 16.9013L21.0008 11.7706L20.9964 11.5079C20.8668 7.73549 17.7825 4.75561 14.0006 4.75561Z" fill="#6BBC3B"/>
</svg>
