<svg width="44" height="45" viewBox="0 0 44 45" fill="none" xmlns="http://www.w3.org/2000/svg">
<circle cx="22" cy="22.75" r="22" fill="#77B032"/>
<path d="M21.9876 13C23.4351 13 24.7878 13.4069 25.9353 14.1145C25.5934 14.4798 25.329 14.9182 25.1682 15.4038C24.2457 14.8301 23.1554 14.4996 21.9876 14.4996C18.663 14.4996 15.98 17.1731 15.9795 20.498V24.9064L14.6337 27.9997H29.3502L27.9958 24.9074L27.9959 20.5108L27.9921 20.2857C27.9884 20.1774 27.9818 20.0698 27.9725 19.963C28.1435 19.9886 28.3185 20.0019 28.4966 20.0019C28.8347 20.0019 29.1616 19.9541 29.4709 19.8649C29.4816 19.9914 29.4892 20.1188 29.4936 20.2471L29.4978 20.498V24.5938L30.8797 27.749C30.9489 27.9069 30.9846 28.0773 30.9846 28.2496C30.9846 28.9398 30.4241 29.4993 29.7329 29.4993L24.9917 29.5008C24.9917 31.1572 23.6467 32.5 21.9876 32.5C20.3878 32.5 19.08 31.2514 18.9887 29.677L18.9831 29.4985L14.252 29.4993C14.0804 29.4993 13.9107 29.4641 13.7533 29.3959C13.1193 29.1209 12.8285 28.3848 13.1039 27.7518L14.4775 24.5948V20.4979C14.4781 16.3442 17.8341 13 21.9876 13ZM23.4892 29.4985L20.4856 29.5008C20.4856 30.329 21.1581 31.0004 21.9876 31.0004C22.7684 31.0004 23.41 30.4057 23.4828 29.6452L23.4892 29.4985Z" fill="white"/>
<path d="M26.033 16.0565C26.1282 15.5293 26.3889 15.0596 26.7595 14.703C27.2097 14.2698 27.822 14.0034 28.4966 14.0034C29.8792 14.0034 31 15.1224 31 16.5027C31 17.5956 30.2974 18.5247 29.3185 18.8642C29.0611 18.9535 28.7845 19.0021 28.4966 19.0021C28.2482 19.0021 28.0083 18.9659 27.7818 18.8987C26.7475 18.5916 25.9932 17.6351 25.9932 16.5027C25.9932 16.3504 26.0069 16.2013 26.033 16.0565Z" fill="white"/>
</svg>
