<svg width="60" height="61" viewBox="0 0 60 61" fill="none" xmlns="http://www.w3.org/2000/svg">
<circle cx="30.0005" cy="30.75" r="30" fill="#3A86FF" fill-opacity="0.1"/>
<circle cx="30.0005" cy="30.75" r="29.5" stroke="#3A86FF" stroke-opacity="0.4"/>
<mask id="mask0_1102_329" style="mask-type:alpha" maskUnits="userSpaceOnUse" x="9" y="10" width="42" height="42">
<rect x="9.60059" y="10.3501" width="40.8" height="40.8" fill="#D9D9D9"/>
</mask>
<g mask="url(#mask0_1102_329)">
<path d="M40.9533 30.8868C40.3968 30.7682 39.8676 30.6131 39.3202 30.5401C38.7181 30.4671 38.0977 30.4671 37.4864 30.458C37.3222 30.458 37.2309 30.4397 37.1488 30.2664C36.9116 29.7555 36.4372 29.5274 35.9172 29.6369C35.4062 29.7464 35.0869 30.1569 35.0596 30.7226C35.0504 30.8138 34.9957 30.9598 34.9318 30.978C33.8188 31.3886 32.8426 32.009 31.9393 32.8301C31.9211 32.7297 31.9029 32.6659 31.8937 32.602C31.6748 31.7261 30.7168 31.4342 30.0599 32.0637C29.2388 32.8575 28.4451 33.6694 27.6331 34.4723C27.551 34.5544 27.4689 34.6274 27.3411 34.746C26.9671 34.3628 26.6204 33.9705 26.2463 33.6056C25.7354 33.1038 25.0877 33.0855 24.6406 33.5417C24.1936 33.9979 24.2301 34.6456 24.7318 35.1474C25.3249 35.7496 25.9179 36.3426 26.52 36.9356C27.0857 37.5013 27.6696 37.4922 28.2444 36.9265C28.8191 36.3608 29.3848 35.7861 29.9596 35.2113C30.0326 35.1383 30.1147 35.0653 30.215 35.0015C29.0107 37.3279 28.7918 39.7365 29.6129 42.2728C29.4669 42.282 29.3483 42.2911 29.2297 42.2911C25.0055 42.2911 20.7814 42.2911 16.5664 42.2911C15.6723 42.2911 15.2617 41.8805 15.2617 40.9682C15.2617 36.6802 15.2617 32.383 15.2617 28.095C15.2617 27.2009 15.6723 26.7904 16.5846 26.7904C17.1229 26.7904 17.6521 26.7995 18.1903 26.7812C18.3272 26.7721 18.5005 26.6991 18.5826 26.5988C20.6445 24.0625 22.6882 21.5262 24.7318 18.9807C24.8139 18.8804 24.8687 18.7161 24.8687 18.5884C24.9508 16.8367 26.3832 15.45 28.1258 15.45C29.8683 15.45 31.3007 16.8276 31.3828 18.5793C31.3919 18.7253 31.4558 18.8895 31.547 18.999C33.5724 21.5262 35.6161 24.0533 37.6415 26.5805C37.7692 26.7448 37.9061 26.7995 38.0977 26.7904C38.6907 26.7812 39.2837 26.7812 39.8767 26.7904C40.4424 26.7995 40.9259 27.1462 40.9442 27.6936C40.9898 28.7519 40.9533 29.8194 40.9533 30.8868ZM35.0048 26.7721C33.4447 24.8471 31.9211 22.9585 30.3975 21.07C28.9195 22.3199 27.1313 22.1739 25.8631 21.07C24.3304 22.9494 22.7977 24.8471 21.2376 26.7721C25.854 26.7721 30.3975 26.7721 35.0048 26.7721ZM21.2102 30.7043C21.2193 30.1113 20.7358 29.6186 20.1428 29.6095C19.5497 29.6004 19.0571 30.0839 19.0479 30.6861C19.0388 31.2791 19.5224 31.7718 20.1154 31.7809C20.7175 31.7809 21.2102 31.3065 21.2102 30.7043ZM21.2102 38.3771C21.2102 37.775 20.7267 37.3006 20.1245 37.3006C19.5224 37.3006 19.0479 37.7841 19.0479 38.3863C19.0479 38.9884 19.5406 39.4628 20.1336 39.4628C20.7358 39.4628 21.2102 38.9793 21.2102 38.3771Z" fill="#3A86FF"/>
<path d="M31.2915 39.3169C31.2915 35.6219 34.3114 32.6021 38.0063 32.6021C41.7105 32.6021 44.7486 35.631 44.7394 39.3351C44.7303 43.0393 41.6922 46.0591 37.9881 46.05C34.284 46.0317 31.2915 43.021 31.2915 39.3169ZM39.092 38.2403C39.092 37.7842 39.092 37.3827 39.092 36.9904C39.0829 36.3518 38.6541 35.8774 38.0611 35.8591C37.4407 35.8409 36.9572 36.2788 36.9389 36.9357C36.9207 37.7294 36.9207 38.5323 36.9389 39.326C36.9572 39.9647 37.386 40.3843 38.0337 40.3935C38.7818 40.4117 39.5391 40.4117 40.2872 40.3935C40.935 40.3843 41.4094 39.9008 41.4003 39.2986C41.3911 38.6965 40.9076 38.2495 40.2598 38.2312C39.8858 38.2403 39.5117 38.2403 39.092 38.2403Z" fill="#3A86FF"/>
</g>
</svg>
