<svg width="28" height="28" viewBox="0 0 28 28" fill="none" xmlns="http://www.w3.org/2000/svg">
<g clip-path="url(#clip0_556_77)">
<path d="M20.7142 16.3337C22.1633 16.3337 23.3379 17.5083 23.3379 18.9574V19.6287C23.3379 20.672 22.9651 21.681 22.2867 22.4736C20.4557 24.6127 17.6706 25.6683 14.0011 25.6683C10.3309 25.6683 7.54722 24.6123 5.71987 22.4723C5.04347 21.6803 4.67188 20.6728 4.67188 19.6312V18.9574C4.67188 17.5083 5.84653 16.3337 7.29556 16.3337H20.7142ZM20.7142 18.0837H7.29556C6.81304 18.0837 6.42188 18.4748 6.42188 18.9574V19.6312C6.42188 20.2562 6.64484 20.8607 7.05066 21.3359C8.51286 23.0482 10.8064 23.9183 14.0011 23.9183C17.1958 23.9183 19.4913 23.0482 20.9571 21.3356C21.3643 20.86 21.5879 20.2546 21.5879 19.6287V18.9574C21.5879 18.4748 21.1968 18.0837 20.7142 18.0837ZM14.0011 2.33911C17.2227 2.33911 19.8344 4.95079 19.8344 8.17244C19.8344 11.3941 17.2227 14.0058 14.0011 14.0058C10.7794 14.0058 8.16773 11.3941 8.16773 8.17244C8.16773 4.95079 10.7794 2.33911 14.0011 2.33911ZM14.0011 4.08911C11.7459 4.08911 9.91773 5.91729 9.91773 8.17244C9.91773 10.4276 11.7459 12.2558 14.0011 12.2558C16.2563 12.2558 18.0844 10.4276 18.0844 8.17244C18.0844 5.91729 16.2563 4.08911 14.0011 4.08911Z" fill="#8A8A8A"/>
<path d="M20.7142 16.3337C22.1633 16.3337 23.3379 17.5083 23.3379 18.9574V20.0288C23.3379 20.6978 23.1289 21.35 22.7399 21.8942C20.9364 24.418 17.9913 25.6683 14.0011 25.6683C10.0099 25.6683 7.06648 24.4175 5.26729 21.8923C4.88001 21.3488 4.67188 20.698 4.67188 20.0306V18.9574C4.67188 17.5083 5.84653 16.3337 7.29556 16.3337H20.7142ZM14.0011 2.33911C17.2227 2.33911 19.8344 4.95079 19.8344 8.17244C19.8344 11.3941 17.2227 14.0058 14.0011 14.0058C10.7794 14.0058 8.16773 11.3941 8.16773 8.17244C8.16773 4.95079 10.7794 2.33911 14.0011 2.33911Z" fill="#6BBC3B"/>
</g>
<defs>
<clipPath id="clip0_556_77">
<rect width="28" height="28" fill="white"/>
</clipPath>
</defs>
</svg>
