<svg width="29" height="29" viewBox="0 0 29 29" fill="none" xmlns="http://www.w3.org/2000/svg">
<g clip-path="url(#clip0_886_651)">
<path d="M10.4191 4.89609H8.19961C7.03981 4.89609 6.09961 5.83629 6.09961 6.99609V23.7961C6.09961 24.9559 7.03981 25.8961 8.19961 25.8961H20.7996C21.9594 25.8961 22.8996 24.9559 22.8996 23.7961V6.99609C22.8996 5.83629 21.9594 4.89609 20.7996 4.89609H18.58C18.2918 4.08045 17.5139 3.49609 16.5996 3.49609H12.3996C11.4853 3.49609 10.7074 4.08045 10.4191 4.89609ZM12.3996 4.89609H16.5996C16.9861 4.89609 17.2996 5.2095 17.2996 5.59609C17.2996 5.98269 16.9861 6.29609 16.5996 6.29609H12.3996C12.013 6.29609 11.6996 5.98269 11.6996 5.59609C11.6996 5.2095 12.013 4.89609 12.3996 4.89609ZM13.0996 12.5961C13.0996 12.2095 13.413 11.8961 13.7996 11.8961H18.6996C19.0861 11.8961 19.3996 12.2095 19.3996 12.5961C19.3996 12.9827 19.0861 13.2961 18.6996 13.2961H13.7996C13.413 13.2961 13.0996 12.9827 13.0996 12.5961ZM13.0996 16.7961C13.0996 16.4096 13.413 16.0961 13.7996 16.0961H18.6996C19.0861 16.0961 19.3996 16.4096 19.3996 16.7961C19.3996 17.1826 19.0861 17.4961 18.6996 17.4961H13.7996C13.413 17.4961 13.0996 17.1826 13.0996 16.7961ZM13.0996 20.9961C13.0996 20.6096 13.413 20.2961 13.7996 20.2961H18.6996C19.0861 20.2961 19.3996 20.6096 19.3996 20.9961C19.3996 21.3826 19.0861 21.6961 18.6996 21.6961H13.7996C13.413 21.6961 13.0996 21.3826 13.0996 20.9961ZM11.6996 12.5961C11.6996 13.176 11.2295 13.6461 10.6496 13.6461C10.0697 13.6461 9.59961 13.176 9.59961 12.5961C9.59961 12.0162 10.0697 11.5461 10.6496 11.5461C11.2295 11.5461 11.6996 12.0162 11.6996 12.5961ZM11.6996 16.7961C11.6996 17.376 11.2295 17.8461 10.6496 17.8461C10.0697 17.8461 9.59961 17.376 9.59961 16.7961C9.59961 16.2162 10.0697 15.7461 10.6496 15.7461C11.2295 15.7461 11.6996 16.2162 11.6996 16.7961ZM10.6496 22.0461C10.0697 22.0461 9.59961 21.576 9.59961 20.9961C9.59961 20.4162 10.0697 19.9461 10.6496 19.9461C11.2295 19.9461 11.6996 20.4162 11.6996 20.9961C11.6996 21.576 11.2295 22.0461 10.6496 22.0461Z" fill="#6BBC3B"/>
</g>
<defs>
<clipPath id="clip0_886_651">
<rect width="28" height="28" fill="white" transform="translate(0.5 0.696045)"/>
</clipPath>
</defs>
</svg>
