<svg width="21" height="21" viewBox="0 0 21 21" fill="none" xmlns="http://www.w3.org/2000/svg">
<path d="M5.09178 10.7184L7.35058 11.3344C8.08118 11.5337 8.44647 11.6333 8.70132 11.8882C8.95617 12.143 9.0558 12.5083 9.25505 13.2389L9.87109 15.4977L9.87109 15.4977C10.7623 18.7656 11.208 20.3996 12.1869 20.4519C13.1659 20.5042 13.7831 18.927 15.0174 15.7726L19.3141 4.79211C20.2833 2.31523 20.7679 1.07679 20.1403 0.449172C19.5127 -0.17845 18.2742 0.306156 15.7974 1.27537L4.81687 5.57209C1.6625 6.8064 0.0853129 7.42356 0.137608 8.40254C0.189904 9.38152 1.82386 9.82714 5.09178 10.7184Z" fill="#6BBC3B"/>
</svg>
