<svg width="28" height="29" viewBox="0 0 28 29" fill="none" xmlns="http://www.w3.org/2000/svg">
<path d="M13.125 24.3018C13.125 24.5338 13.0328 24.7564 12.8687 24.9205C12.7046 25.0846 12.4821 25.1768 12.25 25.1768H5.25C5.01794 25.1768 4.79538 25.0846 4.63128 24.9205C4.46719 24.7564 4.375 24.5338 4.375 24.3018V5.05176C4.375 4.81969 4.46719 4.59713 4.63128 4.43304C4.79538 4.26895 5.01794 4.17676 5.25 4.17676H12.25C12.4821 4.17676 12.7046 4.26895 12.8687 4.43304C13.0328 4.59713 13.125 4.81969 13.125 5.05176C13.125 5.28382 13.0328 5.50638 12.8687 5.67048C12.7046 5.83457 12.4821 5.92676 12.25 5.92676H6.125V23.4268H12.25C12.4821 23.4268 12.7046 23.5189 12.8687 23.683C13.0328 23.8471 13.125 24.0697 13.125 24.3018ZM25.1191 14.0577L20.7441 9.68269C20.5799 9.51851 20.3572 9.42627 20.125 9.42627C19.8928 9.42627 19.6701 9.51851 19.5059 9.68269C19.3418 9.84688 19.2495 10.0696 19.2495 10.3018C19.2495 10.534 19.3418 10.7566 19.5059 10.9208L22.388 13.8018H12.25C12.0179 13.8018 11.7954 13.8939 11.6313 14.058C11.4672 14.2221 11.375 14.4447 11.375 14.6768C11.375 14.9088 11.4672 15.1314 11.6313 15.2955C11.7954 15.4596 12.0179 15.5518 12.25 15.5518H22.388L19.5059 18.4327C19.3418 18.5969 19.2495 18.8196 19.2495 19.0518C19.2495 19.284 19.3418 19.5066 19.5059 19.6708C19.6701 19.835 19.8928 19.9272 20.125 19.9272C20.3572 19.9272 20.5799 19.835 20.7441 19.6708L25.1191 15.2958C25.2004 15.2146 25.265 15.1181 25.309 15.0118C25.353 14.9056 25.3757 14.7917 25.3757 14.6768C25.3757 14.5618 25.353 14.4479 25.309 14.3417C25.265 14.2355 25.2004 14.139 25.1191 14.0577Z" fill="#FF3838"/>
</svg>
