<svg width="28" height="29" viewBox="0 0 28 29" fill="none" xmlns="http://www.w3.org/2000/svg">
<path d="M8.75065 9.73977C10.6836 9.73977 12.2507 8.17282 12.2507 6.23987C12.2507 4.30694 10.6836 2.73999 8.75065 2.73999C6.81766 2.73999 5.25065 4.30694 5.25065 6.23987C5.25065 8.17282 6.81766 9.73977 8.75065 9.73977ZM2.33398 12.9691C2.33398 11.8301 3.25739 10.9067 4.39646 10.9067H9.95831C9.56124 11.5931 9.33398 12.39 9.33398 13.24C9.33398 14.6338 9.94505 15.8849 10.9139 16.74H9.64647C8.26184 16.74 7.08077 17.6115 6.6218 18.8358C4.8733 18.4084 3.7896 17.4549 3.15165 16.3931C2.33391 15.032 2.33397 13.6314 2.33398 13.3884V12.9691ZM18.6674 13.24C18.6674 12.39 18.4403 11.5931 18.0432 10.9067H23.6049C24.7439 10.9067 25.6673 11.8301 25.6673 12.9691V13.3884C25.6673 13.6314 25.6674 15.032 24.8496 16.3931C24.2117 17.4549 23.128 18.4084 21.3795 18.8358C20.9205 17.6115 19.7395 16.74 18.3549 16.74H17.0875C18.0565 15.8849 18.6674 14.6338 18.6674 13.24ZM22.7507 6.23987C22.7507 8.17282 21.1837 9.73977 19.2507 9.73977C17.3176 9.73977 15.7507 8.17282 15.7507 6.23987C15.7507 4.30694 17.3176 2.73999 19.2507 2.73999C21.1837 2.73999 22.7507 4.30694 22.7507 6.23987ZM7.58398 19.9691C7.58398 18.8301 8.50739 17.9067 9.64647 17.9067H18.3549C19.4939 17.9067 20.4173 18.8301 20.4173 19.9691V20.3884C20.4173 20.6314 20.4174 22.032 19.5996 23.3931C18.7348 24.8328 17.0503 26.0733 14.0007 26.0733C10.9509 26.0733 9.2666 24.8328 8.40164 23.3931C7.58391 22.032 7.58397 20.6314 7.58398 20.3884V19.9691ZM14.0007 16.7398C15.9337 16.7398 17.5007 15.1728 17.5007 13.2399C17.5007 11.3069 15.9337 9.73999 14.0007 9.73999C12.0676 9.73999 10.5007 11.3069 10.5007 13.2399C10.5007 15.1728 12.0676 16.7398 14.0007 16.7398Z" fill="#6BBC3B"/>
</svg>
