<svg width="28" height="29" viewBox="0 0 28 29" fill="none" xmlns="http://www.w3.org/2000/svg">
<path d="M13.9993 20.5101C15.288 20.5101 16.3327 19.4655 16.3327 18.1768C16.3327 16.8881 15.288 15.8434 13.9993 15.8434C12.7106 15.8434 11.666 16.8881 11.666 18.1768C11.666 19.4655 12.7106 20.5101 13.9993 20.5101ZM16.3327 6.51009C16.3327 7.12879 16.0919 7.69124 15.6989 8.10884L18.76 11.9353C18.846 12.0427 18.9952 12.0755 19.1183 12.014L22.2109 10.4677C22.1814 10.3197 22.166 10.1667 22.166 10.0101C22.166 8.72143 23.2106 7.67676 24.4993 7.67676C25.788 7.67676 26.8327 8.72143 26.8327 10.0101C26.8327 11.1206 26.0568 12.05 25.0176 12.2857L22.9128 23.5113C22.7317 24.477 21.8886 25.1768 20.9061 25.1768H7.0926C6.11012 25.1768 5.26695 24.477 5.0859 23.5113L2.98108 12.2857C1.94185 12.05 1.16602 11.1206 1.16602 10.0101C1.16602 8.72143 2.21068 7.67676 3.49935 7.67676C4.78801 7.67676 5.83268 8.72143 5.83268 10.0101C5.83268 10.1667 5.81725 10.3197 5.78782 10.4677L8.88041 12.014C9.00343 12.0755 9.15269 12.0427 9.2386 11.9353L12.2997 8.10884C11.9068 7.69124 11.666 7.12879 11.666 6.51009C11.666 5.22143 12.7106 4.17676 13.9993 4.17676C15.288 4.17676 16.3327 5.22143 16.3327 6.51009ZM13.9993 8.84342C13.9841 8.84342 13.9688 8.84327 13.9536 8.84298L10.6051 13.0286C10.0037 13.7803 8.95887 14.0098 8.09779 13.5793L4.81461 11.9377C4.78009 11.9613 4.74491 11.984 4.70909 12.0057L6.80593 23.1889C6.83179 23.3268 6.95224 23.4268 7.0926 23.4268H20.9061C21.0465 23.4268 21.1669 23.3268 21.1928 23.1889L23.2896 12.0057C23.2538 11.984 23.2186 11.9613 23.184 11.9377L19.9009 13.5793C19.0398 14.0098 17.9949 13.7803 17.3935 13.0286L14.0451 8.84298C14.0299 8.84327 14.0146 8.84342 13.9993 8.84342Z" fill="#6BBC3B"/>
</svg>
