<svg width="140" height="141" viewBox="0 0 140 141" fill="none" xmlns="http://www.w3.org/2000/svg">
<path d="M140 70.75C140 109.41 108.66 140.75 70 140.75C31.3401 140.75 0 109.41 0 70.75C0 32.0901 31.3401 0.75 70 0.75C108.66 0.75 140 32.0901 140 70.75Z" fill="#6BBC3B"/>
<path d="M104.15 55.0766C103.448 54.4902 102.595 54.113 101.688 53.9881C100.781 53.8633 99.858 53.9957 99.0231 54.3705L83.488 61.2784L74.4617 45.0064C74.0303 44.2467 73.4052 43.615 72.6502 43.1755C71.8951 42.7359 71.0371 42.5044 70.1634 42.5044C69.2898 42.5044 68.4317 42.7359 67.6767 43.1755C66.9217 43.615 66.2966 44.2467 65.8652 45.0064L56.8389 61.2784L41.3038 54.3705C40.4672 53.9963 39.5426 53.8636 38.6345 53.9875C37.7265 54.1113 36.8712 54.4867 36.1653 55.0712C35.4594 55.6557 34.9311 56.426 34.6401 57.295C34.3492 58.1641 34.3071 59.0972 34.5187 59.9889L42.3169 93.2389C42.4661 93.8826 42.7443 94.4894 43.1348 95.0224C43.5253 95.5554 44.02 96.0036 44.5889 96.3398C45.359 96.8008 46.2395 97.0448 47.1371 97.0459C47.5734 97.0451 48.0075 96.9831 48.4266 96.8617C62.6409 92.9318 77.6552 92.9318 91.8696 96.8617C93.1674 97.2029 94.5477 97.0152 95.7073 96.3398C96.2796 96.0079 96.777 95.561 97.168 95.0273C97.559 94.4936 97.8352 93.8846 97.9792 93.2389L105.808 59.9889C106.017 59.0969 105.973 58.1643 105.68 57.2962C105.387 56.4282 104.857 55.6593 104.15 55.0766Z" fill="white"/>
</svg>
