<svg width="60" height="61" viewBox="0 0 60 61" fill="none" xmlns="http://www.w3.org/2000/svg">
<circle cx="30.0005" cy="30.75" r="30" fill="#388E3C" fill-opacity="0.1"/>
<circle cx="30.0005" cy="30.75" r="29.5" stroke="#388E3C" stroke-opacity="0.4"/>
<path d="M15.334 26.1815V20.6536C15.334 19.8961 15.762 19.2036 16.4396 18.8648L21.1062 16.5315C21.6693 16.2499 22.332 16.2499 22.8951 16.5315L27.5617 18.8648C28.2393 19.2036 28.6673 19.8961 28.6673 20.6536V26.1815C28.6673 26.9391 28.2393 27.6316 27.5617 27.9704L22.8951 30.3037C22.332 30.5852 21.6693 30.5852 21.1062 30.3037L16.4396 27.9704C15.762 27.6316 15.334 26.9391 15.334 26.1815ZM17.4044 20.7861C17.2397 21.1154 17.3732 21.5159 17.7025 21.6805L21.334 23.4963V27.4176C21.334 27.7858 21.6325 28.0843 22.0007 28.0843C22.3688 28.0843 22.6673 27.7858 22.6673 27.4176V23.4963L26.2988 21.6805C26.6281 21.5159 26.7616 21.1154 26.5969 20.7861C26.4323 20.4568 26.0318 20.3233 25.7025 20.488L22.0007 22.3389L18.2988 20.488C17.9695 20.3233 17.569 20.4568 17.4044 20.7861ZM29.4043 18.7507C29.7855 19.299 30.0007 19.9599 30.0007 20.6534V26.1813C30.0007 27.4438 29.2873 28.598 28.158 29.1627L23.4914 31.496C22.5529 31.9652 21.4484 31.9652 20.5099 31.496L16.6673 29.5747V37.7507C16.6673 39.3131 17.8617 40.5964 19.3871 40.7377C19.6992 42.6359 21.3475 44.084 23.334 44.084C25.316 44.084 26.9613 42.6424 27.2787 40.7507H30.056C30.3733 42.6424 32.0187 44.084 34.0007 44.084C35.9827 44.084 37.628 42.6424 37.9453 40.7507H40.334C41.9908 40.7507 43.334 39.4075 43.334 37.7507V30.5337C43.334 30.0895 43.2353 29.6509 43.0452 29.2495L40.7796 24.4664C40.2832 23.4187 39.2277 22.7507 38.0684 22.7507H36.0007V21.7507C36.0007 20.0938 34.6575 18.7507 33.0007 18.7507H29.4043ZM39.6673 35.4173H41.334V37.4173H39.6673C39.1151 37.4173 38.6673 36.9697 38.6673 36.4173C38.6673 35.8651 39.1151 35.4173 39.6673 35.4173ZM38.9721 25.3226L40.9117 29.4173H36.0007V24.7507H38.0684C38.4548 24.7507 38.8067 24.9733 38.9721 25.3226ZM25.334 40.084C25.334 41.1885 24.4386 42.084 23.334 42.084C22.2294 42.084 21.334 41.1885 21.334 40.084C21.334 38.9795 22.2294 38.084 23.334 38.084C24.4386 38.084 25.334 38.9795 25.334 40.084ZM34.0007 38.084C35.1052 38.084 36.0007 38.9795 36.0007 40.084C36.0007 41.1885 35.1052 42.084 34.0007 42.084C32.8961 42.084 32.0007 41.1885 32.0007 40.084C32.0007 38.9795 32.8961 38.084 34.0007 38.084Z" fill="#388E3C"/>
</svg>
